<svg width="25" height="24" viewBox="0 0 25 24" fill="none" xmlns="http://www.w3.org/2000/svg">
<g clip-path="url(#clip0_7_2206)">
<path d="M12.6492 0C6.13134 0 0.833328 5.07077 0.833328 11.3434C0.833328 17.6009 6.11531 22.6868 12.6492 22.6868C19.1674 22.6868 24.4651 17.616 24.4651 11.3434C24.4651 5.07077 19.1674 0 12.6492 0ZM12.6492 15.104C10.4819 15.104 8.71592 13.4086 8.71592 11.328C8.71592 9.24739 10.4819 7.552 12.6492 7.552C14.8165 7.552 16.5825 9.24739 16.5825 11.328C16.5825 13.4243 14.8168 15.104 12.6492 15.104Z" fill="#EDB66B"/>
<path d="M7.16657 15.6985C6.87459 15.6985 6.62876 15.5951 6.44415 15.4182C6.0137 14.9902 6.02909 14.2527 6.05986 13.3822C6.07524 12.6296 6.10601 11.6853 5.7371 11.3167C5.66018 11.228 5.50666 11.125 5.15314 11.1102H5.0916C4.70731 11.1102 4.43071 11.184 4.27687 11.3462C3.9695 11.656 4.01565 12.3496 4.04642 12.9102C4.09257 13.5004 4.12334 14.017 3.76982 14.312C3.50861 14.548 3.15509 14.6662 2.7708 14.6662C2.0176 14.6662 1.12627 14.1647 0.834283 13.5745C0.803834 13.5151 0.78845 13.4708 0.78845 13.4117L0.773066 13.264C0.726912 12.7034 0.665375 12.0837 0.665375 11.8182C0.665375 5.5622 5.96755 0.486816 12.4684 0.486816C18.9693 0.486816 24.2718 5.57697 24.2718 11.8182C24.2718 12.069 24.2564 12.3345 24.241 12.5856C24.1795 13.3674 23.5186 13.9724 22.7196 13.9724C22.5507 13.9724 22.3661 13.9428 22.1971 13.8837C21.4286 13.6034 20.7831 13.0724 20.1683 12.5557C19.277 11.8031 18.4315 11.1099 17.2328 11.0804C16.4796 11.0656 15.8033 10.6671 15.4501 10.0474C14.5896 8.51297 14.4819 8.45389 12.3149 8.45389C8.31912 8.45389 8.31912 10.608 8.31912 11.3164C8.31912 11.7148 8.34989 12.1425 8.36528 12.5557C8.4422 13.7656 8.50374 14.8277 7.9656 15.3739C7.79669 15.5807 7.50471 15.6985 7.16657 15.6985Z" fill="#86522C"/>
<path d="M12.4995 0.973846C18.7392 0.973846 23.8109 5.828 23.8109 11.8329C23.8109 12.0837 23.7955 12.3345 23.7801 12.5708C23.734 13.1018 23.2731 13.5003 22.7661 13.5003C22.6584 13.5003 22.5356 13.4855 22.4279 13.4412C20.7065 12.8215 19.5847 10.6526 17.295 10.6086C16.7418 10.5938 16.2036 10.2988 15.9424 9.82646C14.9742 8.08554 14.6514 7.98215 12.3614 7.98215C9.81013 7.98215 7.85824 8.80831 7.85824 11.3166C7.85824 13.1166 8.33483 15.2117 7.18196 15.2117C5.66051 15.2117 7.76593 10.6969 5.18423 10.6378H5.10731C2.60221 10.6378 3.98553 13.5003 3.4631 13.9723C3.27849 14.1348 3.04804 14.1935 2.80221 14.1935C2.18747 14.1935 1.5112 13.7803 1.32659 13.3822C1.29582 13.0723 1.2189 12.1428 1.2189 11.8329C1.18813 5.828 6.25986 0.973846 12.4995 0.973846ZM12.4995 0C5.70666 0 0.189102 5.29692 0.189102 11.8182C0.189102 12.0985 0.25064 12.7329 0.296793 13.3083L0.312178 13.4557C0.327562 13.5738 0.358331 13.6917 0.404484 13.7951C0.788774 14.5622 1.83395 15.1526 2.78683 15.1526C3.29387 15.1526 3.75508 14.9902 4.12399 14.6803C4.6618 14.2231 4.61565 13.5443 4.5695 12.8803C4.55411 12.5409 4.49257 11.8474 4.6618 11.6852C4.69257 11.6557 4.83071 11.5966 5.10731 11.5966H5.15346C5.19962 11.5966 5.33775 11.5966 5.38391 11.6409C5.61435 11.8622 5.58358 12.836 5.5682 13.3671C5.53743 14.2966 5.52205 15.1818 6.09063 15.7425C6.36723 16.0228 6.75152 16.1705 7.18196 16.1705C7.65856 16.1705 8.0733 16.008 8.38066 15.6837C9.05694 14.9902 8.9954 13.8394 8.91848 12.5114C8.88771 12.1129 8.87232 11.6852 8.87232 11.3015C8.87232 10.5932 8.87233 8.92615 12.3611 8.92615C14.313 8.92615 14.313 8.92615 15.0505 10.2689C15.4809 11.0508 16.3415 11.5378 17.2636 11.5526C18.278 11.5674 19.0158 12.1868 19.8764 12.9098C20.5372 13.4557 21.2135 14.0314 22.0587 14.3265C22.2738 14.4003 22.5199 14.4446 22.7504 14.4446C23.8109 14.4446 24.7023 13.6477 24.7635 12.6151C24.7789 12.3495 24.7942 12.0692 24.7942 11.8037C24.8103 5.31169 19.2927 0 12.4995 0Z" fill="#4C2F1B"/>
<path d="M14.1957 22.4517C14.2812 22.6664 14.6325 22.7369 14.9803 22.6089C15.328 22.4812 15.5405 22.2037 15.4549 21.9889C15.3694 21.7741 15.0181 21.704 14.6703 21.8317C14.3226 21.9597 14.1101 22.2372 14.1957 22.4517Z" fill="#E3A358"/>
<path d="M20.6738 18.4781C20.8234 18.8535 21.1875 19.1175 21.6289 19.1707C22.0702 19.2237 22.5215 19.0578 22.8132 18.7357C23.1048 18.4132 23.1923 17.9834 23.0427 17.608C22.893 17.2323 22.5289 16.9686 22.0875 16.9154C21.6462 16.8624 21.1946 17.0283 20.9029 17.3504C20.6113 17.6729 20.5241 18.1027 20.6738 18.4781Z" fill="#E3A358"/>
<path d="M9.48706 23.1612C9.63674 23.5366 10.0008 23.8006 10.4422 23.8538C10.8835 23.9068 11.3351 23.7409 11.6268 23.4188C11.9184 23.0963 12.0059 22.6665 11.8563 22.2911C11.7066 21.9157 11.3425 21.6517 10.9011 21.5985C10.4598 21.5455 10.0082 21.7114 9.71655 22.0335C9.42488 22.356 9.33739 22.7858 9.48706 23.1612Z" fill="#E3A358"/>
<path d="M7.02458 21.4268C7.25952 21.4779 7.49477 21.448 7.6422 21.348C7.78932 21.248 7.82586 21.0936 7.73804 20.9422C7.65022 20.7911 7.4515 20.6662 7.21657 20.6151C6.98164 20.5637 6.74638 20.5939 6.59895 20.6939C6.45183 20.7939 6.4153 20.9483 6.50312 21.0994C6.59062 21.2508 6.78965 21.3754 7.02458 21.4268Z" fill="#E3A358"/>
<path d="M12.0537 16.8461C12.2495 16.8889 12.4405 16.8855 12.555 16.8369C12.6694 16.7883 12.6896 16.7024 12.6085 16.6114C12.5271 16.5203 12.3563 16.4378 12.1604 16.3951C11.9646 16.3523 11.7736 16.3557 11.6591 16.4043C11.5447 16.4529 11.5245 16.5387 11.6056 16.6298C11.687 16.7212 11.8579 16.8034 12.0537 16.8461Z" fill="#E3A358"/>
<path d="M3.20989 17.9034C3.36117 17.9363 3.51277 17.9151 3.60828 17.848C3.7038 17.7806 3.72783 17.6776 3.67239 17.5776C3.61662 17.4773 3.48937 17.3954 3.33842 17.3625C3.18714 17.3296 3.03553 17.3505 2.94034 17.4179C2.84483 17.4849 2.82047 17.5883 2.87624 17.6883C2.93137 17.7883 3.05893 17.8705 3.20989 17.9034Z" fill="#E3A358"/>
<path d="M9.29955 15.76C9.49891 15.8898 9.71045 15.9711 9.85468 15.9729C9.9989 15.9748 10.054 15.8969 9.9989 15.7689C9.9441 15.6406 9.78737 15.4818 9.58801 15.352C9.38866 15.2221 9.17712 15.1409 9.03257 15.1391C8.88834 15.1372 8.83353 15.2151 8.88834 15.3431C8.94347 15.4714 9.1002 15.6301 9.29955 15.76Z" fill="#E3A358"/>
<path d="M12.5002 24C5.6073 24 0 18.6169 0 12.0003C0 5.38308 5.6073 0 12.5002 0C19.3927 0 25 5.38308 25 12.0003C25 18.6169 19.3924 24 12.5002 24ZM12.5002 1.31323C6.37075 1.31323 1.38428 6.10062 1.38428 11.9846C1.38428 17.8686 6.37107 22.656 12.5002 22.656C18.6292 22.656 23.616 17.8689 23.616 11.9846C23.616 6.10031 18.6292 1.31323 12.5002 1.31323ZM12.5002 16.4326C9.95404 16.4326 7.88291 14.4443 7.88291 12.0003C7.88291 9.54769 9.95404 7.55231 12.5002 7.55231C15.046 7.55231 17.1171 9.54062 17.1171 11.9849C17.1171 14.4372 15.046 16.4326 12.5002 16.4326ZM12.5002 8.88062C10.7172 8.88062 9.26687 10.2732 9.26687 11.9846C9.26687 13.696 10.7175 15.0886 12.5002 15.0886C14.2828 15.0886 15.7335 13.696 15.7335 11.9846C15.7331 10.2732 14.2828 8.88062 12.5002 8.88062Z" fill="#4C2F1B"/>
<path d="M13.1742 5.80427L10.4771 4.0935C10.3646 4.03165 10.3486 3.89319 10.4127 3.78519L10.7178 3.3538C10.7819 3.2458 10.9265 3.23042 11.039 3.29196L13.736 5.00273C13.8485 5.06457 13.8646 5.20334 13.8001 5.31103L13.495 5.74273C13.4312 5.85042 13.2867 5.8658 13.1742 5.80427Z" fill="#DB79AD"/>
<path d="M2.46599 8.51698L3.1724 7.03759C3.22047 6.92959 3.36502 6.88344 3.47752 6.92959L3.97527 7.14528C4.08777 7.19144 4.13585 7.33021 4.08777 7.43821L3.38137 8.91759C3.33297 9.02559 3.18874 9.07175 3.07624 9.02559L2.57849 8.8099C2.466 8.74805 2.40189 8.62498 2.46599 8.51698ZM19.9972 8.39359L18.6485 7.39175C18.5523 7.31482 18.536 7.17605 18.6004 7.08344L18.9376 6.66744C19.0177 6.57513 19.1623 6.55944 19.2587 6.62128L20.6074 7.62313C20.7036 7.70036 20.7199 7.83882 20.6555 7.93144L20.3183 8.34775C20.2382 8.45544 20.0937 8.47051 19.9972 8.39359Z" fill="#F6B173"/>
<path d="M16.6097 6.29758L15.6787 4.27851C15.6306 4.17051 15.6787 4.03174 15.7912 3.98558L16.2886 3.76989C16.4011 3.72374 16.5456 3.76989 16.5937 3.87789L17.5248 5.89697C17.5729 6.00497 17.5248 6.14343 17.4123 6.18989L16.9145 6.40558C16.8027 6.45174 16.6742 6.40528 16.6097 6.29758ZM6.27076 10.0582L5.33968 8.03912C5.2916 7.93112 5.33968 7.79266 5.45218 7.7462L5.94993 7.53051C6.06243 7.48435 6.20666 7.53051 6.25505 7.63851L7.18613 9.65758C7.23421 9.76558 7.18613 9.90435 7.07363 9.95051L6.57588 10.1662C6.44768 10.2277 6.31915 10.1662 6.27076 10.0582Z" fill="#F7E774"/>
<path d="M6.70439 5.88122L7.66784 3.87752C7.71592 3.76952 7.86047 3.72337 7.97297 3.76952L8.47072 3.98522C8.58322 4.03137 8.63129 4.17014 8.58322 4.27814L7.61977 6.28183C7.57169 6.38983 7.42714 6.43599 7.31464 6.38983L6.81689 6.17414C6.70439 6.12799 6.65632 6.0046 6.70439 5.88122ZM21.2013 10.9058L21.5225 8.71722C21.5385 8.59383 21.651 8.51691 21.7795 8.53229L22.3253 8.60922C22.4539 8.6246 22.534 8.7326 22.518 8.85568L22.1968 11.0443C22.1808 11.1674 22.0683 11.2446 21.9401 11.2292L21.3943 11.1523C21.2654 11.1369 21.1853 11.0292 21.2013 10.9058Z" fill="#EC6A69"/>
<path d="M5.51019 18.4484C5.62237 18.5037 5.74705 18.5154 5.83743 18.4794C5.92749 18.4434 5.96948 18.365 5.94737 18.2736C5.92525 18.1822 5.84224 18.092 5.73006 18.0367C5.61788 17.9813 5.4932 17.9696 5.40282 18.0056C5.31276 18.0416 5.27077 18.12 5.29289 18.2114C5.315 18.3025 5.39769 18.393 5.51019 18.4484Z" fill="#E3A358"/>
<path d="M17.3152 18.9898C17.3437 19.0618 17.462 19.0948 17.6245 19.076C17.7873 19.0575 17.9703 18.9902 18.1043 18.8997C18.2382 18.8092 18.3033 18.7089 18.2748 18.6369C18.2459 18.5649 18.128 18.532 17.9652 18.5505C17.8023 18.5689 17.6193 18.636 17.4854 18.7268C17.3514 18.8175 17.2863 18.9178 17.3152 18.9898Z" fill="#E3A358"/>
<path d="M10.1082 18.1812C10.2604 18.2892 10.4412 18.3369 10.5822 18.3065C10.7233 18.276 10.8034 18.172 10.7919 18.0335C10.7806 17.8954 10.68 17.7434 10.5278 17.6354C10.3755 17.5274 10.1947 17.4797 10.0537 17.5101C9.9127 17.5406 9.83257 17.6446 9.84411 17.7831C9.855 17.9218 9.95596 18.0735 10.1082 18.1812Z" fill="#E3A358"/>
<path d="M14.6065 20.2492C14.6248 20.3757 14.8033 20.4563 15.0053 20.4295C15.2075 20.4027 15.3562 20.2784 15.3379 20.152C15.3197 20.0255 15.1412 19.9446 14.9392 19.9717C14.737 19.9984 14.5883 20.1227 14.6065 20.2492Z" fill="#E3A358"/>
</g>
<defs>
<clipPath id="clip0_7_2206">
<rect width="25" height="24" fill="white"/>
</clipPath>
</defs>
</svg>
