<svg width="25" height="25" viewBox="0 0 25 25" fill="none" xmlns="http://www.w3.org/2000/svg">
<g filter="url(#filter0_d_74_1256)">
<path d="M9.03308 2.48866L14.3873 8.41358L21.6767 5.15235L17.6963 12.0754L23.0505 18.0003L15.2363 16.354L11.2559 23.2771L10.4069 15.3366L2.59266 13.6904L9.88212 10.4291L9.03308 2.48866Z" fill="#CD69CE"/>
<path d="M9.22163 2.91011L14.2814 8.50924L14.3509 8.58615L14.4455 8.54381L21.3342 5.46191L17.5726 12.0043L17.521 12.0941L17.5905 12.171L22.6502 17.7702L15.2657 16.2144L15.1643 16.1931L15.1126 16.2829L11.3511 22.8253L10.5487 15.3214L10.5377 15.2184L10.4363 15.197L3.05175 13.6413L9.94039 10.5594L10.035 10.517L10.024 10.414L9.22163 2.91011Z" stroke="black" stroke-width="0.285349"/>
</g>
<defs>
<filter id="filter0_d_74_1256" x="0.880678" y="0.776552" width="23.882" height="24.2126" filterUnits="userSpaceOnUse" color-interpolation-filters="sRGB">
<feFlood flood-opacity="0" result="BackgroundImageFix"/>
<feColorMatrix in="SourceAlpha" type="matrix" values="0 0 0 0 0 0 0 0 0 0 0 0 0 0 0 0 0 0 127 0" result="hardAlpha"/>
<feOffset/>
<feGaussianBlur stdDeviation="0.856048"/>
<feComposite in2="hardAlpha" operator="out"/>
<feColorMatrix type="matrix" values="0 0 0 0 0 0 0 0 0 0 0 0 0 0 0 0 0 0 0.25 0"/>
<feBlend mode="normal" in2="BackgroundImageFix" result="effect1_dropShadow_74_1256"/>
<feBlend mode="normal" in="SourceGraphic" in2="effect1_dropShadow_74_1256" result="shape"/>
</filter>
</defs>
</svg>
