<svg width="96" height="96" viewBox="0 0 96 96" fill="none" xmlns="http://www.w3.org/2000/svg">
<path d="M70.45 50.9543C70.6451 59.3722 66.4117 71.9565 55.6082 77.089C52.893 78.3789 51.3841 77.1272 48.1094 77.2864C45.1834 77.4286 44.2795 78.4688 41.4928 77.463C29.9206 73.2862 24.7822 61.0518 24.5732 52.0348C24.3 40.2463 33.8657 34.0188 47.2849 41.7115C59.4611 33.8609 70.1768 39.1658 70.45 50.9543Z" fill="#FF542F"/>
<path fill-rule="evenodd" clip-rule="evenodd" d="M47.2281 39.4005C40.5898 35.8819 34.5015 35.423 29.8949 37.7851C24.9989 40.2956 22.4407 45.6465 22.5898 52.0816C22.8106 61.6094 28.2204 74.7969 40.8241 79.346C42.5656 79.9745 43.8299 79.9795 45.0633 79.7799C45.4869 79.7114 45.8328 79.6392 46.158 79.5712C46.7815 79.441 47.3295 79.3266 48.205 79.2841C49.2454 79.2335 49.9946 79.3417 50.8463 79.4647C51.1574 79.5096 51.4822 79.5565 51.8399 79.5984C53.1913 79.7565 54.6523 79.7541 56.454 78.8981C68.2126 73.312 72.6396 59.8016 72.4335 50.9076C72.2823 44.3825 69.1903 39.3102 64.1086 37.1282C59.3539 35.0867 53.3374 35.7808 47.2281 39.4005ZM55.6083 77.089C66.4118 71.9566 70.6452 59.3722 70.4501 50.9543C70.1768 39.1658 59.4612 33.8609 47.2849 41.7115C33.8657 34.0188 24.3 40.2464 24.5733 52.0348C24.7822 61.0518 29.9206 73.2862 41.4928 77.463C43.3021 78.116 44.3178 77.9066 45.6084 77.6404C46.3057 77.4966 47.0832 77.3363 48.1094 77.2864C49.3547 77.2259 50.3446 77.3694 51.2426 77.4995C52.7061 77.7116 53.9256 77.8884 55.6083 77.089Z" fill="#734125"/>
<path fill-rule="evenodd" clip-rule="evenodd" d="M51.1958 71.7512C61.9993 66.6188 65.3502 54.0345 65.1551 45.6166C65.098 43.1514 64.5842 40.9698 63.6959 39.1327C67.7234 41.036 70.3174 45.231 70.45 50.9543C70.6451 59.3722 66.4117 71.9565 55.6083 77.0889C53.9255 77.8883 52.7061 77.7116 51.2426 77.4995C50.3446 77.3693 49.3547 77.2258 48.1094 77.2863C47.0832 77.3362 46.3057 77.4966 45.6084 77.6404C44.3177 77.9066 43.3021 78.116 41.4928 77.463C37.2602 75.9353 33.8883 73.3297 31.3035 70.1978C32.5302 70.952 33.8654 71.6019 35.3154 72.1253C37.1816 72.7988 38.5992 72.5548 40.2108 72.2774C41.0058 72.1406 41.848 71.9956 42.8145 71.9487C44.028 71.8897 45.1202 72.0244 46.1525 72.1518C47.906 72.3681 49.4868 72.5632 51.1958 71.7512Z" fill="#ED4A27"/>
<path d="M63.8658 48.7414C63.7311 49.7146 62.8393 50.3935 61.8739 50.2577C60.9084 50.1219 60.235 49.2229 60.3697 48.2497C60.5043 47.2765 61.3962 46.5976 62.3616 46.7334C63.327 46.8691 64.0004 47.7681 63.8658 48.7414Z" fill="#C53622"/>
<path d="M68.6427 53.8925C68.5081 54.8657 67.6163 55.5446 66.6508 55.4088C65.6854 55.2731 65.012 54.3741 65.1466 53.4008C65.2813 52.4276 66.1731 51.7487 67.1385 51.8845C68.104 52.0203 68.7774 52.9193 68.6427 53.8925Z" fill="#C53622"/>
<path d="M68.5407 47.1532C68.4397 47.8831 67.7709 48.3923 67.0468 48.2904C66.3228 48.1886 65.8177 47.5144 65.9187 46.7845C66.0197 46.0545 66.6885 45.5454 67.4126 45.6472C68.1367 45.749 68.6417 46.4233 68.5407 47.1532Z" fill="#C53622"/>
<path d="M66.907 60.0808C66.7723 61.0541 65.8805 61.7329 64.9151 61.5972C63.9497 61.4614 63.2763 60.5624 63.4109 59.5892C63.5456 58.616 64.4374 57.9371 65.4028 58.0729C66.3683 58.2086 67.0417 59.1076 66.907 60.0808Z" fill="#C53622"/>
<path d="M62.13 54.9297C61.9954 55.9029 61.1036 56.5818 60.1381 56.4461C59.1727 56.3103 58.4993 55.4113 58.634 54.4381C58.7686 53.4649 59.6604 52.786 60.6259 52.9217C61.5913 53.0575 62.2647 53.9565 62.13 54.9297Z" fill="#C53622"/>
<path d="M63.9942 66.8262C63.8595 67.7994 62.9677 68.4783 62.0023 68.3425C61.0369 68.2068 60.3634 67.3078 60.4981 66.3346C60.6328 65.3613 61.5246 64.6824 62.49 64.8182C63.4554 64.954 64.1289 65.853 63.9942 66.8262Z" fill="#C53622"/>
<path d="M60.4478 61.4326C60.3131 62.4059 59.4213 63.0848 58.4559 62.949C57.4905 62.8132 56.817 61.9142 56.9517 60.941C57.0864 59.9678 57.9782 59.2889 58.9436 59.4247C59.909 59.5604 60.5825 60.4594 60.4478 61.4326Z" fill="#C53622"/>
<path d="M60.4952 70.7753C60.3942 71.5052 59.7253 72.0144 59.0013 71.9126C58.2772 71.8108 57.7721 71.1365 57.8731 70.4066C57.9741 69.6767 58.643 69.1675 59.3671 69.2693C60.0911 69.3712 60.5962 70.0454 60.4952 70.7753Z" fill="#C53622"/>
<path d="M57.186 23.4991C57.186 23.4991 59.1467 31.6492 57.0821 36.0865C54.5936 41.4346 47.0787 41.7723 47.0787 41.7723C47.0787 41.7723 44.8034 35.5204 47.8102 30.0842C50.1232 25.9026 57.186 23.4991 57.186 23.4991Z" fill="#7CD623"/>
<path fill-rule="evenodd" clip-rule="evenodd" d="M59.1141 23.0277L57.186 23.4991L56.5514 21.6041C57.0786 21.4247 57.6562 21.4767 58.1435 21.7474C58.6308 22.0181 58.9829 22.4826 59.1141 23.0277ZM55.3213 24.2536C56.4252 23.758 57.186 23.4991 57.186 23.4991C57.186 23.4991 57.3733 24.2776 57.5712 25.4845C58.0135 28.1824 58.5086 33.0207 57.0821 36.0865C54.5936 41.4347 47.0787 41.7723 47.0787 41.7723C47.0787 41.7723 44.8034 35.5204 47.8102 30.0842C49.3641 27.275 53.0616 25.2683 55.3213 24.2536ZM47.0787 41.7723C45.2162 42.4612 45.2159 42.4605 45.2157 42.4598L45.2138 42.4548L45.2107 42.4461L45.2021 42.4218C45.1953 42.4025 45.1866 42.3772 45.176 42.346C45.1549 42.2837 45.1267 42.1978 45.0933 42.0902C45.0266 41.8751 44.9388 41.5721 44.8454 41.1954C44.6592 40.4441 44.4477 39.3868 44.3404 38.1397C44.1277 35.6684 44.3124 32.3012 46.0774 29.1103C47.5231 26.4966 50.2995 24.6247 52.4195 23.4655C53.5229 22.8622 54.5439 22.4015 55.2891 22.0913C55.6629 21.9357 55.9704 21.8167 56.1881 21.7353C56.2971 21.6946 56.3837 21.6632 56.4452 21.6413C56.4759 21.6304 56.5004 21.6218 56.5182 21.6156L56.5399 21.6081L56.5495 21.6048L56.5514 21.6041C56.5519 21.604 56.5514 21.6041 57.186 23.4991C59.1141 23.0277 59.114 23.0273 59.1141 23.0277L59.1151 23.032L59.1168 23.0392L59.1223 23.0626L59.1411 23.1437C59.1568 23.2126 59.1788 23.311 59.2055 23.4359C59.259 23.6855 59.3316 24.0417 59.4115 24.4812C59.5709 25.3577 59.7614 26.5774 59.8842 27.949C60.1198 30.5797 60.1525 34.1974 58.8783 36.9359C57.3024 40.3228 54.1999 41.9985 51.7877 42.8279C50.5554 43.2516 49.4197 43.4847 48.5933 43.6128C48.1779 43.6772 47.835 43.7159 47.5898 43.7388C47.4671 43.7503 47.3685 43.7579 47.2971 43.7627C47.2614 43.7651 47.2324 43.7669 47.2106 43.7681L47.1833 43.7696L47.1738 43.77L47.1701 43.7702L47.1685 43.7703C47.1678 43.7703 47.1671 43.7703 47.0787 41.7723ZM45.2162 42.4612L47.0787 41.7723L47.1671 43.7703C46.3032 43.8092 45.514 43.2795 45.2162 42.4612Z" fill="#156319"/>
<path d="M55.753 36.1168C57.606 32.7667 56.5156 25.9532 56.5156 25.9532C51.0077 31.7216 49.6212 38.1307 49.3066 40.4451C49.3066 40.4451 53.9 39.4669 55.753 36.1168Z" fill="#6FC21C"/>
<path d="M36.7261 32.9156C38.6334 33.375 44.9569 38.799 46.7296 42.1763C46.8775 42.458 47.6404 42.017 47.5149 41.7703C46.504 38.5534 43.2795 30.9604 40.6865 28.672C37.271 28.5995 36.6188 32.192 36.7261 32.9156Z" fill="#943D31"/>
<path fill-rule="evenodd" clip-rule="evenodd" d="M36.265 34.8608C35.4777 34.6712 34.8837 34.0185 34.7639 33.2115C34.684 32.6727 34.7625 32.0312 34.8854 31.4904C35.0218 30.8902 35.2671 30.1743 35.679 29.4746C36.5414 28.0094 38.1627 26.618 40.7282 26.6724C41.1945 26.6823 41.6424 26.8575 41.9933 27.1672C42.8554 27.928 43.6637 29.0223 44.38 30.1596C45.1139 31.3248 45.827 32.6582 46.4756 33.9932C47.7455 36.607 48.8274 39.3499 49.3768 41.0737C49.7844 42.1269 49.2013 42.9893 49.0222 43.2177C48.7548 43.5588 48.4308 43.7871 48.1711 43.9292C47.9164 44.0686 47.5255 44.2335 47.0536 44.2626C46.6009 44.2906 45.5382 44.1829 44.9759 43.1117C44.2637 41.7547 42.466 39.7506 40.4574 37.944C39.4825 37.0672 38.5196 36.2924 37.7083 35.721C37.3019 35.4348 36.9536 35.2138 36.6751 35.0595C36.4234 34.92 36.2948 34.8723 36.2683 34.8625C36.2627 34.8604 36.2616 34.86 36.265 34.8608ZM47.5148 41.7703C47.5136 41.7666 47.5125 41.7629 47.5113 41.7593C47.3769 41.3324 47.2038 40.8291 46.9986 40.2718C46.7381 39.5641 46.4257 38.7693 46.0751 37.9334C44.6173 34.4577 42.4978 30.2705 40.6864 28.672C37.2709 28.5995 36.6187 32.192 36.7261 32.9156C38.1011 33.2468 41.7714 36.1583 44.3771 39.023C44.9285 39.6292 45.4322 40.2334 45.8565 40.8105C46.1721 41.24 46.4438 41.6545 46.6583 42.0438C46.6828 42.0883 46.7065 42.1324 46.7295 42.1763C46.8774 42.458 47.6403 42.017 47.5148 41.7703ZM45.6061 42.3194C45.6393 42.4369 45.6861 42.5584 45.7494 42.683C45.699 42.5838 45.6568 42.4805 45.6234 42.3743C45.6177 42.3561 45.612 42.3378 45.6061 42.3194Z" fill="#633526"/>
<path d="M41.3467 28.7387C41.9699 29.4089 41.5357 30.8398 40.377 31.9347C39.2184 33.0297 37.7739 33.374 37.1507 32.7039C36.5275 32.0337 36.9616 30.6028 38.1203 29.5079C39.279 28.4129 40.7235 28.0686 41.3467 28.7387Z" fill="#C26649"/>
<path d="M37.8733 41.7765C40.497 43.0782 41.0538 47.3497 39.1168 51.3171C37.1798 55.2846 33.4826 57.4455 30.8589 56.1438C28.2351 54.842 27.6784 50.5705 29.6153 46.6031C31.5523 42.6357 35.2495 40.4747 37.8733 41.7765Z" fill="#FF896F"/>
<path fill-rule="evenodd" clip-rule="evenodd" d="M34.8356 44.9609C35.6771 45.6685 35.7902 46.9296 35.0883 47.7779C34.6313 48.3303 34.3322 48.9132 34.1657 49.5372C33.881 50.6039 32.7925 51.2359 31.7344 50.949C30.6763 50.662 30.0493 49.5647 30.334 48.4981C30.6568 47.2885 31.2344 46.1909 32.0413 45.2157C32.7431 44.3675 33.9942 44.2534 34.8356 44.9609Z" fill="white"/>
</svg>
