<svg width="96" height="96" viewBox="0 0 96 96" fill="none" xmlns="http://www.w3.org/2000/svg">
<path d="M69.4392 55.5C69.4392 67.9264 59.6684 78 47.6155 78C35.5626 78 25.7917 67.9264 25.7917 55.5C25.7917 43.0736 35.5626 18 47.6155 18C59.6684 18 69.4392 43.0736 69.4392 55.5Z" fill="#F2EB76"/>
<path fill-rule="evenodd" clip-rule="evenodd" d="M71.4231 55.5C71.4231 68.9884 60.8059 80 47.6154 80C34.425 80 23.8077 68.9884 23.8077 55.5C23.8077 48.8947 26.3635 39.2081 30.4156 31.1829C32.4499 27.1539 34.9198 23.4244 37.7416 20.6741C40.5524 17.9345 43.8915 16 47.6154 16C51.3393 16 54.6785 17.9345 57.4893 20.6741C60.311 23.4244 62.7809 27.1539 64.8152 31.1829C68.8673 39.2081 71.4231 48.8947 71.4231 55.5ZM47.6154 78C59.6683 78 69.4391 67.9264 69.4391 55.5C69.4391 43.0736 59.6683 18 47.6154 18C35.5625 18 25.7917 43.0736 25.7917 55.5C25.7917 67.9264 35.5625 78 47.6154 78Z" fill="#538642"/>
<path fill-rule="evenodd" clip-rule="evenodd" d="M47.6155 78C59.6684 78 69.4392 67.9264 69.4392 55.5C69.4392 43.0736 59.6684 18 47.6155 18C35.5626 18 25.7917 43.0736 25.7917 55.5C25.7917 67.9264 35.5626 78 47.6155 78ZM47.6155 76C58.5727 76 67.4552 66.7659 67.4552 55.375C67.4552 43.9841 58.5727 21 47.6155 21C36.6583 21 27.7757 43.9841 27.7757 55.375C27.7757 66.7659 36.6583 76 47.6155 76Z" fill="#D9DE2E"/>
<path d="M62.954 67.3309C62.1871 68.1767 60.8853 68.2356 60.0463 67.4625C59.2073 66.6894 59.1489 65.3771 59.9158 64.5314C60.6826 63.6856 61.9844 63.6267 62.8234 64.3998C63.6624 65.1728 63.7208 66.4852 62.954 67.3309Z" fill="#C4CB29"/>
<path d="M55.0181 74.3309C54.2512 75.1767 52.9494 75.2356 52.1104 74.4625C51.2714 73.6894 51.213 72.3771 51.9799 71.5314C52.7467 70.6856 54.0485 70.6267 54.8875 71.3998C55.7265 72.1728 55.7849 73.4852 55.0181 74.3309Z" fill="#C4CB29"/>
<path d="M32.2024 63.3309C31.4355 64.1767 30.1337 64.2356 29.2947 63.4625C28.4558 62.6894 28.3973 61.3771 29.1642 60.5314C29.9311 59.6856 31.2329 59.6267 32.0718 60.3998C32.9108 61.1728 32.9693 62.4852 32.2024 63.3309Z" fill="#C4CB29"/>
<path d="M59.6479 72.0374C59.1101 72.6305 58.1971 72.6719 57.6087 72.1297C57.0203 71.5875 56.9793 70.6671 57.5171 70.074C58.055 69.4808 58.968 69.4395 59.5564 69.9817C60.1448 70.5239 60.1857 71.4442 59.6479 72.0374Z" fill="#C4CB29"/>
<path d="M49.728 76.0374C49.1902 76.6305 48.2772 76.6719 47.6888 76.1297C47.1004 75.5875 47.0594 74.6671 47.5972 74.074C48.135 73.4808 49.048 73.4395 49.6364 73.9817C50.2248 74.5239 50.2658 75.4442 49.728 76.0374Z" fill="#C4CB29"/>
<path d="M33.8562 67.0374C33.3183 67.6305 32.4053 67.6719 31.8169 67.1297C31.2285 66.5875 31.1876 65.6671 31.7254 65.074C32.2632 64.4808 33.1762 64.4395 33.7646 64.9817C34.353 65.5239 34.394 66.4442 33.8562 67.0374Z" fill="#C4CB29"/>
<path d="M31.8723 57.0374C31.3344 57.6305 30.4215 57.6719 29.8331 57.1297C29.2447 56.5875 29.2037 55.6671 29.7415 55.074C30.2793 54.4808 31.1923 54.4395 31.7807 54.9817C32.3691 55.5239 32.4101 56.4442 31.8723 57.0374Z" fill="#C4CB29"/>
<path d="M66.5918 63.0374C66.0539 63.6305 65.1409 63.6719 64.5525 63.1297C63.9641 62.5875 63.9231 61.6671 64.461 61.074C64.9988 60.4808 65.9118 60.4395 66.5002 60.9817C67.0886 61.5239 67.1296 62.4442 66.5918 63.0374Z" fill="#C4CB29"/>
<path d="M61.5033 56C61.5033 63.732 55.2855 70 47.6155 70C39.9455 70 33.7277 63.732 33.7277 56C33.7277 48.268 39.9455 42 47.6155 42C55.2855 42 61.5033 48.268 61.5033 56Z" fill="#BAC73A"/>
<path d="M56.5433 56C56.5433 60.9706 52.5461 65 47.6154 65C42.6846 65 38.6875 60.9706 38.6875 56C38.6875 51.0294 42.6846 47 47.6154 47C52.5461 47 56.5433 51.0294 56.5433 56Z" fill="#B6472C"/>
<path fill-rule="evenodd" clip-rule="evenodd" d="M58.5273 56C58.5273 62.0751 53.6419 67 47.6155 67C41.589 67 36.7036 62.0751 36.7036 56C36.7036 49.9249 41.589 45 47.6155 45C53.6419 45 58.5273 49.9249 58.5273 56ZM47.6155 65C52.5462 65 56.5434 60.9706 56.5434 56C56.5434 51.0294 52.5462 47 47.6155 47C42.6847 47 38.6876 51.0294 38.6876 56C38.6876 60.9706 42.6847 65 47.6155 65Z" fill="#662513"/>
<path fill-rule="evenodd" clip-rule="evenodd" d="M46.6234 62C51.5542 62 55.5513 57.9705 55.5513 53C55.5513 52.5572 55.5196 52.1219 55.4583 51.6963C56.1502 52.9748 56.5433 54.4411 56.5433 56C56.5433 60.9705 52.5462 65 47.6154 65C43.1239 65 39.407 61.6564 38.7805 57.3036C40.2946 60.1016 43.2391 62 46.6234 62Z" fill="#A43E25"/>
<path d="M45.6314 53C45.6314 54.1046 44.7431 55 43.6474 55C42.5517 55 41.6635 54.1046 41.6635 53C41.6635 51.8954 42.5517 51 43.6474 51C44.7431 51 45.6314 51.8954 45.6314 53Z" fill="#F5A05F"/>
<path d="M46.6901 24.221C48.2516 25.9178 47.4708 29.2075 44.9461 31.5688C42.4213 33.9301 39.1087 34.4688 37.5471 32.772C35.9855 31.0752 36.7663 27.7855 39.2911 25.4242C41.8159 23.0629 45.1285 22.5242 46.6901 24.221Z" fill="#FFFAA3"/>
<path fill-rule="evenodd" clip-rule="evenodd" d="M42.1064 30.2619C43.0394 29.7575 43.4188 28.5958 42.9524 27.6269C42.4741 26.6331 41.2872 26.2184 40.3014 26.7006C40.0089 26.8437 39.6815 27.0196 39.3947 27.255C39.0271 27.5566 38.7951 27.8958 38.6423 28.2475C38.5959 28.3545 38.5501 28.4826 38.5483 28.4878L38.5482 28.4879C38.5471 28.4909 38.5462 28.4935 38.5453 28.4957C38.5352 28.5114 38.5129 28.5435 38.4717 28.5942C37.7771 29.4484 37.9009 30.7086 38.7483 31.4088C39.5957 32.1091 40.8458 31.9842 41.5404 31.13C41.7907 30.8222 41.9709 30.5394 42.1064 30.2619ZM38.5523 28.4842C38.5524 28.4842 38.5516 28.4857 38.5497 28.4887C38.5513 28.4857 38.5522 28.4842 38.5523 28.4842Z" fill="white"/>
</svg>
