<svg width="96" height="97" viewBox="0 0 96 97" fill="none" xmlns="http://www.w3.org/2000/svg">
<g clip-path="url(#clip0_112_1169)">
<path d="M36.8268 18.7281C46.6902 18.5408 54.9999 34.9198 55.2808 49.7099C55.5616 64.5 47.7502 74.3709 37.8868 74.5582C28.0233 74.7455 19.8429 65.1781 19.5621 50.388C19.2813 35.598 27.5857 18.9035 36.8268 18.7281Z" fill="#EDE6CF"/>
<path fill-rule="evenodd" clip-rule="evenodd" d="M51.3885 27.6185C54.9022 33.8363 57.1339 41.9551 57.2804 49.6719C57.5716 65.0098 49.3769 76.3404 37.9247 76.5578C26.4726 76.7753 17.8537 65.7639 17.5625 50.426C17.4155 42.6816 19.5063 34.4768 22.8557 28.1426C24.5323 24.972 26.5659 22.1907 28.8715 20.1662C31.1747 18.1438 33.8623 16.784 36.7888 16.7284C42.8767 16.6128 47.9521 21.5375 51.3885 27.6185ZM55.2808 49.7099C55 34.9198 46.6902 18.5408 36.8268 18.728C27.5857 18.9035 19.2813 35.5979 19.5621 50.388C19.8429 65.1781 28.0234 74.7455 37.8868 74.5582C47.7502 74.3709 55.5616 64.4999 55.2808 49.7099Z" fill="#968960"/>
<path fill-rule="evenodd" clip-rule="evenodd" d="M42.8763 20.7019C46.6536 26.5405 49.1295 34.7818 49.2773 42.5659C49.5474 56.7938 41.9784 66.2907 32.4225 66.4721C28.4415 66.5477 24.7438 64.9946 21.7646 62.128C24.8828 70.0254 30.9711 74.6895 37.8868 74.5582C47.7502 74.371 55.5615 64.5 55.2807 49.7099C55.06 38.0816 49.8762 25.4712 42.8763 20.7019Z" fill="#DBD2B2"/>
<path d="M33.0019 27.8803C37.06 28.7104 32.2669 34.2585 34.125 40.1426C37.125 49.6426 31.879 54.0372 27.8209 53.207C23.7628 52.3769 21.6329 46.0343 23.0636 39.0405C24.4943 32.0467 28.9438 27.0501 33.0019 27.8803Z" fill="#FEF8E3"/>
<path fill-rule="evenodd" clip-rule="evenodd" d="M28.0102 39.9856C27.8753 41.5326 27.875 42.9314 27.875 43.3926C27.875 44.221 27.2034 44.8926 26.375 44.8926C25.5466 44.8926 24.875 44.221 24.875 43.3926L24.875 43.3897C24.875 42.9101 24.875 41.4054 25.0216 39.725C25.1624 38.1099 25.4564 36.07 26.1627 34.669C26.5356 33.9292 27.4376 33.6319 28.1774 34.0048C28.9171 34.3777 29.2145 35.2797 28.8416 36.0194C28.4207 36.8543 28.1511 38.3699 28.0102 39.9856Z" fill="white"/>
<path d="M50.6171 40.7101C51.4101 41.3429 51.609 42.4122 51.0614 43.0984C50.5138 43.7847 49.427 43.8281 48.634 43.1953C47.841 42.5625 47.642 41.4932 48.1896 40.8069C48.7372 40.1206 49.824 40.0773 50.6171 40.7101Z" fill="#CFC59E"/>
<path d="M49.7406 36.6012C50.1919 36.9613 50.3051 37.5699 49.9935 37.9604C49.6819 38.3509 49.0634 38.3756 48.6121 38.0155C48.1608 37.6554 48.0476 37.0469 48.3592 36.6563C48.6709 36.2658 49.2893 36.2411 49.7406 36.6012Z" fill="#CFC59E"/>
<path d="M46.5914 38.5606C47.0427 38.9207 47.156 39.5292 46.8443 39.9197C46.5327 40.3103 45.9142 40.3349 45.4629 39.9748C45.0117 39.6147 44.8984 39.0062 45.2101 38.6157C45.5217 38.2251 46.1402 38.2005 46.5914 38.5606Z" fill="#CFC59E"/>
<path d="M44.961 31.14C45.1845 31.3183 45.2406 31.6197 45.0862 31.8131C44.9319 32.0065 44.6257 32.0187 44.4022 31.8403C44.1787 31.662 44.1226 31.3607 44.277 31.1673C44.4313 30.9739 44.7375 30.9617 44.961 31.14Z" fill="#CFC59E"/>
<path d="M45.6559 26.3077C45.8794 26.486 45.9354 26.7874 45.7811 26.9808C45.6268 27.1742 45.3205 27.1864 45.097 27.0081C44.8735 26.8297 44.8175 26.5284 44.9718 26.335C45.1261 26.1416 45.4324 26.1294 45.6559 26.3077Z" fill="#CFC59E"/>
<path d="M51.7862 39.0272C52.0097 39.2055 52.0658 39.5069 51.9115 39.7003C51.7572 39.8937 51.4509 39.9059 51.2274 39.7276C51.0039 39.5492 50.9479 39.2479 51.1022 39.0545C51.2565 38.8611 51.5628 38.8489 51.7862 39.0272Z" fill="#CFC59E"/>
<path d="M52.4432 43.0673C52.6667 43.2456 52.7227 43.547 52.5684 43.7404C52.4141 43.9338 52.1078 43.946 51.8843 43.7677C51.6608 43.5893 51.6048 43.288 51.7591 43.0946C51.9134 42.9012 52.2197 42.889 52.4432 43.0673Z" fill="#CFC59E"/>
<path d="M46.2822 42.9774C46.6198 43.2468 46.7045 43.7021 46.4714 43.9943C46.2382 44.2864 45.7755 44.3049 45.4379 44.0355C45.1002 43.7661 45.0155 43.3108 45.2487 43.0186C45.4818 42.7265 45.9445 42.708 46.2822 42.9774Z" fill="#CFC59E"/>
<path d="M53.3637 49.2534C53.7013 49.5228 53.786 49.9781 53.5529 50.2703C53.3197 50.5624 52.857 50.5809 52.5194 50.3115C52.1818 50.0421 52.0971 49.5868 52.3302 49.2946C52.5634 49.0025 53.0261 48.984 53.3637 49.2534Z" fill="#CFC59E"/>
<path d="M49.9822 48.3364C50.3198 48.6058 50.4045 49.061 50.1714 49.3532C49.9382 49.6454 49.4755 49.6638 49.1379 49.3944C48.8003 49.125 48.7156 48.6698 48.9487 48.3776C49.1818 48.0854 49.6445 48.0669 49.9822 48.3364Z" fill="#CFC59E"/>
<path d="M49.3631 45.4126C49.8144 45.7727 49.9276 46.3813 49.616 46.7718C49.3044 47.1623 48.6859 47.187 48.2346 46.8269C47.7834 46.4668 47.6701 45.8583 47.9818 45.4677C48.2934 45.0772 48.9119 45.0525 49.3631 45.4126Z" fill="#CFC59E"/>
<path d="M49.1023 32.9104C49.5536 33.2705 49.6668 33.8791 49.3552 34.2696C49.0436 34.6601 48.4251 34.6848 47.9738 34.3247C47.5225 33.9646 47.4093 33.3561 47.7209 32.9655C48.0326 32.575 48.651 32.5503 49.1023 32.9104Z" fill="#CFC59E"/>
<path d="M46.2602 33.9632C46.8469 34.4314 46.9941 35.2226 46.589 35.7303C46.1838 36.238 45.3798 36.2701 44.793 35.8019C44.2063 35.3338 44.0591 34.5426 44.4643 34.0349C44.8694 33.5271 45.6735 33.4951 46.2602 33.9632Z" fill="#CFC59E"/>
<path d="M47.2638 28.904C47.8505 29.3722 47.9977 30.1633 47.5926 30.6711C47.1874 31.1788 46.3834 31.2109 45.7966 30.7427C45.2099 30.2745 45.0627 29.4834 45.4679 28.9757C45.873 28.4679 46.6771 28.4359 47.2638 28.904Z" fill="#CFC59E"/>
<path d="M52.5659 45.4731C53.1526 45.9412 53.2998 46.7324 52.8947 47.2401C52.4895 47.7479 51.6854 47.7799 51.0987 47.3118C50.512 46.8436 50.3648 46.0524 50.77 45.5447C51.1751 45.037 51.9792 45.0049 52.5659 45.4731Z" fill="#CFC59E"/>
<path d="M52.9435 52.5516C53.5302 53.0198 53.6774 53.8109 53.2722 54.3187C52.8671 54.8264 52.063 54.8585 51.4763 54.3903C50.8896 53.9221 50.7424 53.131 51.1475 52.6233C51.5527 52.1155 52.3568 52.0835 52.9435 52.5516Z" fill="#CFC59E"/>
<path d="M65.375 84.5176C80.25 79.6426 87.3125 63.3926 85.6218 52.6135L35 70.5176C34.5 72.3676 35.1052 76.8706 36.5625 78.9551C41.5 86.0176 53.2172 88.5021 65.375 84.5176Z" fill="white"/>
<path fill-rule="evenodd" clip-rule="evenodd" d="M86.646 50.8957C87.1567 51.2002 87.5055 51.7162 87.5976 52.3036C88.5246 58.2136 87.0468 65.4244 83.4502 71.7662C79.8367 78.138 73.9896 83.799 65.9979 86.4181C53.4324 90.5362 40.5849 88.1992 34.9233 80.1011C33.9437 78.6998 33.3645 76.7088 33.0747 74.9788C32.7881 73.2675 32.7064 71.3384 33.0693 69.9958C33.2408 69.3611 33.7133 68.8513 34.3331 68.6321L84.9549 50.728C85.5155 50.5297 86.1352 50.5912 86.646 50.8957ZM85.6218 52.6135L35 70.5176C34.5 72.3676 35.1052 76.8706 36.5625 78.9551C41.5 86.0176 53.2172 88.5021 65.375 84.5176C79.3355 79.9423 86.4146 65.3477 85.8345 54.6597C85.7966 53.9596 85.7257 53.2762 85.6218 52.6135Z" fill="#968960"/>
<path fill-rule="evenodd" clip-rule="evenodd" d="M34.8273 72.2025L36.6963 69.9177L35 70.5176C34.8821 70.9539 34.8256 71.5377 34.8273 72.2025ZM85.6217 52.6135C87.2904 63.2522 80.4325 79.2202 65.9523 84.3214C73.0463 76.3984 75.1368 65.1606 73.1875 57.0113L85.6217 52.6135Z" fill="#F4F3DB"/>
<path fill-rule="evenodd" clip-rule="evenodd" d="M71.8984 81.3813C82.282 74.5932 87.0425 61.6716 85.6217 52.6135L79.3668 54.8258C80.998 62.9178 78.8014 73.7154 71.8984 81.3813ZM35.3163 75.9396L41.6858 68.1529L35 70.5176C34.6832 71.6898 34.8101 73.9273 35.3163 75.9396Z" fill="#DEDCB1"/>
<path d="M85.2247 51.505C87.2825 56.3434 77.7383 65.0345 63.9071 70.9172C50.076 76.7998 37.1953 77.6463 35.1375 72.8079C33.0796 67.9695 42.6238 59.2784 56.455 53.3958C70.2862 47.5131 83.1668 46.6666 85.2247 51.505Z" fill="#FDFCE4"/>
<path fill-rule="evenodd" clip-rule="evenodd" d="M81.8709 62.2982C77.8069 65.999 71.7559 69.7523 64.6899 72.7576C57.6239 75.7629 50.7232 77.5182 45.2385 77.8786C42.5059 78.0582 40.0104 77.8997 37.9861 77.2981C35.9778 76.7012 34.138 75.568 33.297 73.5907C32.456 71.6134 32.9159 69.5021 33.879 67.6415C34.8497 65.7661 36.4665 63.8585 38.4913 62.0147C42.5553 58.3139 48.6062 54.5606 55.6722 51.5553C62.7382 48.55 69.639 46.7948 75.1237 46.4343C77.8562 46.2547 80.3518 46.4133 82.376 47.0149C84.3843 47.6117 86.2241 48.7449 87.0651 50.7222C87.9061 52.6996 87.4462 54.8108 86.4831 56.6715C85.5124 58.5469 83.8956 60.4545 81.8709 62.2982ZM63.9071 70.9172C77.7383 65.0345 87.2825 56.3434 85.2247 51.505C83.1668 46.6666 70.2862 47.5131 56.455 53.3958C42.6238 59.2784 33.0796 67.9695 35.1375 72.8079C37.1953 77.6463 50.076 76.7998 63.9071 70.9172Z" fill="#968960"/>
<path d="M68.4328 57.686C70.0197 61.1814 64.3664 67.1658 55.8057 71.0524C47.2449 74.9391 39.0186 75.2562 37.4317 71.7608C35.8447 68.2654 41.4981 62.2811 50.0588 58.3944C58.6195 54.5078 66.8458 54.1906 68.4328 57.686Z" fill="white"/>
<path fill-rule="evenodd" clip-rule="evenodd" d="M71.7235 49.4666C78.0898 48.4911 82.2881 49.8411 83.7422 50.8105C84.2017 51.1169 84.3259 51.7378 84.0195 52.1973C83.7132 52.6568 83.0923 52.781 82.6328 52.4746C81.7119 51.8607 78.0602 50.519 72.0265 51.4435C66.6819 52.2625 64.048 53.1963 62.3622 53.794C62.1229 53.8789 61.9027 53.957 61.6966 54.027C61.1736 54.2046 60.6057 53.9246 60.4281 53.4017C60.2505 52.8787 60.5305 52.3108 61.0534 52.1332C61.2554 52.0646 61.4732 51.9874 61.7115 51.9029C63.425 51.2956 66.1956 50.3136 71.7235 49.4666Z" fill="#E6E4BC"/>
<path d="M61.2256 68.7341C61.121 68.167 60.307 67.8418 59.4074 68.0078C58.5079 68.1737 57.8635 68.768 57.9681 69.3351C58.0727 69.9022 58.8868 70.2274 59.7863 70.0614C60.6859 69.8955 61.3303 69.3012 61.2256 68.7341Z" fill="#E9E8CB"/>
<path d="M67.2521 65.6934C67.1475 65.1263 66.3335 64.8011 65.4339 64.9671C64.5344 65.133 63.89 65.7273 63.9946 66.2944C64.0992 66.8615 64.9133 67.1867 65.8128 67.0207C66.7124 66.8548 67.3568 66.2605 67.2521 65.6934Z" fill="#E9E8CB"/>
<path d="M52.6095 67.2202C52.5049 66.6531 51.6909 66.3279 50.7913 66.4939C49.8918 66.6599 49.2474 67.2541 49.352 67.8212C49.4567 68.3884 50.2707 68.7135 51.1702 68.5476C52.0698 68.3816 52.7142 67.7873 52.6095 67.2202Z" fill="#E9E8CB"/>
<path d="M46.3623 72.3336C46.2577 71.7665 45.4437 71.4413 44.5441 71.6073C43.6446 71.7733 43.0002 72.3675 43.1048 72.9347C43.2094 73.5018 44.0235 73.8269 44.923 73.661C45.8226 73.495 46.467 72.9007 46.3623 72.3336Z" fill="#E9E8CB"/>
<path d="M56.3315 70.5438C56.2591 70.1515 55.696 69.9265 55.0738 70.0413C54.4515 70.1561 54.0058 70.5672 54.0782 70.9595C54.1505 71.3518 54.7136 71.5767 55.3359 71.4619C55.9581 71.3471 56.4038 70.9361 56.3315 70.5438Z" fill="#E9E8CB"/>
<path d="M48.206 69.1559C48.1336 68.7636 47.5705 68.5387 46.9482 68.6535C46.326 68.7683 45.8803 69.1793 45.9526 69.5716C46.025 69.9639 46.5881 70.1889 47.2103 70.0741C47.8326 69.9593 48.2783 69.5482 48.206 69.1559Z" fill="#E9E8CB"/>
<path d="M39.7864 72.4869C39.714 72.0947 39.1509 71.8697 38.5287 71.9845C37.9064 72.0993 37.4607 72.5104 37.533 72.9027C37.6054 73.295 38.1685 73.5199 38.7908 73.4051C39.413 73.2903 39.8587 72.8792 39.7864 72.4869Z" fill="#E9E8CB"/>
<path d="M56.4871 67.5617C56.4147 67.1694 55.8516 66.9444 55.2293 67.0592C54.6071 67.174 54.1614 67.5851 54.2337 67.9774C54.3061 68.3697 54.8692 68.5946 55.4914 68.4798C56.1137 68.365 56.5594 67.9539 56.4871 67.5617Z" fill="#E9E8CB"/>
<path d="M62.6323 65.5559C62.5599 65.1636 61.9968 64.9387 61.3746 65.0535C60.7524 65.1683 60.3066 65.5794 60.379 65.9717C60.4514 66.3639 61.0145 66.5889 61.6367 66.4741C62.2589 66.3593 62.7047 65.9482 62.6323 65.5559Z" fill="#E9E8CB"/>
<path d="M52.5324 70.4293C52.46 70.037 51.8969 69.8121 51.2747 69.9269C50.6525 70.0417 50.2067 70.4528 50.2791 70.8451C50.3515 71.2374 50.9145 71.4623 51.5368 71.3475C52.159 71.2327 52.6048 70.8216 52.5324 70.4293Z" fill="#E9E8CB"/>
<path d="M49.1685 71.7002C49.1179 71.4255 48.7237 71.2681 48.2881 71.3484C47.8525 71.4288 47.5405 71.7166 47.5912 71.9912C47.6418 72.2658 48.036 72.4233 48.4716 72.3429C48.9072 72.2625 49.2192 71.9748 49.1685 71.7002Z" fill="#E9E8CB"/>
<path d="M42.487 71.1169C42.4363 70.8423 42.0421 70.6848 41.6065 70.7652C41.1709 70.8455 40.8589 71.1333 40.9096 71.4079C40.9602 71.6825 41.3544 71.84 41.79 71.7596C42.2256 71.6793 42.5376 71.3915 42.487 71.1169Z" fill="#E9E8CB"/>
<path d="M58.6487 65.5045C58.598 65.2299 58.2038 65.0724 57.7682 65.1528C57.3326 65.2331 57.0206 65.5209 57.0713 65.7955C57.1219 66.0701 57.5161 66.2276 57.9517 66.1472C58.3873 66.0668 58.6993 65.7791 58.6487 65.5045Z" fill="#E9E8CB"/>
<path d="M69.0404 63.3042C68.9897 63.0296 68.5956 62.8721 68.16 62.9525C67.7244 63.0329 67.4123 63.3206 67.463 63.5952C67.5137 63.8699 67.9079 64.0273 68.3434 63.947C68.779 63.8666 69.0911 63.5788 69.0404 63.3042Z" fill="#E9E8CB"/>
<path d="M64.1705 63.6475C64.1335 63.447 63.8457 63.332 63.5275 63.3907C63.2094 63.4494 62.9815 63.6595 63.0185 63.8601C63.0555 64.0606 63.3434 64.1756 63.6615 64.1169C63.9796 64.0582 64.2075 63.8481 64.1705 63.6475Z" fill="#E9E8CB"/>
<path d="M64.6813 59.5247C65.4065 61.2296 62.1198 64.2596 57.3404 66.2924C52.561 68.3252 48.0987 68.5909 47.3735 66.886C46.6484 65.1811 49.935 62.1511 54.7144 60.1183C59.4939 58.0855 63.9562 57.8198 64.6813 59.5247Z" fill="#FFB72B"/>
<path fill-rule="evenodd" clip-rule="evenodd" d="M64.4307 64.2561C62.8936 65.6731 60.6665 67.0511 58.1232 68.1329C55.5798 69.2146 53.0424 69.863 50.9555 69.9873C49.9213 70.0489 48.8838 69.9891 47.9765 69.7099C47.081 69.4344 46.0345 68.8477 45.5331 67.6688C45.0316 66.4898 45.3349 65.3291 45.7576 64.4929C46.1858 63.6457 46.8624 62.8569 47.6241 62.1546C49.1612 60.7376 51.3883 59.3596 53.9317 58.2778C56.475 57.1961 59.0124 56.5477 61.0993 56.4234C62.1335 56.3618 63.171 56.4216 64.0784 56.7008C64.9738 56.9763 66.0203 57.563 66.5218 58.7419C67.0232 59.9209 66.7199 61.0816 66.2973 61.9178C65.869 62.765 65.1924 63.5538 64.4307 64.2561ZM57.3404 66.2924C62.1198 64.2596 65.4065 61.2296 64.6813 59.5247C63.9562 57.8198 59.4939 58.0855 54.7144 60.1183C49.935 62.1511 46.6484 65.1811 47.3735 66.886C48.0987 68.5909 52.561 68.3252 57.3404 66.2924Z" fill="#D89A24"/>
<path fill-rule="evenodd" clip-rule="evenodd" d="M63.5825 60.312C63.5369 60.8624 63.0537 61.2716 62.5033 61.226C61.0422 61.1049 59.1881 61.5989 58.445 61.8705C57.9263 62.0602 57.352 61.7934 57.1624 61.2747C56.9728 60.756 57.2396 60.1817 57.7583 59.9921C58.6111 59.6803 60.7851 59.0767 62.6685 59.2328C63.2189 59.2784 63.6281 59.7616 63.5825 60.312Z" fill="#FFE58A"/>
</g>
<defs>
<clipPath id="clip0_112_1169">
<rect width="96" height="96" fill="white" transform="translate(0 0.392578)"/>
</clipPath>
</defs>
</svg>
