<svg width="96" height="97" viewBox="0 0 96 97" fill="none" xmlns="http://www.w3.org/2000/svg">
<path d="M30 36.9872C30 36.9872 34 42.9872 50 42.9872C66 42.9872 70 36.9872 70 36.9872V78.4408C70 79.4358 69.6282 80.3949 68.8319 80.9916C66.5525 82.6997 60.7668 85.9872 50 85.9872C39.2332 85.9872 33.4475 82.6997 31.1681 80.9916C30.3718 80.3949 30 79.4358 30 78.4408V36.9872Z" fill="#F35B2B"/>
<path fill-rule="evenodd" clip-rule="evenodd" d="M29.4204 35.073C30.2523 34.8211 31.15 35.1355 31.6436 35.8476C31.6439 35.848 31.6442 35.8484 31.6446 35.8489C31.6535 35.8607 31.6786 35.8931 31.7216 35.9434C31.8077 36.0438 31.9663 36.2161 32.2129 36.4381C32.7047 36.8807 33.5556 37.5289 34.8944 38.1983C37.5681 39.5352 42.2512 40.9872 50 40.9872C57.7488 40.9872 62.4319 39.5352 65.1056 38.1983C66.4444 37.5289 67.2953 36.8807 67.7871 36.4381C68.0337 36.2161 68.1923 36.0438 68.2784 35.9434C68.3214 35.8931 68.3465 35.8607 68.3554 35.8489C68.3558 35.8484 68.3561 35.848 68.3564 35.8476C68.85 35.1355 69.7477 34.8211 70.5796 35.073C71.4231 35.3284 72 36.1058 72 36.9872V78.4407C72 79.9078 71.4457 81.5321 70.0312 82.592C67.4126 84.5543 61.2077 87.9872 50 87.9872C38.7923 87.9872 32.5874 84.5543 29.9688 82.592C28.5543 81.5321 28 79.9078 28 78.4407V36.9872C28 36.1058 28.5769 35.3284 29.4204 35.073ZM68 38.8102C69.4641 37.791 70 36.9872 70 36.9872V78.4407C70 79.4358 69.6282 80.3948 68.8319 80.9915C66.5525 82.6996 60.7668 85.9872 50 85.9872C39.2332 85.9872 33.4475 82.6996 31.1681 80.9915C30.3718 80.3948 30 79.4358 30 78.4407V36.9872C30 36.9872 30.5359 37.791 32 38.8102C34.5359 40.5756 39.8564 42.9872 50 42.9872C60.1436 42.9872 65.4641 40.5756 68 38.8102Z" fill="#154D80"/>
<path d="M70 78.4408V36.9872C70 36.9872 68.2084 39.6746 62.227 41.4523L61.9803 84.3304C65.4061 83.2604 67.6151 81.9031 68.8299 80.9931C69.6263 80.3965 70 79.4358 70 78.4408Z" fill="#E6420F"/>
<path d="M30 73.9872C30 73.9872 35.5 79.9872 50 79.9872C64.5 79.9872 70 73.9872 70 73.9872V78.4312C70 79.432 69.6241 80.396 68.8217 80.9941C66.5292 82.7029 60.7278 85.9872 50 85.9872C39.2722 85.9872 33.4708 82.7029 31.1783 80.9941C30.3759 80.396 30 79.432 30 78.4312V73.9872Z" fill="#8AC6F1"/>
<path d="M70 78.4312V73.9872C70 73.9872 67.6576 76.5425 62 78.318V84.318C65.4001 83.251 67.6029 81.9023 68.8194 80.9958C69.6219 80.3979 70 79.432 70 78.4312Z" fill="#579FD2"/>
<path d="M30 39.9872C30 39.9872 34 45.9872 50 45.9872C66 45.9872 70 39.9872 70 39.9872V45.4408C70 46.4358 69.6282 47.3949 68.8319 47.9916C66.5525 49.6997 60.7668 52.9872 50 52.9872C39.2332 52.9872 33.4475 49.6997 31.1681 47.9916C30.3718 47.3949 30 46.4358 30 45.4408V39.9872Z" fill="#8AC6F1"/>
<path fill-rule="evenodd" clip-rule="evenodd" d="M31.3555 44.7861C31.7081 44.3611 32.3386 44.3025 32.7636 44.6551C33.375 45.1625 34.6791 45.8739 36.3614 46.5422C38.0196 47.201 39.947 47.7789 41.7489 48.0618C42.2945 48.1475 42.6673 48.6592 42.5817 49.2048C42.496 49.7504 41.9843 50.1233 41.4387 50.0376C39.4593 49.7268 37.3867 49.1016 35.623 48.4009C33.8835 47.7099 32.3438 46.9057 31.4865 46.1943C31.0614 45.8416 31.0028 45.2112 31.3555 44.7861Z" fill="#D4EDFF"/>
<path d="M70 45.4408V39.9872C70 39.9872 68.1632 42.7424 62 44.5188V51.3243C65.4145 50.2552 67.6173 48.9014 68.8298 47.9931C69.6262 47.3966 70 46.4358 70 45.4408Z" fill="#579FD2"/>
<path fill-rule="evenodd" clip-rule="evenodd" d="M35.625 52.8333C37.2819 52.8333 38.625 54.1765 38.625 55.8333V68.8333C38.625 70.4902 37.2819 71.8333 35.625 71.8333C33.9681 71.8333 32.625 70.4902 32.625 68.8333V55.8333C32.625 54.1765 33.9681 52.8333 35.625 52.8333Z" fill="#FA9474"/>
<path fill-rule="evenodd" clip-rule="evenodd" d="M35 55.4872C35.8284 55.4872 36.5 56.1588 36.5 56.9872V60.9872C36.5 61.8156 35.8284 62.4872 35 62.4872C34.1716 62.4872 33.5 61.8156 33.5 60.9872V56.9872C33.5 56.1588 34.1716 55.4872 35 55.4872Z" fill="#FFC9B8"/>
<path d="M65.4615 74.2949C65.4615 75.3145 64.635 76.141 63.6154 76.141C62.5958 76.141 61.7692 75.3145 61.7692 74.2949C61.7692 73.2753 62.5958 72.4487 63.6154 72.4487C64.635 72.4487 65.4615 73.2753 65.4615 74.2949Z" fill="#B4340C"/>
<path d="M69.0769 71.9103C69.0769 72.675 68.457 73.2949 67.6923 73.2949C66.9276 73.2949 66.3077 72.675 66.3077 71.9103C66.3077 71.1455 66.9276 70.5256 67.6923 70.5256C68.457 70.5256 69.0769 71.1455 69.0769 71.9103Z" fill="#B4340C"/>
<path d="M63.4616 69.2179C63.4616 69.9826 62.8416 70.6025 62.0769 70.6025C61.3122 70.6025 60.6923 69.9826 60.6923 69.2179C60.6923 68.4532 61.3122 67.8333 62.0769 67.8333C62.8416 67.8333 63.4616 68.4532 63.4616 69.2179Z" fill="#B4340C"/>
<path d="M69 62.7564C69 63.5211 68.3801 64.1411 67.6154 64.1411C66.8507 64.1411 66.2308 63.5211 66.2308 62.7564C66.2308 61.9917 66.8507 61.3718 67.6154 61.3718C68.3801 61.3718 69 61.9917 69 62.7564Z" fill="#B4340C"/>
<path d="M65.3077 64.141C65.3077 64.6508 64.8944 65.0641 64.3846 65.0641C63.8748 65.0641 63.4615 64.6508 63.4615 64.141C63.4615 63.6312 63.8748 63.218 64.3846 63.218C64.8944 63.218 65.3077 63.6312 65.3077 64.141Z" fill="#B4340C"/>
<path d="M69 58.6026C69 59.1124 68.5867 59.5257 68.0769 59.5257C67.5671 59.5257 67.1539 59.1124 67.1539 58.6026C67.1539 58.0928 67.5671 57.6795 68.0769 57.6795C68.5867 57.6795 69 58.0928 69 58.6026Z" fill="#B4340C"/>
<path d="M68 67.2949C68 68.0596 67.3801 68.6795 66.6154 68.6795C65.8507 68.6795 65.2308 68.0596 65.2308 67.2949C65.2308 66.5302 65.8507 65.9103 66.6154 65.9103C67.3801 65.9103 68 66.5302 68 67.2949Z" fill="#B4340C"/>
<path d="M66.2308 59.0641C66.2308 59.8288 65.6109 60.4487 64.8462 60.4487C64.0815 60.4487 63.4615 59.8288 63.4615 59.0641C63.4615 58.2994 64.0815 57.6795 64.8462 57.6795C65.6109 57.6795 66.2308 58.2994 66.2308 59.0641Z" fill="#B4340C"/>
<path d="M68.0769 54.9103C68.0769 55.4201 67.6637 55.8333 67.1539 55.8333C66.644 55.8333 66.2308 55.4201 66.2308 54.9103C66.2308 54.4005 66.644 53.9872 67.1539 53.9872C67.6637 53.9872 68.0769 54.4005 68.0769 54.9103Z" fill="#B4340C"/>
<path d="M59.8462 75.141C59.8462 75.6508 59.4329 76.0641 58.9231 76.0641C58.4133 76.0641 58 75.6508 58 75.141C58 74.6312 58.4133 74.218 58.9231 74.218C59.4329 74.218 59.8462 74.6312 59.8462 75.141Z" fill="#B4340C"/>
<path d="M70 36.9872C70 41.4055 61.0457 44.9872 50 44.9872C38.9543 44.9872 30 41.4055 30 36.9872C30 32.5689 38.9543 28.9872 50 28.9872C61.0457 28.9872 70 32.5689 70 36.9872Z" fill="#518ABF"/>
<path fill-rule="evenodd" clip-rule="evenodd" d="M64.8849 44.501C60.9756 46.0647 55.7122 46.9872 50 46.9872C44.2878 46.9872 39.0244 46.0647 35.1151 44.501C33.166 43.7214 31.4545 42.743 30.1975 41.5543C28.9363 40.3615 28 38.8189 28 36.9872C28 35.1555 28.9363 33.6128 30.1975 32.4201C31.4545 31.2314 33.166 30.253 35.1151 29.4734C39.0244 27.9097 44.2878 26.9872 50 26.9872C55.7122 26.9872 60.9756 27.9097 64.8849 29.4734C66.834 30.253 68.5455 31.2314 69.8025 32.4201C71.0637 33.6128 72 35.1555 72 36.9872C72 38.8189 71.0637 40.3615 69.8025 41.5543C68.5455 42.743 66.834 43.7214 64.8849 44.501ZM50 44.9872C61.0457 44.9872 70 41.4055 70 36.9872C70 32.5689 61.0457 28.9872 50 28.9872C38.9543 28.9872 30 32.5689 30 36.9872C30 41.4055 38.9543 44.9872 50 44.9872Z" fill="#164D80"/>
<path d="M32.6757 40.9872C36.1338 38.596 42.5972 36.9872 50 36.9872C57.4028 36.9872 63.8663 38.596 67.3244 40.9872C63.8663 43.3784 57.4028 44.9872 50 44.9872C42.5972 44.9872 36.1338 43.3784 32.6757 40.9872Z" fill="#326798"/>
<path d="M32.6757 40.9872C36.1338 43.3784 42.5972 44.9872 50 44.9872C47.7857 44.0207 42.8463 41.2465 40.8035 37.8812C37.41 38.5854 34.5848 39.667 32.6757 40.9872Z" fill="#2A5A86"/>
<path fill-rule="evenodd" clip-rule="evenodd" d="M38.8744 65.2207C39.8663 66.9403 41.027 67.9342 42.2099 68.4639C43.481 69.0329 44.8626 69.1035 46.2388 68.848C48.6659 68.3974 50.9376 66.9566 52.2033 65.7661C50.1682 63.3242 47.3424 62.0519 44.7747 61.9581C42.1586 61.8626 39.9046 62.973 38.8744 65.2207ZM44.8396 60.1817C48.1567 60.3029 51.7253 62.0451 54.0968 65.3059C54.34 65.6403 54.3205 66.0983 54.0497 66.4108C52.7364 67.9261 49.8027 69.9944 46.5633 70.5958C44.9223 70.9005 43.1588 70.8363 41.4836 70.0863C39.801 69.3331 38.2918 67.9255 37.1041 65.693C36.9839 65.467 36.967 65.2001 37.0576 64.9607C38.3347 61.5886 41.5125 60.0602 44.8396 60.1817Z" fill="#BE3409"/>
<path fill-rule="evenodd" clip-rule="evenodd" d="M58.4359 59.6723C58.6514 59.8905 58.7392 60.2044 58.6681 60.5027C58.4394 61.4635 58.1986 63.2831 58.1386 65.0295C58.1087 65.8995 58.1248 66.7226 58.2024 67.3931C58.2856 68.1124 58.4234 68.4915 58.5177 68.6188C58.7388 68.9172 58.751 69.3217 58.5483 69.6329C58.3456 69.9441 57.9707 70.0965 57.6084 70.015C56.5329 69.773 55.2832 69.2826 54.2832 68.4469C53.2627 67.594 52.4892 66.3637 52.4892 64.7223C52.4892 63.4303 52.8696 62.2653 53.77 61.3292C54.6486 60.4157 55.9417 59.8047 57.6084 59.4297C57.9076 59.3624 58.2204 59.4541 58.4359 59.6723ZM55.0512 62.5615C54.5256 63.1079 54.2668 63.8016 54.2668 64.7223C54.2668 65.7363 54.7226 66.4974 55.4231 67.0828C55.7309 67.34 56.0827 67.5593 56.4543 67.7419C56.448 67.6935 56.4421 67.6453 56.4365 67.5973C56.345 66.8064 56.3304 65.887 56.362 64.9684C56.4024 63.7943 56.52 62.5746 56.6686 61.5593C55.9326 61.8446 55.4113 62.1871 55.0512 62.5615Z" fill="#BE3409"/>
<path d="M44.1105 64.7409C44.1105 65.2318 43.7126 65.6298 43.2217 65.6298C42.7308 65.6298 42.3329 65.2318 42.3329 64.7409C42.3329 64.2501 42.7308 63.8521 43.2217 63.8521C43.7126 63.8521 44.1105 64.2501 44.1105 64.7409Z" fill="#BE3409"/>
<path d="M68.9976 39.0242C66.0263 41.6766 57.3506 38.6615 49.6199 32.2898C41.8892 25.9181 38.031 18.6026 41.0024 15.9501C43.9737 13.2977 52.6494 16.3128 60.3801 22.6846C68.1108 29.0563 71.969 36.3718 68.9976 39.0242Z" fill="#76ADE0"/>
<path fill-rule="evenodd" clip-rule="evenodd" d="M60.437 40.9302C56.6654 39.6195 52.3596 37.1396 48.3479 33.8331C44.3436 30.5328 41.2462 26.9145 39.5289 23.6582C38.6743 22.0379 38.0978 20.3874 38.0113 18.8376C37.9224 17.2445 38.3583 15.6295 39.6705 14.4581C40.9242 13.339 42.5905 12.9764 44.2102 12.9874C45.8511 12.9986 47.6814 13.3902 49.5631 14.0441C53.3347 15.3549 57.6405 17.8347 61.6522 21.1412C65.6564 24.4416 68.7538 28.0599 70.4712 31.3161C71.3258 32.9365 71.9022 34.5869 71.9887 36.1367C72.0776 37.7299 71.6418 39.3448 70.3295 40.5162C69.0759 41.6353 67.4095 41.998 65.7898 41.9869C64.1489 41.9757 62.3186 41.5842 60.437 40.9302ZM49.6199 32.2898C57.3506 38.6615 66.0263 41.6766 68.9976 39.0242C71.969 36.3718 68.1108 29.0563 60.3801 22.6846C52.6495 16.3128 43.9738 13.2977 41.0024 15.9501C38.0311 18.6026 41.8893 25.9181 49.6199 32.2898Z" fill="#2B71AF"/>
<path d="M52.8532 24.1225C51.8466 25.0454 49.0419 24.1225 47.2192 22.4107C45.654 20.7397 44.6474 18.763 45.654 17.8401C46.501 17.0636 48.4896 17.5781 50.7358 19.2898C52.8776 20.9221 53.8599 23.1996 52.8532 24.1225Z" fill="#4578A7"/>
<path fill-rule="evenodd" clip-rule="evenodd" d="M41.7955 17.1055C42.3169 16.9235 42.8872 17.1987 43.0692 17.7201C43.8062 19.8317 46.2999 25.0373 50.2423 28.6912C50.6474 29.0666 50.6714 29.6994 50.296 30.1044C49.9205 30.5095 49.2878 30.5335 48.8828 30.1581C44.6251 26.212 41.9855 20.6842 41.1809 18.3792C40.9989 17.8578 41.274 17.2875 41.7955 17.1055Z" fill="#91C6F9"/>
<path d="M68.4964 34.8588C68.9492 35.5525 68.754 36.4819 68.0603 36.9348C67.3667 37.3877 66.4372 37.1925 65.9843 36.4988C65.5314 35.8051 65.7266 34.8757 66.4203 34.4228C67.114 33.9699 68.0435 34.1651 68.4964 34.8588Z" fill="#4C8ECC"/>
<path d="M66.0364 31.0907C66.3383 31.5532 66.2081 32.1728 65.7457 32.4748C65.2832 32.7767 64.6636 32.6465 64.3617 32.1841C64.0598 31.7216 64.1899 31.102 64.6523 30.8001C65.1148 30.4981 65.7344 30.6283 66.0364 31.0907Z" fill="#4C8ECC"/>
<path d="M63.7976 33.1494C64.2505 33.8431 64.0553 34.7726 63.3616 35.2255C62.6679 35.6784 61.7385 35.4831 61.2856 34.7895C60.8327 34.0958 61.0279 33.1663 61.7216 32.7134C62.4153 32.2606 63.3447 32.4558 63.7976 33.1494Z" fill="#4C8ECC"/>
<path d="M63.0123 28.288C63.3142 28.7505 63.184 29.3701 62.7216 29.672C62.2591 29.9739 61.6395 29.8438 61.3376 29.3814C61.0356 28.9189 61.1658 28.2993 61.6282 27.9973C62.0907 27.6954 62.7103 27.8255 63.0123 28.288Z" fill="#4C8ECC"/>
</svg>
