<svg width="96" height="96" viewBox="0 0 96 96" fill="none" xmlns="http://www.w3.org/2000/svg">
<path d="M77.4164 56.365C77.4164 56.365 72.5589 63.299 67.8286 64.6672C62.1273 66.3162 56.8678 60.7661 56.8678 60.7661C56.8678 60.7661 60.0803 54.8544 66.1934 53.5451C70.8958 52.538 77.4164 56.365 77.4164 56.365Z" fill="#64AC1D"/>
<path fill-rule="evenodd" clip-rule="evenodd" d="M79.037 57.5187L77.4164 56.365L78.4147 54.6366C78.8955 54.9188 79.2367 55.3916 79.355 55.9396C79.4734 56.4877 79.358 57.0606 79.037 57.5187ZM75.6265 55.445C76.7235 55.9583 77.4164 56.365 77.4164 56.365C77.4164 56.365 76.9586 57.0186 76.1872 57.9639C74.4459 60.0979 71.1067 63.7191 67.8286 64.6672C62.1273 66.3162 56.8678 60.7661 56.8678 60.7661C56.8678 60.7661 60.0803 54.8544 66.1934 53.5452C69.3629 52.8663 73.3584 54.3836 75.6265 55.445ZM56.8678 60.7661C55.1278 59.8052 55.1281 59.8046 55.1285 59.8039L55.1293 59.8025L55.131 59.7992L55.1355 59.7911L55.1481 59.7684C55.1581 59.7505 55.1714 59.7269 55.1879 59.6982C55.2209 59.6406 55.267 59.5619 55.326 59.4648C55.4439 59.2707 55.6143 59.0018 55.8368 58.6796C56.2803 58.037 56.9382 57.1715 57.8087 56.2597C59.534 54.4527 62.1992 52.356 65.7811 51.5888C68.7131 50.9609 71.972 51.8458 74.2594 52.7027C75.4494 53.1485 76.4768 53.6259 77.207 53.9918C77.5733 54.1753 77.8679 54.3322 78.0742 54.4452C78.1774 54.5017 78.2587 54.5473 78.3161 54.5799C78.3448 54.5962 78.3675 54.6093 78.3841 54.6188L78.4041 54.6305L78.4106 54.6342L78.4147 54.6366C78.4151 54.6369 78.4147 54.6366 77.4164 56.365C79.037 57.5187 79.0373 57.5184 79.037 57.5187L79.0345 57.5223L79.0302 57.5285L79.0162 57.5482C79.0046 57.5646 78.9883 57.5875 78.9675 57.6165C78.9259 57.6744 78.8662 57.7567 78.7896 57.8603C78.6366 58.0674 78.4157 58.3603 78.1368 58.7141C77.5805 59.4199 76.7855 60.3778 75.8307 61.3849C73.9985 63.3174 71.2884 65.7472 68.3758 66.5896C64.7743 67.6313 61.4484 66.3665 59.2174 65.0666C58.0779 64.4026 57.1465 63.686 56.5002 63.1369C56.1753 62.8609 55.918 62.6235 55.7377 62.4507C55.6475 62.3642 55.5762 62.2935 55.5252 62.242C55.4996 62.2163 55.4791 62.1953 55.4637 62.1794L55.4445 62.1595L55.4379 62.1525L55.4353 62.1498L55.4342 62.1487C55.4337 62.1481 55.4332 62.1476 56.8678 60.7661ZM55.1278 59.8052L56.8678 60.7661L55.4332 62.1476C54.8359 61.5173 54.7124 60.5697 55.1278 59.8052Z" fill="#156319"/>
<path d="M74.8587 69.8476C74.8587 69.8476 65.8629 73.7768 60.3373 72.2492C53.6775 70.4081 51.7821 61.6783 51.7821 61.6783C51.7821 61.6783 58.5281 57.7614 65.3933 60.1917C70.6742 62.0612 74.8587 69.8476 74.8587 69.8476Z" fill="#7CD623"/>
<path fill-rule="evenodd" clip-rule="evenodd" d="M75.6475 71.6828L74.8587 69.8476L76.6032 68.8949C76.8682 69.3881 76.9156 69.9708 76.7339 70.5009C76.5522 71.031 76.158 71.4598 75.6475 71.6828ZM73.815 68.1195C74.4831 69.1488 74.8587 69.8476 74.8587 69.8476C74.8587 69.8476 74.1419 70.1607 72.9885 70.5758C70.0563 71.6311 64.3031 73.3456 60.3373 72.2492C53.6775 70.4081 51.7822 61.6783 51.7822 61.6783C51.7822 61.6783 58.5282 57.7614 65.3933 60.1917C69.0921 61.5011 72.253 65.7132 73.815 68.1195ZM51.7822 61.6783C50.7919 59.9452 50.7926 59.9449 50.7932 59.9445L50.7946 59.9437L50.798 59.9417L50.8065 59.9368L50.831 59.9229C50.8507 59.9118 50.8769 59.8971 50.9094 59.8792C50.9745 59.8434 51.0652 59.7946 51.1797 59.7353C51.4085 59.617 51.7337 59.4564 52.1421 59.2747C52.9569 58.912 54.1147 58.4594 55.5081 58.0896C58.273 57.3557 62.1113 56.9101 66.0506 58.3047C69.2513 59.4378 71.9118 62.243 73.664 64.482C74.5706 65.6406 75.2988 66.7327 75.8006 67.5351C76.0523 67.9375 76.2489 68.2699 76.3843 68.5052C76.4521 68.6228 76.5047 68.7164 76.5414 68.7824C76.5598 68.8155 76.5742 68.8416 76.5845 68.8605L76.5969 68.8833L76.6008 68.8906L76.6032 68.8949C76.6034 68.8954 76.6032 68.8949 74.8587 69.8476C75.6475 71.6828 75.6479 71.6826 75.6475 71.6828L75.6432 71.6846L75.6357 71.6879L75.6108 71.6986C75.59 71.7076 75.5606 71.7201 75.5232 71.736C75.4483 71.7676 75.3408 71.8124 75.2038 71.8682C74.9301 71.9795 74.5377 72.1347 74.0513 72.3149C73.0808 72.6745 71.7245 73.1383 70.182 73.5536C67.2053 74.3549 63.1247 75.0937 59.8126 74.178C55.7295 73.0492 53.2398 69.8521 51.8209 67.2316C51.0982 65.8968 50.6097 64.6343 50.3013 63.7068C50.1464 63.241 50.035 62.8542 49.9611 62.5779C49.9241 62.4396 49.8963 62.3285 49.8771 62.2487C49.8675 62.2087 49.86 62.1765 49.8545 62.1526L49.8478 62.1229L49.8456 62.1128L49.8447 62.109L49.8444 62.1073C49.8442 62.1066 49.8441 62.1059 51.7822 61.6783ZM50.7919 59.9452L51.7822 61.6783L49.8441 62.1059C49.6592 61.2544 50.0427 60.3803 50.7919 59.9452Z" fill="#156319"/>
<path d="M60.036 70.6994C64.2667 72.1971 71.8972 69.5548 71.8972 69.5548C64.148 64.2631 56.4868 63.9248 53.7576 64.0204C53.7576 64.0204 55.8053 69.2017 60.036 70.6994Z" fill="#6FC21C"/>
<path d="M53.3445 69.71C67.9511 61 65.6695 45.4135 59.1019 33.9306L17.8517 57.9061C24.4194 69.389 37.7653 79 53.3445 69.71Z" fill="#A6682F"/>
<path fill-rule="evenodd" clip-rule="evenodd" d="M58.1109 32.198C59.0602 31.6462 60.2733 31.9747 60.8206 32.9316C64.2256 38.8849 66.6129 46.0507 66.1429 52.9963C65.6647 60.0629 62.2297 66.7354 54.3546 71.4314C46.0203 76.4012 38.1192 76.3661 31.4275 73.4319C24.8313 70.5397 19.5664 64.9081 16.133 58.9051C15.5857 57.9482 15.9115 56.7252 16.8608 56.1735L58.1109 32.198ZM18.8874 59.6128C25.7599 70.3031 38.5445 78.5354 53.3445 69.71C67.2196 61.4362 65.8557 46.9575 60.0548 35.6854C59.749 35.0911 59.4308 34.5057 59.1019 33.9306L17.8518 57.9061C18.1802 58.4804 18.5256 59.05 18.8874 59.6128Z" fill="#6C3211"/>
<path fill-rule="evenodd" clip-rule="evenodd" d="M59.1019 33.9307C65.6695 45.4136 67.9511 61.0001 53.3445 69.7101C46.0182 74.0788 39.1858 74.2677 33.3199 72.0476C37.3072 72.6132 41.6946 71.8312 46.3152 69.0759C58.6217 61.7375 56.6994 48.6054 51.166 38.9307L18.0193 58.1963C17.963 58.0997 17.9071 58.003 17.8517 57.9062L59.1019 33.9307Z" fill="#925824"/>
<path d="M60.1159 56.0032C59.6713 57.0128 58.4991 57.4679 57.4976 57.0197C56.4961 56.5715 56.0447 55.3898 56.4893 54.3802C56.9338 53.3707 58.1061 52.9156 59.1076 53.3637C60.109 53.8119 60.5605 54.9936 60.1159 56.0032Z" fill="#77461A"/>
<path d="M58.8496 49.6566C58.5161 50.4138 57.6369 50.7551 56.8858 50.4189C56.1347 50.0828 55.7962 49.1965 56.1296 48.4393C56.463 47.6822 57.3422 47.3408 58.0933 47.677C58.8444 48.0131 59.183 48.8994 58.8496 49.6566Z" fill="#77461A"/>
<path d="M57.2985 62.4012C56.8539 63.4107 55.6816 63.8658 54.6801 63.4176C53.6787 62.9695 53.2272 61.7877 53.6718 60.7782C54.1164 59.7686 55.2887 59.3135 56.2901 59.7617C57.2916 60.2099 57.743 61.3916 57.2985 62.4012Z" fill="#77461A"/>
<path d="M53.4685 56.3107C53.0239 57.3203 51.8517 57.7754 50.8502 57.3272C49.8487 56.879 49.3973 55.6973 49.8419 54.6877C50.2864 53.6782 51.4587 53.2231 52.4602 53.6712C53.4616 54.1194 53.9131 55.3011 53.4685 56.3107Z" fill="#77461A"/>
<path d="M50.9391 66.5883C50.6057 67.3455 49.7265 67.6868 48.9754 67.3507C48.2243 67.0146 47.8857 66.1283 48.2191 65.3711C48.5526 64.6139 49.4318 64.2726 50.1829 64.6087C50.934 64.9449 51.2726 65.8312 50.9391 66.5883Z" fill="#77461A"/>
<path d="M59.1019 33.9306C61.2911 37.7582 53.8316 46.2283 42.4407 52.8489C31.0498 59.4696 20.0409 61.7338 17.8517 57.9061C15.6625 54.0785 23.122 45.6085 34.5129 38.9878C45.9038 32.3671 56.9126 30.103 59.1019 33.9306Z" fill="#FFEED6"/>
<path fill-rule="evenodd" clip-rule="evenodd" d="M57.3475 43.6702C54.1562 47.2939 49.2605 51.1938 43.4317 54.5816C37.6029 57.9694 31.802 60.2866 27.0922 61.2553C24.748 61.7374 22.561 61.9094 20.7299 61.641C18.9271 61.3766 17.1141 60.6205 16.133 58.9051C15.1519 57.1898 15.4111 55.2292 16.0874 53.5239C16.7743 51.792 18.0177 49.9701 19.6061 48.1666C22.7974 44.5429 27.6931 40.643 33.5219 37.2552C39.3507 33.8674 45.1516 31.5501 49.8614 30.5815C52.2056 30.0993 54.3927 29.9274 56.2237 30.1958C58.0265 30.4601 59.8395 31.2163 60.8206 32.9316C61.8017 34.647 61.5425 36.6076 60.8662 38.3128C60.1793 40.0448 58.9359 41.8666 57.3475 43.6702ZM42.4407 52.8489C53.8316 46.2283 61.2911 37.7583 59.1019 33.9306C56.9127 30.103 45.9038 32.3672 34.5129 38.9878C23.122 45.6085 15.6625 54.0785 17.8517 57.9062C20.0409 61.7338 31.0498 59.4696 42.4407 52.8489Z" fill="#8C4922"/>
<path fill-rule="evenodd" clip-rule="evenodd" d="M53.5673 34.5001C53.5673 35.6046 52.6791 36.5001 51.5833 36.5001C51.2911 36.5001 51.1397 36.5317 50.9364 36.5781C50.9162 36.5827 50.8948 36.5877 50.8721 36.5929C50.6082 36.6543 50.1759 36.7548 49.5994 36.7548C48.5036 36.7548 47.6154 35.8594 47.6154 34.7548C47.6154 33.6502 48.5036 32.7548 49.5994 32.7548C49.7172 32.7548 49.7571 32.746 50.0602 32.6768C50.415 32.5958 50.8836 32.5001 51.5833 32.5001C52.6791 32.5001 53.5673 33.3955 53.5673 34.5001Z" fill="white"/>
<path d="M55.7734 37.5181C57.2483 40.0968 50.9496 46.5431 41.705 51.9163C32.4603 57.2895 23.7704 59.5549 22.2955 56.9762C20.8206 54.3975 27.1193 47.9512 36.3639 42.5779C45.6086 37.2047 54.2985 34.9393 55.7734 37.5181Z" fill="#E7D2B4"/>
<path fill-rule="evenodd" clip-rule="evenodd" d="M33.3361 56.0171C29.3761 55.8636 26.1463 54.3981 24.5447 51.6428C22.5298 53.8991 21.6364 55.8239 22.2956 56.9763C23.3055 58.7421 27.6985 58.2365 33.3361 56.0171Z" fill="#DDC5A2"/>
<path fill-rule="evenodd" clip-rule="evenodd" d="M26.845 63.334C27.7111 62.6575 28.9573 62.8168 29.6285 63.6899C29.8074 63.9228 29.925 64.0241 30.0858 64.1577C30.1018 64.1709 30.1189 64.185 30.1369 64.1998C30.3466 64.3725 30.6903 64.6555 31.0434 65.1149C31.7145 65.988 31.5564 67.2443 30.6903 67.9208C29.8241 68.5974 28.578 68.438 27.9068 67.5649C27.8346 67.471 27.8033 67.4446 27.5634 67.2454C27.2826 67.0123 26.9205 66.6976 26.4919 66.1399C25.8208 65.2668 25.9789 64.0105 26.845 63.334Z" fill="#CF843E"/>
</svg>
