<svg width="96" height="97" viewBox="0 0 96 97" fill="none" xmlns="http://www.w3.org/2000/svg">
<path d="M48.125 84.676C56.4389 84.676 63.1786 82.2689 63.1786 79.2997C63.2761 78.7497 63.9335 77.3622 64.5 76.9872H31.5C32.3 77.3872 32.7143 78.8622 33.0714 79.2997C33.0714 82.2689 39.8111 84.676 48.125 84.676Z" fill="#77BCD1"/>
<path fill-rule="evenodd" clip-rule="evenodd" d="M64.5 76.9872C64.0221 77.3035 63.4796 78.3404 63.263 78.9872C63.2228 79.1071 63.1939 79.2136 63.1786 79.2997C63.1786 82.2689 56.4389 84.676 48.125 84.676C39.8111 84.676 33.0714 82.2689 33.0714 79.2997C33.0091 79.2234 32.9451 79.1154 32.8775 78.9872C32.8177 78.8735 32.7551 78.7439 32.6886 78.6061C32.3999 78.0079 32.0368 77.2556 31.5 76.9872H64.5ZM31.1241 79.9497C31.0761 79.8595 31.0321 79.7719 30.9938 79.6942C30.9459 79.5972 30.906 79.5143 30.8693 79.438C30.8051 79.3049 30.7506 79.1918 30.6805 79.058C30.5868 78.8793 30.5162 78.7664 30.466 78.6992C29.7279 78.254 29.3527 77.3784 29.5535 76.5277C29.7666 75.6249 30.5725 74.9872 31.5 74.9872H64.5C65.3826 74.9872 66.1608 75.5656 66.4151 76.4107C66.6579 77.2173 66.3687 78.0847 65.7021 78.5856C65.6937 78.596 65.6833 78.6092 65.6712 78.6254C65.6033 78.7164 65.5172 78.8524 65.4271 79.021C65.3385 79.1866 65.262 79.3537 65.2068 79.4934C65.1898 79.5365 65.177 79.5715 65.1676 79.5986C65.0627 81.015 64.2232 82.1291 63.2859 82.9205C62.2744 83.7746 60.9293 84.4537 59.4422 84.9848C56.4505 86.0532 52.4491 86.676 48.125 86.676C43.8009 86.676 39.7995 86.0532 36.8078 84.9848C35.3207 84.4537 33.9756 83.7746 32.9641 82.9205C32.1057 82.1957 31.3293 81.2002 31.1241 79.9497Z" fill="#65A6BA"/>
<path d="M64.9286 23.0341H31.0714V76.0871C31.0714 78.3378 38.6506 81.1623 48 81.1623C57.3494 81.1623 64.9286 78.3378 64.9286 76.0871V23.0341Z" fill="#E3283F"/>
<path fill-rule="evenodd" clip-rule="evenodd" d="M29.0714 23.0341C29.0714 21.9295 29.9668 21.0341 31.0714 21.0341H64.9286C66.0332 21.0341 66.9286 21.9295 66.9286 23.0341V76.0871C66.9286 76.9468 66.5665 77.6561 66.1689 78.1721C65.7712 78.6882 65.2567 79.1212 64.7213 79.4845C63.6495 80.2119 62.2146 80.8466 60.5839 81.3723C57.3 82.4308 52.8584 83.1623 48 83.1623C43.1416 83.1623 38.7 82.4308 35.4161 81.3723C33.7854 80.8466 32.3505 80.2119 31.2787 79.4845C30.7433 79.1212 30.2288 78.6882 29.8311 78.1721C29.4335 77.6561 29.0714 76.9468 29.0714 76.0871V23.0341ZM64.9286 23.0341V76.0871C64.9286 78.3378 57.3494 81.1623 48 81.1623C38.6506 81.1623 31.0714 78.3378 31.0714 76.0871V23.0341H64.9286Z" fill="#65A6BA"/>
<path d="M64.9286 76.0871V23.5111H55V79.7987C60.8565 79.1576 64.9286 77.7368 64.9286 76.0871Z" fill="#C61A2F"/>
<path d="M59.4097 75.8077C59.4097 76.8202 58.5889 77.641 57.5764 77.641C56.5639 77.641 55.743 76.8202 55.743 75.8077C55.743 74.7952 56.5639 73.9744 57.5764 73.9744C58.5889 73.9744 59.4097 74.7952 59.4097 75.8077Z" fill="#AA0E21"/>
<path d="M63 73.4396C63 74.199 62.3844 74.8146 61.625 74.8146C60.8656 74.8146 60.25 74.199 60.25 73.4396C60.25 72.6802 60.8656 72.0646 61.625 72.0646C62.3844 72.0646 63 72.6802 63 73.4396Z" fill="#AA0E21"/>
<path d="M57.4236 70.766C57.4236 71.5254 56.808 72.141 56.0486 72.141C55.2893 72.141 54.6736 71.5254 54.6736 70.766C54.6736 70.0066 55.2893 69.391 56.0486 69.391C56.808 69.391 57.4236 70.0066 57.4236 70.766Z" fill="#AA0E21"/>
<path d="M62.9236 64.3493C62.9236 65.1087 62.308 65.7243 61.5486 65.7243C60.7893 65.7243 60.1736 65.1087 60.1736 64.3493C60.1736 63.5899 60.7893 62.9743 61.5486 62.9743C62.308 62.9743 62.9236 63.5899 62.9236 64.3493Z" fill="#AA0E21"/>
<path d="M59.257 65.7243C59.257 66.2306 58.8466 66.641 58.3403 66.641C57.8341 66.641 57.4236 66.2306 57.4236 65.7243C57.4236 65.2181 57.8341 64.8077 58.3403 64.8077C58.8466 64.8077 59.257 65.2181 59.257 65.7243Z" fill="#AA0E21"/>
<path d="M62.9236 60.2243C62.9236 60.7306 62.5132 61.141 62.0069 61.141C61.5007 61.141 61.0903 60.7306 61.0903 60.2243C61.0903 59.7181 61.5007 59.3077 62.0069 59.3077C62.5132 59.3077 62.9236 59.7181 62.9236 60.2243Z" fill="#AA0E21"/>
<path d="M61.9305 68.8563C61.9305 69.6157 61.3149 70.2313 60.5555 70.2313C59.7962 70.2313 59.1805 69.6157 59.1805 68.8563C59.1805 68.0969 59.7962 67.4813 60.5555 67.4813C61.3149 67.4813 61.9305 68.0969 61.9305 68.8563Z" fill="#AA0E21"/>
<path d="M60.1736 60.6827C60.1736 61.4421 59.558 62.0577 58.7986 62.0577C58.0393 62.0577 57.4236 61.4421 57.4236 60.6827C57.4236 59.9233 58.0393 59.3077 58.7986 59.3077C59.558 59.3077 60.1736 59.9233 60.1736 60.6827Z" fill="#AA0E21"/>
<path d="M62.007 56.5577C62.007 57.0639 61.5966 57.4743 61.0903 57.4743C60.5841 57.4743 60.1736 57.0639 60.1736 56.5577C60.1736 56.0514 60.5841 55.641 61.0903 55.641C61.5966 55.641 62.007 56.0514 62.007 56.5577Z" fill="#AA0E21"/>
<path d="M53.8333 76.648C53.8333 77.1543 53.4229 77.5647 52.9167 77.5647C52.4104 77.5647 52 77.1543 52 76.648C52 76.1417 52.4104 75.7313 52.9167 75.7313C53.4229 75.7313 53.8333 76.1417 53.8333 76.648Z" fill="#AA0E21"/>
<path d="M48.1395 29.724C57.4119 29.724 64.9286 27.222 64.9286 24.1357V22.7543C64.2261 22.2344 62.598 20.6919 61.7054 18.6815H34.2461C33.651 19.9987 32.0677 21.9455 31.3505 22.7543V24.1357C31.3505 27.222 38.8672 29.724 48.1395 29.724Z" fill="#BAF7FF"/>
<path fill-rule="evenodd" clip-rule="evenodd" d="M29.3505 22.7543C29.3505 22.2652 29.5296 21.7931 29.8541 21.4273C30.1783 21.0617 30.7169 20.4171 31.2395 19.7147C31.7831 18.984 32.219 18.3106 32.4234 17.8581C32.747 17.1418 33.4601 16.6815 34.2461 16.6815H61.7054C62.496 16.6815 63.2125 17.1473 63.5333 17.8699C64.2473 19.478 65.6066 20.7679 66.1184 21.1467C66.628 21.5238 66.9286 22.1203 66.9286 22.7543V24.1357C66.9286 25.784 65.9233 27.0349 64.8461 27.8826C63.746 28.7483 62.2782 29.4405 60.6428 29.9849C57.351 31.0806 52.9306 31.724 48.1395 31.724C43.3485 31.724 38.928 31.0806 35.6362 29.9849C34.0008 29.4405 32.533 28.7483 31.433 27.8826C30.3558 27.0349 29.3505 25.784 29.3505 24.1357V22.7543ZM34.2461 18.6815H61.7054C62.598 20.6919 64.2261 22.2344 64.9286 22.7543V24.1357C64.9286 27.222 57.4119 29.724 48.1395 29.724C38.8672 29.724 31.3505 27.222 31.3505 24.1357V22.7543C32.0677 21.9455 33.651 19.9987 34.2461 18.6815Z" fill="#65A6BA"/>
<path d="M64.9286 22.7543V24.1357C64.9286 26.4232 60.7994 28.3897 54.8866 29.2544C53.5749 28.2116 52 25.5497 51.25 22.7543C51.25 22.7543 55.5993 22.6832 58 21.4872C59.6246 20.6778 61.7054 18.6815 61.7054 18.6815C62.5979 20.6919 64.2261 22.2344 64.9286 22.7543Z" fill="#8EDFEA"/>
<path d="M61.8661 19.2506C61.8661 21.9856 55.658 24.2028 48 24.2028C40.342 24.2028 34.1339 21.9856 34.1339 19.2506C34.1339 16.5156 40.342 14.2985 48 14.2985C55.658 14.2985 61.8661 16.5156 61.8661 19.2506Z" fill="#9CD7DF"/>
<path fill-rule="evenodd" clip-rule="evenodd" d="M58.4775 24.6358C55.7007 25.6275 51.9962 26.2028 48 26.2028C44.0038 26.2028 40.2993 25.6275 37.5225 24.6358C36.1429 24.1431 34.8847 23.5097 33.9333 22.7064C32.9911 21.9108 32.1339 20.7514 32.1339 19.2506C32.1339 17.7499 32.9911 16.5905 33.9333 15.7949C34.8847 14.9915 36.1429 14.3582 37.5225 13.8654C40.2993 12.8737 44.0038 12.2985 48 12.2985C51.9962 12.2985 55.7007 12.8737 58.4775 13.8654C59.8571 14.3582 61.1153 14.9915 62.0667 15.7949C63.0089 16.5905 63.8661 17.7499 63.8661 19.2506C63.8661 20.7514 63.0089 21.9108 62.0667 22.7064C61.1153 23.5097 59.8571 24.1431 58.4775 24.6358ZM48 24.2028C55.658 24.2028 61.8661 21.9856 61.8661 19.2506C61.8661 16.5156 55.658 14.2985 48 14.2985C40.342 14.2985 34.1339 16.5156 34.1339 19.2506C34.1339 21.9856 40.342 24.2028 48 24.2028Z" fill="#428EA6"/>
<path d="M47.0958 18.9865C47.0958 19.6438 45.6037 20.1767 43.7632 20.1767C41.9227 20.1767 40.4307 19.6438 40.4307 18.9865C40.4307 18.3291 41.9227 17.7963 43.7632 17.7963C45.6037 17.7963 47.0958 18.3291 47.0958 18.9865Z" fill="#BAF7FF"/>
<path fill-rule="evenodd" clip-rule="evenodd" d="M45.4927 20.004C45.4689 20.0092 45.445 20.0143 45.4208 20.0192C44.9326 20.1194 44.3666 20.1767 43.7632 20.1767C43.1598 20.1767 42.5938 20.1194 42.1056 20.0192C42.0814 20.0143 42.0575 20.0092 42.0337 20.004C41.0726 19.7952 40.4307 19.4176 40.4307 18.9865C40.4307 18.5553 41.0726 18.1777 42.0337 17.9689C42.0575 17.9637 42.0814 17.9587 42.1056 17.9537C42.5938 17.8535 43.1598 17.7963 43.7632 17.7963C44.3666 17.7963 44.9326 17.8535 45.4208 17.9537C45.445 17.9587 45.4689 17.9637 45.4927 17.9689C46.4538 18.1777 47.0958 18.5553 47.0958 18.9865C47.0958 19.4176 46.4538 19.7952 45.4927 20.004ZM46.7923 21.7115C45.9218 22.0224 44.8507 22.1767 43.7632 22.1767C42.6758 22.1767 41.6046 22.0224 40.7341 21.7115C40.3075 21.5592 39.8207 21.3311 39.4022 20.9778C38.9931 20.6324 38.4307 19.9678 38.4307 18.9865C38.4307 18.0051 38.9931 17.3405 39.4022 16.9951C39.8207 16.6418 40.3075 16.4137 40.7341 16.2614C41.6046 15.9505 42.6758 15.7963 43.7632 15.7963C44.8507 15.7963 45.9218 15.9505 46.7923 16.2614C47.2189 16.4137 47.7058 16.6418 48.1242 16.9951C48.5333 17.3405 49.0958 18.0051 49.0958 18.9865C49.0958 19.9678 48.5333 20.6324 48.1242 20.9778C47.7058 21.3311 47.2189 21.5592 46.7923 21.7115Z" fill="#65A6BA"/>
<path fill-rule="evenodd" clip-rule="evenodd" d="M33.2929 24.2801C33.6834 23.8896 34.3166 23.8896 34.7071 24.2801C34.8025 24.3755 35.0303 24.5379 35.4343 24.7431C35.8202 24.9391 36.3053 25.1436 36.8572 25.3442C37.9609 25.7453 39.2741 26.1097 40.4774 26.3504C41.0189 26.4587 41.3701 26.9855 41.2618 27.527C41.1535 28.0686 40.6267 28.4198 40.0851 28.3115C38.7884 28.0522 37.3776 27.6613 36.1741 27.2239C35.5723 27.0052 35.0079 26.7697 34.5286 26.5262C34.0674 26.292 33.6141 26.0155 33.2929 25.6943C32.9024 25.3038 32.9024 24.6706 33.2929 24.2801Z" fill="#EBFDFF"/>
<path d="M40.292 33.6465C38.0302 33.1939 35.7825 32.4057 34.2105 31.7596C33.5272 31.4788 32.75 31.9725 32.75 32.7112V53.4794C32.75 53.8522 32.8472 54.2226 33.0767 54.5163C34.5462 56.3971 37.425 57.6568 39.7478 58.3592C40.9386 58.7192 42.0625 57.7836 42.0625 56.5396V35.7175C42.0625 34.6972 41.2924 33.8466 40.292 33.6465Z" fill="#FF495F"/>
<path fill-rule="evenodd" clip-rule="evenodd" d="M35.5 34.4872C36.0523 34.4872 36.5 34.9349 36.5 35.4872V49.9872C36.5 50.5395 36.0523 50.9872 35.5 50.9872C34.9477 50.9872 34.5 50.5395 34.5 49.9872V35.4872C34.5 34.9349 34.9477 34.4872 35.5 34.4872Z" fill="#FFB5BE"/>
<path d="M47.8995 64.8748C47.8995 65.9692 47.0123 66.8564 45.9179 66.8564C44.8236 66.8564 43.9364 65.9692 43.9364 64.8748C43.9364 63.7805 44.8236 62.8933 45.9179 62.8933C47.0123 62.8933 47.8995 63.7805 47.8995 64.8748Z" fill="white"/>
<path d="M50.5838 70.1022C50.5838 70.8435 49.9829 71.4444 49.2416 71.4444C48.5003 71.4444 47.8994 70.8435 47.8994 70.1022C47.8994 69.3609 48.5003 68.76 49.2416 68.76C49.9829 68.76 50.5838 69.3609 50.5838 70.1022Z" fill="white"/>
<path d="M52.3249 58.3119C52.3249 59.8258 51.0977 61.053 49.5838 61.053C48.0699 61.053 46.8427 59.8258 46.8427 58.3119C46.8427 56.798 48.0699 55.5708 49.5838 55.5708C51.0977 55.5708 52.3249 56.798 52.3249 58.3119Z" fill="white"/>
<path d="M46.7198 51.3343C46.7198 53.1218 45.2708 54.5708 43.4833 54.5708C41.6959 54.5708 40.2468 53.1218 40.2468 51.3343C40.2468 49.5468 41.6959 48.0978 43.4833 48.0978C45.2708 48.0978 46.7198 49.5468 46.7198 51.3343Z" fill="white"/>
<path d="M55 44.1202C55 46.5095 53.0631 48.4465 50.6737 48.4465C48.2843 48.4465 46.3474 46.5095 46.3474 44.1202C46.3474 41.7308 48.2843 39.7938 50.6737 39.7938C53.0631 39.7938 55 41.7308 55 44.1202Z" fill="white"/>
</svg>
