<svg width="96" height="96" viewBox="0 0 96 96" fill="none" xmlns="http://www.w3.org/2000/svg">
<path d="M53.4451 34.8018C61.8408 17.7092 70.0616 17.3207 73.1226 19.2631C79.1569 21.8529 75.9554 31.8884 74.4345 37.0679C69.1111 55.1965 56.3969 73.9724 41.9668 76.886C31.3634 79.0268 17.5518 77.6208 15.256 66.938C13.2892 57.786 20.9774 51.6355 28.1925 50.0169C35.4076 48.3983 45.0494 51.8945 53.4451 34.8018Z" fill="#A33795"/>
<path fill-rule="evenodd" clip-rule="evenodd" d="M73.1225 19.2631C78.9524 21.7651 76.1617 31.2169 74.5944 36.5253C74.5394 36.7114 74.486 36.8925 74.4344 37.0679C69.1111 55.1965 56.3968 73.9725 41.9667 76.886C31.3633 79.0268 17.5517 77.6208 15.256 66.938C13.2892 57.786 20.9774 51.6355 28.1925 50.0169C29.6634 49.6869 31.2352 49.5695 32.8767 49.4469C39.2871 48.9681 46.761 48.4098 53.4451 34.8018C61.8408 17.7092 70.0616 17.3208 73.1225 19.2631ZM64.2928 18.1575C68.2129 15.9195 71.7739 16.1228 74.0539 17.488C78.2079 19.362 78.8515 23.7295 78.6071 27.3298C78.3712 30.8062 77.2686 34.5349 76.5206 37.0647C76.4625 37.2611 76.4066 37.4502 76.3534 37.6314C73.6294 46.9079 69.0144 56.3627 63.1994 63.9039C57.4157 71.4044 50.2532 77.2532 42.3626 78.8464C36.8603 79.9573 30.4183 80.1771 24.9564 78.6467C19.4479 77.1033 14.6559 73.6648 13.3006 67.3582C12.1659 62.078 13.8428 57.6163 16.79 54.3195C19.6889 51.0767 23.8076 48.9509 27.7547 48.0654C29.3832 47.7001 31.1375 47.5699 32.7846 47.4477C33.1419 47.4212 33.4942 47.395 33.8391 47.3669C35.8522 47.203 37.7973 46.9684 39.7393 46.3162C43.4812 45.0595 47.6286 42.1072 51.65 33.9201C55.9406 25.1849 60.3237 20.4234 64.2928 18.1575Z" fill="#800771"/>
<path fill-rule="evenodd" clip-rule="evenodd" d="M16.0358 69.3617C19.7753 77.8259 32.2249 78.8528 41.9666 76.8859C56.3967 73.9724 69.1109 55.1964 74.4343 37.0679C74.4858 36.8924 74.5393 36.7113 74.5943 36.5252C76.1616 31.2168 78.9523 21.765 73.1224 19.263C73.0056 19.1889 72.8813 19.1182 72.7497 19.0516C73.5354 22.987 71.9463 28.3691 70.9012 31.9088C70.8462 32.0949 70.7927 32.276 70.7412 32.4515C65.4179 50.58 52.7036 69.356 38.2735 72.2695C30.7128 73.7961 21.5208 73.5192 16.0358 69.3617Z" fill="#8E2A82"/>
<path d="M51.2098 64.9718C50.7816 65.4667 50.0332 65.5208 49.5383 65.0925C49.0434 64.6643 48.9893 63.916 49.4176 63.4211C49.8458 62.9261 50.5941 62.8721 51.089 63.3003C51.584 63.7285 51.638 64.4769 51.2098 64.9718Z" fill="#6D1863"/>
<path d="M59.2763 60.6377C58.7334 61.2651 57.7847 61.3337 57.1572 60.7908C56.5297 60.2479 56.4612 59.2991 57.0041 58.6716C57.547 58.0442 58.4958 57.9756 59.1232 58.5185C59.7507 59.0614 59.8192 60.0102 59.2763 60.6377Z" fill="#6D1863"/>
<path d="M65.5558 52.6508C65.0129 53.2782 64.0641 53.3468 63.4366 52.8039C62.8092 52.261 62.7406 51.3122 63.2835 50.6847C63.8264 50.0573 64.7752 49.9887 65.4027 50.5316C66.0301 51.0745 66.0987 52.0233 65.5558 52.6508Z" fill="#6D1863"/>
<path d="M48.6934 69.7489C48.1505 70.3764 47.2017 70.4449 46.5742 69.902C45.9468 69.3591 45.8782 68.4104 46.4211 67.7829C46.964 67.1554 47.9128 67.0869 48.5403 67.6298C49.1678 68.1727 49.2363 69.1215 48.6934 69.7489Z" fill="#6D1863"/>
<path d="M55.3233 64.1518C54.9162 64.6224 54.2046 64.6738 53.734 64.2666C53.2634 63.8594 53.212 63.1479 53.6191 62.6773C54.0263 62.2067 54.7379 62.1552 55.2085 62.5624C55.6791 62.9696 55.7305 63.6812 55.3233 64.1518Z" fill="#6D1863"/>
<path d="M53.4413 68.3273C53.0341 68.7979 52.3225 68.8493 51.8519 68.4422C51.3813 68.035 51.3299 67.3234 51.7371 66.8528C52.1442 66.3822 52.8558 66.3308 53.3264 66.738C53.797 67.1451 53.8484 67.8567 53.4413 68.3273Z" fill="#6D1863"/>
<path d="M61.5392 57.2385C61.1321 57.7091 60.4205 57.7605 59.9499 57.3533C59.4793 56.9461 59.4279 56.2346 59.835 55.764C60.2422 55.2934 60.9538 55.2419 61.4244 55.6491C61.895 56.0563 61.9464 56.7679 61.5392 57.2385Z" fill="#6D1863"/>
<path d="M54.6904 60.4697C54.2832 60.9403 53.5717 60.9917 53.1011 60.5846C52.6305 60.1774 52.579 59.4658 52.9862 58.9952C53.3934 58.5246 54.105 58.4732 54.5756 58.8804C55.0462 59.2875 55.0976 59.9991 54.6904 60.4697Z" fill="#6D1863"/>
<path d="M44.611 73.3336C44.0681 73.9611 43.1193 74.0296 42.4919 73.4867C41.8644 72.9438 41.7958 71.995 42.3388 71.3676C42.8817 70.7401 43.8304 70.6715 44.4579 71.2144C45.0854 71.7573 45.1539 72.7061 44.611 73.3336Z" fill="#6D1863"/>
<path d="M44.5686 67.9631C44.0257 68.5906 43.077 68.6591 42.4495 68.1162C41.822 67.5733 41.7535 66.6246 42.2964 65.9971C42.8393 65.3696 43.7881 65.3011 44.4155 65.844C45.043 66.3869 45.1116 67.3357 44.5686 67.9631Z" fill="#6D1863"/>
<path d="M38.8536 75.1254C38.3107 75.7528 37.3619 75.8214 36.7345 75.2785C36.107 74.7356 36.0385 73.7868 36.5814 73.1593C37.1243 72.5319 38.0731 72.4633 38.7005 73.0062C39.328 73.5491 39.3965 74.4979 38.8536 75.1254Z" fill="#6D1863"/>
<path d="M39.3744 70.6691C38.943 71.1677 38.1891 71.2222 37.6905 70.7908C37.1919 70.3594 37.1374 69.6055 37.5688 69.1069C38.0002 68.6083 38.7541 68.5538 39.2527 68.9852C39.7513 69.4166 39.8058 70.1705 39.3744 70.6691Z" fill="#6D1863"/>
<path d="M67.0529 48.211C66.7843 48.5214 66.315 48.5553 66.0046 48.2868C65.6941 48.0182 65.6602 47.5488 65.9288 47.2384C66.1974 46.928 66.6668 46.8941 66.9772 47.1626C67.2876 47.4312 67.3215 47.9006 67.0529 48.211Z" fill="#6D1863"/>
<path d="M60.977 53.6017C60.7085 53.9121 60.2391 53.946 59.9287 53.6774C59.6183 53.4088 59.5843 52.9395 59.8529 52.629C60.1215 52.3186 60.5909 52.2847 60.9013 52.5533C61.2117 52.8219 61.2456 53.2912 60.977 53.6017Z" fill="#6D1863"/>
<path d="M32.9387 75.4657C32.5315 75.9363 31.8199 75.9877 31.3493 75.5805C30.8787 75.1734 30.8273 74.4618 31.2345 73.9912C31.6417 73.5206 32.3533 73.4692 32.8239 73.8763C33.2945 74.2835 33.3459 74.9951 32.9387 75.4657Z" fill="#6D1863"/>
<path d="M33.5242 53.5318C35.2307 56.0711 33.3056 60.3531 29.2243 63.0958C25.1431 65.8386 20.4511 66.0035 18.7446 63.4642C17.0381 60.9249 18.9632 56.6429 23.0445 53.9001C27.1257 51.1574 31.8176 50.9925 33.5242 53.5318Z" fill="#C448B5"/>
<path d="M65.5859 24.505C67.958 26.4372 65.0619 34.9442 58.4999 43.0001C51.938 51.056 42.9999 52.5 40.4998 52.0001C38.1277 50.0679 45.4999 52.5 51.4998 43.0001C56.4998 33.5001 63.2138 22.5728 65.5859 24.505Z" fill="#C448B5"/>
<path fill-rule="evenodd" clip-rule="evenodd" d="M26.0826 56.2328C26.731 57.127 26.5318 58.3776 25.6375 59.026C25.0247 59.4703 24.5652 59.9881 24.2317 60.583C23.6914 61.5465 22.4725 61.8896 21.509 61.3494C20.5456 60.8092 20.2025 59.5902 20.7427 58.6268C21.3728 57.5029 22.2309 56.5552 23.2894 55.7877C24.1837 55.1393 25.4342 55.3386 26.0826 56.2328Z" fill="white"/>
<path fill-rule="evenodd" clip-rule="evenodd" d="M82.5228 17.149C77.4134 16.4678 74.5548 19.1376 73.8181 20.3654C73.534 20.839 72.9197 20.9925 72.4461 20.7084C71.9726 20.4242 71.819 19.81 72.1031 19.3364C73.213 17.4866 76.8174 14.3706 82.7872 15.1666C83.3346 15.2396 83.7192 15.7425 83.6462 16.29C83.5732 16.8374 83.0703 17.222 82.5228 17.149Z" fill="#537003"/>
<path d="M75.044 18.3626C68.7499 11.9375 62.6874 18.3626 57.6251 19.875C61.0948 22.5025 72.3987 25.6624 75.044 18.3626Z" fill="#A3D711"/>
<path fill-rule="evenodd" clip-rule="evenodd" d="M70.557 14.6917C72.3247 15.0118 74.0638 15.9331 75.7583 17.6629C76.0273 17.9375 76.1151 18.342 75.9841 18.7034C74.4354 22.9771 70.3477 24.0557 66.5864 23.8399C62.8246 23.6241 58.9344 22.1209 57.0214 20.6722C56.721 20.4448 56.574 20.0678 56.6411 19.697C56.7081 19.3263 56.9779 19.0247 57.3389 18.9168C58.4968 18.5709 59.7377 17.9348 61.1371 17.2093C61.1637 17.1956 61.1903 17.1818 61.217 17.1679C62.5595 16.4719 64.0296 15.7097 65.5524 15.1949C67.1167 14.6661 68.8024 14.3739 70.557 14.6917ZM59.897 20.0622C61.6893 20.927 64.2157 21.7006 66.701 21.8432C69.8899 22.0261 72.6157 21.1762 73.8581 18.6063C72.5779 17.4359 71.3569 16.8691 70.2006 16.6597C68.8902 16.4223 67.5637 16.6262 66.1928 17.0896C64.8159 17.5551 63.461 18.2574 62.0735 18.9767L62.0511 18.9883C61.3439 19.3549 60.6212 19.7295 59.897 20.0622Z" fill="#709604"/>
<path d="M75.3274 18.4675C73.2466 20.3965 70.1249 28.6875 79.8123 34.5C78.8749 30.4375 85.4374 20.25 75.3274 18.4675Z" fill="#8CBA08"/>
<path fill-rule="evenodd" clip-rule="evenodd" d="M72.1583 25.0834C71.9729 21.7752 73.3678 18.9206 74.6476 17.7342C74.877 17.5215 75.1929 17.4284 75.5011 17.4827C78.2089 17.9602 79.9842 19.0383 81.0011 20.6101C81.9971 22.1496 82.1433 23.9803 82.0064 25.7078C81.8934 27.1338 81.5733 28.615 81.2876 29.9372C81.2284 30.2112 81.1706 30.4783 81.1165 30.7367C80.9549 31.5087 80.824 32.2048 80.7597 32.8216C80.6946 33.4455 80.7054 33.923 80.7867 34.2752C80.8769 34.6661 80.7247 35.073 80.4003 35.3089C80.0758 35.5448 79.6417 35.5639 79.2978 35.3575C74.2029 32.3006 72.3493 28.4914 72.1583 25.0834ZM78.7714 32.605C78.8474 31.8828 78.9959 31.1058 79.159 30.3268C79.2187 30.0417 79.2803 29.7561 79.3419 29.4704C79.6265 28.1502 79.9113 26.8291 80.0127 25.5498C80.1355 23.9998 79.9681 22.6954 79.3219 21.6965C78.7455 20.8055 77.6846 20.002 75.684 19.5576C74.9201 20.5284 74.0197 22.5532 74.1552 24.9715C74.2866 27.3155 75.4018 30.0975 78.7714 32.605Z" fill="#709604"/>
<path d="M74.807 18.466C72.0371 17.8504 66.4052 19.1123 66.0359 29.0836C70.3445 28.4681 78.1307 25.4828 74.807 18.466Z" fill="#CDFD44"/>
<path fill-rule="evenodd" clip-rule="evenodd" d="M68.8849 19.0333C70.9617 17.3204 73.3909 17.1269 75.0239 17.4898C75.3251 17.5567 75.5786 17.759 75.7107 18.0379C76.621 19.9597 76.8124 21.7029 76.4128 23.2489C76.016 24.7841 75.0678 26.0036 73.9184 26.948C71.6502 28.8114 68.4222 29.7529 66.1773 30.0736C65.8839 30.1155 65.587 30.0251 65.3668 29.8268C65.1465 29.6285 65.0256 29.3428 65.0365 29.0466C65.2278 23.882 66.7935 20.7582 68.8849 19.0333ZM67.1137 27.8698C68.9743 27.4558 71.1257 26.6539 72.6488 25.4026C73.569 24.6466 74.2135 23.7657 74.4764 22.7484C74.7103 21.8434 74.6678 20.7324 74.1104 19.364C72.9913 19.2432 71.481 19.4846 70.1575 20.5762C68.7849 21.7082 67.4739 23.8722 67.1137 27.8698Z" fill="#709604"/>
</svg>
