<svg width="96" height="97" viewBox="0 0 96 97" fill="none" xmlns="http://www.w3.org/2000/svg">
<path d="M64.6453 16.6116C66.5914 13.8646 70.3959 13.2153 73.1429 15.1614C75.89 17.1075 76.5392 20.9121 74.5931 23.6591L38.8249 74.1479C36.8788 76.895 33.0742 77.5442 30.3272 75.5981C27.5802 73.652 26.9309 69.8475 28.877 67.1005L64.6453 16.6116Z" fill="#CE6767"/>
<path d="M65.4261 17.5828C66.2853 16.37 67.9649 16.0834 69.1776 16.9425C70.3904 17.8017 70.677 19.4813 69.8178 20.694L49.5557 49.2951C48.6965 50.5079 47.0169 50.7945 45.8042 49.9354C44.5915 49.0762 44.3048 47.3966 45.164 46.1839L65.4261 17.5828Z" fill="#E08181"/>
<path fill-rule="evenodd" clip-rule="evenodd" d="M73.7122 21.8953C74.0143 22.3577 73.8844 22.9773 73.422 23.2794C71.6193 24.4572 68.4268 25.372 63.9853 24.7449C63.4384 24.6677 63.0577 24.1618 63.1349 23.615C63.2121 23.0681 63.718 22.6874 64.2649 22.7646C68.3233 23.3375 71.0059 22.469 72.3281 21.6051C72.7905 21.303 73.4102 21.433 73.7122 21.8953Z" fill="#983232"/>
<path fill-rule="evenodd" clip-rule="evenodd" d="M70.431 26.7703C70.733 27.2327 70.6031 27.8523 70.1407 28.1544C69.1719 28.7874 67.6194 29.2272 65.9735 29.4227C64.2998 29.6216 62.387 29.5853 60.6373 29.1571C60.1009 29.0258 59.7724 28.4845 59.9037 27.9481C60.035 27.4116 60.5763 27.0832 61.1128 27.2144C62.5819 27.574 64.2471 27.6138 65.7375 27.4367C67.2557 27.2563 68.4532 26.8679 69.0469 26.4801C69.5092 26.178 70.1289 26.308 70.431 26.7703Z" fill="#983232"/>
<path fill-rule="evenodd" clip-rule="evenodd" d="M67.1184 31.2703C67.4205 31.7327 67.2906 32.3523 66.8282 32.6544C65.9256 33.2441 64.4545 33.8629 62.8034 34.2169C61.1496 34.5715 59.2116 34.6829 57.4054 34.1516C56.8755 33.9958 56.5723 33.4399 56.7282 32.9101C56.884 32.3802 57.4398 32.0771 57.9697 32.2329C59.3509 32.6391 60.9286 32.5734 62.3841 32.2614C63.8425 31.9487 65.0745 31.4112 65.7343 30.9801C66.1967 30.678 66.8164 30.808 67.1184 31.2703Z" fill="#983232"/>
<path fill-rule="evenodd" clip-rule="evenodd" d="M63.1184 36.8641C63.4205 37.3264 63.2906 37.9461 62.8282 38.2482C61.8248 38.9037 60.1967 39.2524 58.5655 39.3531C56.895 39.4561 55.0209 39.3113 53.4272 38.8256C52.8989 38.6646 52.6012 38.1058 52.7622 37.5775C52.9232 37.0492 53.482 36.7514 54.0103 36.9125C55.3229 37.3125 56.9487 37.449 58.4423 37.3569C59.9753 37.2623 61.1752 36.9391 61.7343 36.5738C62.1967 36.2718 62.8164 36.4017 63.1184 36.8641Z" fill="#983232"/>
<path fill-rule="evenodd" clip-rule="evenodd" d="M66.9909 18.6093C67.4509 18.9149 67.5761 19.5356 67.2705 19.9956L61.333 28.9331C61.0274 29.3931 60.4067 29.5183 59.9467 29.2127C59.4867 28.9071 59.3615 28.2864 59.6671 27.8264L65.6046 18.8889C65.9102 18.4289 66.5309 18.3037 66.9909 18.6093Z" fill="#FBABAB"/>
<path d="M38.8312 37.8969C41.3853 34.2916 46.3784 33.4395 49.9837 35.9936L61.6411 44.2522C65.2464 46.8063 66.0985 51.7994 63.5444 55.4047L41.3535 86.7283C39.4812 89.3711 36.1932 90.6396 33.1125 89.6399C29.8769 88.5901 25.8198 87.0069 23.125 85.0048C20.7741 83.2581 18.3636 80.378 16.5489 77.9476C14.6279 75.3749 14.7521 71.8859 16.6081 69.2659L38.8312 37.8969Z" fill="#F4CE6C"/>
<path d="M50.5835 45.808C51.8605 44.0054 54.3571 43.5793 56.1597 44.8564L60.9567 48.2547C62.7593 49.5318 63.1853 52.0283 61.9083 53.831L38.8848 86.3298C38.1353 87.3878 36.9188 88.0243 35.6263 87.9217C33.8448 87.7802 31.3265 87.4275 29.8176 86.5478C26.7686 84.7703 26.3165 82.1748 26.3051 80.8462C26.3003 80.2817 26.5339 79.7553 26.8602 79.2946L50.5835 45.808Z" fill="#DFB64E"/>
<path fill-rule="evenodd" clip-rule="evenodd" d="M47.0166 38.7376C47.9235 39.3681 48.1477 40.6144 47.5172 41.5213L24.1422 75.1464C23.5117 76.0533 22.2654 76.2774 21.3584 75.6469C20.4514 75.0165 20.2273 73.7701 20.8578 72.8632L44.2328 39.2382C44.8633 38.3312 46.1096 38.1071 47.0166 38.7376Z" fill="#FDE3A0"/>
<path fill-rule="evenodd" clip-rule="evenodd" d="M60.5679 50.2731C61.2481 50.746 61.4162 51.6808 60.9433 52.361L37.5683 85.986C37.0955 86.6662 36.1607 86.8343 35.4805 86.3614C34.8003 85.8885 34.6322 84.9538 35.105 84.2736L58.48 50.6486C58.9529 49.9684 59.8877 49.8003 60.5679 50.2731Z" fill="#CCA238"/>
<path fill-rule="evenodd" clip-rule="evenodd" d="M42.449 40.1337C42.9991 40.1828 43.4052 40.6686 43.3561 41.2187C43.2609 42.2853 43.2985 44.1646 43.7464 46.2165C44.1947 48.2698 45.0368 50.4187 46.4914 52.1006C47.9746 53.8156 49.1037 55.0371 49.9777 55.9827C50.276 56.3055 50.5447 56.5962 50.7875 56.8633C51.7093 57.8773 52.3478 58.6385 52.6749 59.538C52.8636 60.0571 52.5958 60.6308 52.0768 60.8196C51.5578 61.0083 50.984 60.7405 50.7953 60.2215C50.6224 59.746 50.2609 59.2572 49.3076 58.2087C49.0772 57.9553 48.817 57.6737 48.5247 57.3575C47.6491 56.4101 46.4861 55.1519 44.9787 53.4089C43.2333 51.3908 42.2838 48.8939 41.7925 46.643C41.3008 44.3907 41.2509 42.3076 41.364 41.0408C41.4131 40.4907 41.8989 40.0846 42.449 40.1337Z" fill="#CB9B1F"/>
<path fill-rule="evenodd" clip-rule="evenodd" d="M35.0325 51.5087C35.5826 51.5578 35.9887 52.0436 35.9396 52.5937C35.8444 53.6603 35.882 55.5396 36.3299 57.5915C36.7782 59.6448 37.6203 61.7937 39.0749 63.4756C40.5581 65.1906 41.6872 66.4121 42.5612 67.3577C42.8595 67.6805 43.1281 67.9712 43.371 68.2383C44.2928 69.2523 44.9313 70.0135 45.2584 70.913C45.4471 71.4321 45.1793 72.0058 44.6603 72.1946C44.1413 72.3833 43.5675 72.1155 43.3788 71.5965C43.2059 71.121 42.8444 70.6322 41.8911 69.5837C41.6607 69.3303 41.4005 69.0487 41.1082 68.7325C40.2326 67.7851 39.0696 66.5269 37.5622 64.7839C35.8168 62.7658 34.8673 60.2689 34.3759 58.018C33.8843 55.7657 33.8344 53.6826 33.9475 52.4158C33.9966 51.8657 34.4824 51.4596 35.0325 51.5087Z" fill="#CB9B1F"/>
<path fill-rule="evenodd" clip-rule="evenodd" d="M27.5325 60.8837C28.0826 60.9328 28.4887 61.4186 28.4396 61.9687C28.3444 63.0353 28.382 64.9146 28.8299 66.9665C29.2782 69.0198 30.1203 71.1687 31.5749 72.8506C33.0581 74.5656 34.1872 75.7871 35.0612 76.7327C35.3595 77.0555 35.6281 77.3462 35.871 77.6133C36.7928 78.6273 37.4313 79.3885 37.7584 80.288C37.9471 80.8071 37.6793 81.3808 37.1603 81.5696C36.6413 81.7583 36.0675 81.4905 35.8788 80.9715C35.7059 80.496 35.3444 80.0072 34.3911 78.9587C34.1607 78.7053 33.9005 78.4237 33.6082 78.1075C32.7326 77.1601 31.5696 75.9019 30.0622 74.1589C28.3168 72.1408 27.3673 69.6439 26.8759 67.393C26.3843 65.1407 26.3344 63.0576 26.4475 61.7908C26.4966 61.2407 26.9824 60.8346 27.5325 60.8837Z" fill="#CB9B1F"/>
<path d="M32.75 80.4735C32.75 81.1121 32.1904 81.6298 31.5 81.6298C30.8096 81.6298 30.25 81.1121 30.25 80.4735C30.25 79.8349 30.8096 79.3173 31.5 79.3173C32.1904 79.3173 32.75 79.8349 32.75 80.4735Z" fill="#CCA238"/>
<path d="M35.4375 83.9735C35.4375 84.6121 34.8779 85.1298 34.1875 85.1298C33.4971 85.1298 32.9375 84.6121 32.9375 83.9735C32.9375 83.3349 33.4971 82.8173 34.1875 82.8173C34.8779 82.8173 35.4375 83.3349 35.4375 83.9735Z" fill="#CCA238"/>
<path d="M31.4662 84.2235C31.4662 85.1728 30.6343 85.9423 29.6081 85.9423C28.5819 85.9423 27.75 85.1728 27.75 84.2235C27.75 83.2743 28.5819 82.5048 29.6081 82.5048C30.6343 82.5048 31.4662 83.2743 31.4662 84.2235Z" fill="#CCA238"/>
<path d="M39.6078 80.4735C39.6078 81.4228 38.7759 82.1923 37.7496 82.1923C36.7234 82.1923 35.8915 81.4228 35.8915 80.4735C35.8915 79.5243 36.7234 78.7548 37.7496 78.7548C38.7759 78.7548 39.6078 79.5243 39.6078 80.4735Z" fill="#CCA238"/>
<path d="M37.6969 77.036C37.6969 77.4847 37.3037 77.8485 36.8186 77.8485C36.3334 77.8485 35.9402 77.4847 35.9402 77.036C35.9402 76.5873 36.3334 76.2235 36.8186 76.2235C37.3037 76.2235 37.6969 76.5873 37.6969 77.036Z" fill="#CCA238"/>
<path d="M41.521 78.5048C41.521 78.9535 41.1278 79.3173 40.6427 79.3173C40.1575 79.3173 39.7643 78.9535 39.7643 78.5048C39.7643 78.056 40.1575 77.6923 40.6427 77.6923C41.1278 77.6923 41.521 78.056 41.521 78.5048Z" fill="#CCA238"/>
<path d="M42.6866 74.4423C42.6866 74.891 42.2933 75.2548 41.8082 75.2548C41.3231 75.2548 40.9298 74.891 40.9298 74.4423C40.9298 73.9935 41.3231 73.6298 41.8082 73.6298C42.2933 73.6298 42.6866 73.9935 42.6866 74.4423Z" fill="#CCA238"/>
<path d="M44.3738 80.1141C44.3738 80.5629 43.9805 80.9266 43.4954 80.9266C43.0103 80.9266 42.617 80.5629 42.617 80.1141C42.617 79.6654 43.0103 79.3016 43.4954 79.3016C43.9805 79.3016 44.3738 79.6654 44.3738 80.1141Z" fill="#CCA238"/>
<path d="M38.9585 85.2238C38.9585 85.6725 38.5653 86.0363 38.0802 86.0363C37.595 86.0363 37.2018 85.6725 37.2018 85.2238C37.2018 84.775 37.595 84.4113 38.0802 84.4113C38.5653 84.4113 38.9585 84.775 38.9585 85.2238Z" fill="#CCA238"/>
<path d="M33.2568 86.8488C33.2568 87.2975 32.8635 87.6613 32.3784 87.6613C31.8933 87.6613 31.5 87.2975 31.5 86.8488C31.5 86.4 31.8933 86.0363 32.3784 86.0363C32.8635 86.0363 33.2568 86.4 33.2568 86.8488Z" fill="#CCA238"/>
<path d="M25.3532 82.8173C25.3532 83.266 24.9599 83.6298 24.4748 83.6298C23.9897 83.6298 23.5964 83.266 23.5964 82.8173C23.5964 82.3685 23.9897 82.0048 24.4748 82.0048C24.9599 82.0048 25.3532 82.3685 25.3532 82.8173Z" fill="#CCA238"/>
<path d="M29.1537 81.1923C29.1537 81.641 28.7605 82.0048 28.2754 82.0048C27.7902 82.0048 27.397 81.641 27.397 81.1923C27.397 80.7435 27.7902 80.3798 28.2754 80.3798C28.7605 80.3798 29.1537 80.7435 29.1537 81.1923Z" fill="#CCA238"/>
<path d="M46.0753 77.5829C46.0753 78.0316 45.682 78.3954 45.1969 78.3954C44.7118 78.3954 44.3185 78.0316 44.3185 77.5829C44.3185 77.1342 44.7118 76.7704 45.1969 76.7704C45.682 76.7704 46.0753 77.1342 46.0753 77.5829Z" fill="#CCA238"/>
<path d="M33.2989 77.5829C33.2989 77.8849 33.0342 78.1298 32.7077 78.1298C32.3812 78.1298 32.1165 77.8849 32.1165 77.5829C32.1165 77.2809 32.3812 77.036 32.7077 77.036C33.0342 77.036 33.2989 77.2809 33.2989 77.5829Z" fill="#CCA238"/>
<path d="M29.6081 78.6766C29.6081 78.9787 29.3434 79.2235 29.0169 79.2235C28.6904 79.2235 28.4257 78.9787 28.4257 78.6766C28.4257 78.3746 28.6904 78.1298 29.0169 78.1298C29.3434 78.1298 29.6081 78.3746 29.6081 78.6766Z" fill="#CCA238"/>
<path d="M35.0284 80.9266C35.0284 81.2287 34.7637 81.4735 34.4372 81.4735C34.1106 81.4735 33.8459 81.2287 33.8459 80.9266C33.8459 80.6246 34.1106 80.3798 34.4372 80.3798C34.7637 80.3798 35.0284 80.6246 35.0284 80.9266Z" fill="#CCA238"/>
<path d="M42.1122 83.0516C42.1122 83.3537 41.8475 83.5985 41.521 83.5985C41.1945 83.5985 40.9298 83.3537 40.9298 83.0516C40.9298 82.7496 41.1945 82.5048 41.521 82.5048C41.8475 82.5048 42.1122 82.7496 42.1122 83.0516Z" fill="#CCA238"/>
<path d="M35.8915 87.6613C35.8915 87.9633 35.6268 88.2081 35.3003 88.2081C34.9738 88.2081 34.7091 87.9633 34.7091 87.6613C34.7091 87.3592 34.9738 87.1144 35.3003 87.1144C35.6268 87.1144 35.8915 87.3592 35.8915 87.6613Z" fill="#CCA238"/>
<path d="M40.1409 75.9889C40.1409 76.2909 39.8762 76.5358 39.5497 76.5358C39.2232 76.5358 38.9585 76.2909 38.9585 75.9889C38.9585 75.6869 39.2232 75.442 39.5497 75.442C39.8762 75.442 40.1409 75.6869 40.1409 75.9889Z" fill="#CCA238"/>
</svg>
