<svg width="96" height="88" viewBox="0 0 96 88" fill="none" xmlns="http://www.w3.org/2000/svg">
<path fill-rule="evenodd" clip-rule="evenodd" d="M63.2448 44.178C63.2448 42.6685 64.5879 41.4447 66.2448 41.4447C74.0834 41.4447 80.4378 47.2343 80.4378 54.3761C80.4378 61.518 74.0834 67.3076 66.2448 67.3076C64.5879 67.3076 63.2448 66.0838 63.2448 64.5743C63.2448 63.0647 64.5879 61.8409 66.2448 61.8409C70.7696 61.8409 74.4378 58.4988 74.4378 54.3761C74.4378 50.2535 70.7696 46.9114 66.2448 46.9114C64.5879 46.9114 63.2448 45.6876 63.2448 44.178Z" fill="#E88C20"/>
<path fill-rule="evenodd" clip-rule="evenodd" d="M75.4376 56.3068C75.9622 56.4641 76.2475 56.9791 76.0749 57.4571C74.2761 62.4367 69.2423 64.2042 65.8209 64.6238C65.2736 64.6909 64.7701 64.3411 64.6964 63.8424C64.6228 63.3437 65.0067 62.885 65.5541 62.8179C68.6327 62.4403 72.7239 60.905 74.1751 56.8874C74.3478 56.4094 74.913 56.1495 75.4376 56.3068Z" fill="#B26A16"/>
<path fill-rule="evenodd" clip-rule="evenodd" d="M68.9581 43.7243C69.1455 43.251 69.7185 43.0056 70.2381 43.1763C71.9701 43.7455 75.8315 45.7589 77.8676 49.4451C78.1159 49.8945 77.9173 50.4423 77.4239 50.6685C76.9306 50.8947 76.3294 50.7137 76.0811 50.2643C74.342 47.116 70.9716 45.3545 69.5595 44.8905C69.04 44.7198 68.7707 44.1977 68.9581 43.7243Z" fill="#FDB055"/>
<path d="M18.5621 35.1899C18.5621 35.1899 23.2593 40.3283 42.0477 40.3283C60.8362 40.3283 65.5334 35.1899 65.5334 35.1899V67.8036C65.5334 71.6021 63.8395 75.2911 60.0125 76.7978C56.2685 78.2718 50.4496 79.7223 42.0477 79.7223C33.6459 79.7223 27.827 78.2718 24.083 76.7978C20.256 75.2911 18.5621 71.6021 18.5621 67.8036V35.1899Z" fill="#EF2F15"/>
<path fill-rule="evenodd" clip-rule="evenodd" d="M17.8815 33.4764C18.6609 33.2194 19.532 33.4273 20.0732 33.9961C20.0734 33.9963 20.0736 33.9965 20.0739 33.9968C20.0842 34.0067 20.114 34.0349 20.1657 34.0789C20.2689 34.1667 20.4603 34.3184 20.7587 34.5142C21.3544 34.9052 22.3846 35.4774 24.0024 36.0673C27.24 37.2479 32.8495 38.506 42.0477 38.506C51.246 38.506 56.8555 37.2479 60.0931 36.0673C61.7109 35.4774 62.7411 34.9052 63.3368 34.5142C63.6352 34.3184 63.8266 34.1667 63.9298 34.0789C63.9815 34.0349 64.0113 34.0067 64.0216 33.9968C64.0219 33.9965 64.0221 33.9963 64.0223 33.9961C64.5635 33.4273 65.4346 33.2194 66.214 33.4764C67.0058 33.7375 67.5334 34.4226 67.5334 35.1899V67.8036C67.5334 72.0056 65.6435 76.5658 60.8058 78.4704C56.7996 80.0476 50.7095 81.5445 42.0477 81.5445C33.386 81.5445 27.2959 80.0476 23.2897 78.4704C18.452 76.5658 16.5621 72.0056 16.5621 67.8036V35.1899C16.5621 34.4226 17.0897 33.7375 17.8815 33.4764ZM63.5334 36.5689C64.9899 35.7844 65.5334 35.1899 65.5334 35.1899V67.8036C65.5334 71.602 63.8395 75.291 60.0125 76.7977C56.2685 78.2717 50.4496 79.7222 42.0477 79.7222C33.6459 79.7222 27.827 78.2717 24.083 76.7977C20.256 75.291 18.5621 71.602 18.5621 67.8036V35.1899C18.5621 35.1899 19.1056 35.7844 20.5621 36.5689C23.3878 38.0909 29.65 40.3282 42.0477 40.3282C54.4455 40.3282 60.7077 38.0909 63.5334 36.5689Z" fill="#8E1707"/>
<path d="M65.5334 68.1763V36.4155C65.5334 36.4155 63.7259 38.8857 57.5452 40.3193L57.5878 77.5634C58.9803 77.1465 60.1692 76.6691 61.1702 76.1862C64.319 74.6673 65.5334 71.4225 65.5334 68.1763Z" fill="#CF2109"/>
<path d="M59.6695 74.2539C59.6695 75.087 58.9282 75.7624 58.0138 75.7624C57.0994 75.7624 56.3582 75.087 56.3582 74.2539C56.3582 73.4207 57.0994 72.7454 58.0138 72.7454C58.9282 72.7454 59.6695 73.4207 59.6695 74.2539Z" fill="#9F1603"/>
<path d="M62.9119 72.3053C62.9119 72.9302 62.3559 73.4367 61.6701 73.4367C60.9843 73.4367 60.4283 72.9302 60.4283 72.3053C60.4283 71.6805 60.9843 71.174 61.6701 71.174C62.3559 71.174 62.9119 71.6805 62.9119 72.3053Z" fill="#9F1603"/>
<path d="M57.8759 70.1055C57.8759 70.7303 57.3199 71.2369 56.6341 71.2369C55.9483 71.2369 55.3923 70.7303 55.3923 70.1055C55.3923 69.4807 55.9483 68.9741 56.6341 68.9741C57.3199 68.9741 57.8759 69.4807 57.8759 70.1055Z" fill="#9F1603"/>
<path d="M62.8429 64.8257C62.8429 65.4506 62.2869 65.9571 61.6011 65.9571C60.9153 65.9571 60.3594 65.4506 60.3594 64.8257C60.3594 64.2009 60.9153 63.6943 61.6011 63.6943C62.2869 63.6943 62.8429 64.2009 62.8429 64.8257Z" fill="#9F1603"/>
<path d="M59.5315 65.957C59.5315 66.3736 59.1609 66.7113 58.7037 66.7113C58.2465 66.7113 57.8759 66.3736 57.8759 65.957C57.8759 65.5404 58.2465 65.2028 58.7037 65.2028C59.1609 65.2028 59.5315 65.5404 59.5315 65.957Z" fill="#9F1603"/>
<path d="M62.8428 61.4315C62.8428 61.8481 62.4722 62.1858 62.015 62.1858C61.5578 62.1858 61.1871 61.8481 61.1871 61.4315C61.1871 61.0149 61.5578 60.6772 62.015 60.6772C62.4722 60.6772 62.8428 61.0149 62.8428 61.4315Z" fill="#9F1603"/>
<path d="M61.946 68.5341C61.946 69.1589 61.3901 69.6655 60.7043 69.6655C60.0185 69.6655 59.4625 69.1589 59.4625 68.5341C59.4625 67.9092 60.0185 67.4027 60.7043 67.4027C61.3901 67.4027 61.946 67.9092 61.946 68.5341Z" fill="#9F1603"/>
<path d="M60.3594 61.8086C60.3594 62.4335 59.8034 62.94 59.1176 62.94C58.4318 62.94 57.8759 62.4335 57.8759 61.8086C57.8759 61.1838 58.4318 60.6772 59.1176 60.6772C59.8034 60.6772 60.3594 61.1838 60.3594 61.8086Z" fill="#9F1603"/>
<path d="M62.0151 58.4145C62.0151 58.8311 61.6444 59.1688 61.1872 59.1688C60.73 59.1688 60.3594 58.8311 60.3594 58.4145C60.3594 57.998 60.73 57.6603 61.1872 57.6603C61.6444 57.6603 62.0151 57.998 62.0151 58.4145Z" fill="#9F1603"/>
<path d="M54.6335 74.9452C54.6335 75.3617 54.2628 75.6994 53.8056 75.6994C53.3484 75.6994 52.9778 75.3617 52.9778 74.9452C52.9778 74.5286 53.3484 74.1909 53.8056 74.1909C54.2628 74.1909 54.6335 74.5286 54.6335 74.9452Z" fill="#9F1603"/>
<path fill-rule="evenodd" clip-rule="evenodd" d="M24.0413 43.9286C25.6981 43.9286 27.0413 45.1523 27.0413 46.6619V59.7356C27.0413 61.2452 25.6981 62.469 24.0413 62.469C22.3844 62.469 21.0413 61.2452 21.0413 59.7356V46.6619C21.0413 45.1523 22.3844 43.9286 24.0413 43.9286Z" fill="#FF6853"/>
<path fill-rule="evenodd" clip-rule="evenodd" d="M23.1444 45.2952C23.9728 45.2952 24.6444 45.907 24.6444 46.6618V49.9303C24.6444 50.6851 23.9728 51.2969 23.1444 51.2969C22.316 51.2969 21.6444 50.6851 21.6444 49.9303V46.6618C21.6444 45.907 22.316 45.2952 23.1444 45.2952Z" fill="white"/>
<path d="M65.5334 34.7814C65.5334 38.3916 55.0185 41.3182 42.0477 41.3182C29.077 41.3182 18.5621 38.3916 18.5621 34.7814C18.5621 31.1712 29.077 28.2445 42.0477 28.2445C55.0185 28.2445 65.5334 31.1712 65.5334 34.7814Z" fill="#F9CC2D"/>
<path fill-rule="evenodd" clip-rule="evenodd" d="M59.2389 41.1463C54.7519 42.3952 48.6744 43.1404 42.0477 43.1404C35.4211 43.1404 29.3436 42.3952 24.8566 41.1463C22.6255 40.5253 20.6743 39.749 19.2367 38.803C17.8452 37.8873 16.5621 36.5522 16.5621 34.7813C16.5621 33.0105 17.8452 31.6754 19.2367 30.7597C20.6743 29.8137 22.6255 29.0373 24.8566 28.4163C29.3436 27.1675 35.4211 26.4222 42.0477 26.4222C48.6744 26.4222 54.7519 27.1675 59.2389 28.4163C61.47 29.0373 63.4212 29.8137 64.8588 30.7597C66.2503 31.6754 67.5334 33.0105 67.5334 34.7813C67.5334 36.5522 66.2503 37.8873 64.8588 38.803C63.4212 39.749 61.47 40.5253 59.2389 41.1463ZM42.0477 41.3182C55.0185 41.3182 65.5334 38.3915 65.5334 34.7813C65.5334 31.1711 55.0185 28.2445 42.0477 28.2445C29.077 28.2445 18.5621 31.1711 18.5621 34.7813C18.5621 38.3915 29.077 41.3182 42.0477 41.3182Z" fill="#8E1707"/>
<path fill-rule="evenodd" clip-rule="evenodd" d="M54.698 31.073C54.7784 30.5751 55.2865 30.2309 55.8329 30.3041C56.8212 30.4365 58.2183 30.9025 59.4828 31.3823C60.7786 31.8741 62.0482 32.4249 62.827 32.7845C63.3196 33.012 63.5165 33.5603 63.2669 34.0091C63.0172 34.458 62.4154 34.6374 61.9228 34.4099C61.1807 34.0672 59.9566 33.5361 58.7138 33.0645C57.4399 32.5811 56.2536 32.2023 55.5419 32.107C54.9955 32.0337 54.6177 31.5708 54.698 31.073Z" fill="#FFF6A6"/>
<path d="M26.8623 29.7946C21.7846 30.9936 18.5621 32.7827 18.5621 34.7813C18.5621 37.4579 24.3418 39.7588 32.6169 40.7698C31.132 38.4443 27.9022 32.9935 26.8623 29.7946Z" fill="#E79E11"/>
<path fill-rule="evenodd" clip-rule="evenodd" d="M20.2693 37.2326C23.7533 34.837 32.1915 33.1471 42.0477 33.1471C51.904 33.1471 60.3422 34.837 63.8262 37.2326C60.3422 39.6283 51.904 41.3182 42.0477 41.3182C32.1915 41.3182 23.7533 39.6283 20.2693 37.2326Z" fill="#4F2201"/>
<path fill-rule="evenodd" clip-rule="evenodd" d="M44.0621 36.4444C44.0621 35.9412 44.5098 35.5333 45.0621 35.5333C49.1767 35.5333 54.5977 36.463 56.787 36.9233C57.3251 37.0365 57.6607 37.5257 57.5365 38.016C57.4123 38.5063 56.8754 38.812 56.3373 38.6989C54.1932 38.2481 48.9476 37.3555 45.0621 37.3555C44.5098 37.3555 44.0621 36.9476 44.0621 36.4444Z" fill="#B75209"/>
<path fill-rule="evenodd" clip-rule="evenodd" d="M46.8121 40.0889C47.3644 40.0889 47.8121 40.4968 47.8121 41V50.1111C47.8121 50.6143 47.3644 51.0222 46.8121 51.0222C46.2598 51.0222 45.8121 50.6143 45.8121 50.1111V41C45.8121 40.4968 46.2598 40.0889 46.8121 40.0889Z" fill="#49580C"/>
<path fill-rule="evenodd" clip-rule="evenodd" d="M46.8121 41.9111C47.3644 41.9111 47.8121 42.3191 47.8121 42.8222V44.6445C47.8121 45.1477 47.3644 45.5556 46.8121 45.5556C46.2598 45.5556 45.8121 45.1477 45.8121 44.6445V42.8222C45.8121 42.3191 46.2598 41.9111 46.8121 41.9111Z" fill="#667A12"/>
<path d="M40.5621 54.8136L46.823 50.1111L52.5621 54.8136V64.6889C52.5621 64.6889 48.9376 65.6 46.5621 65.6C44.1867 65.6 40.5621 64.6889 40.5621 64.6889V54.8136Z" fill="#4BEA31"/>
<path fill-rule="evenodd" clip-rule="evenodd" d="M46.1869 49.408C46.5688 49.1212 47.1236 49.132 47.4917 49.4336L53.2308 54.1361C53.4417 54.3089 53.5621 54.5552 53.5621 54.8136V64.6888C53.5621 65.0987 53.2617 65.4581 52.8281 65.5671L52.5621 64.6888V54.8136L46.823 50.1111L40.5621 54.8136V64.6888L40.2962 65.5671C39.8625 65.4581 39.5621 65.0987 39.5621 64.6888V54.8136C39.5621 54.5415 39.6956 54.2836 39.926 54.1105L46.1869 49.408ZM40.5621 64.6888C40.2962 65.5671 40.2961 65.5671 40.2962 65.5671L40.2975 65.5675L40.3092 65.5704L40.3428 65.5787C40.3717 65.5858 40.4138 65.5961 40.4677 65.609C40.5754 65.6349 40.7308 65.6715 40.9242 65.7154C41.3106 65.8029 41.8509 65.9196 42.4679 66.0365C43.6827 66.2665 45.2664 66.5111 46.5621 66.5111C47.8578 66.5111 49.4415 66.2665 50.6564 66.0365C51.2734 65.9196 51.8137 65.8029 52.2001 65.7154C52.3935 65.6715 52.5488 65.6349 52.6566 65.609C52.7105 65.5961 52.7525 65.5858 52.7815 65.5787L52.815 65.5704L52.8268 65.5675L52.8281 65.5671C52.8282 65.5671 52.8281 65.5671 52.5621 64.6888C52.5621 64.6888 48.9376 65.6 46.5621 65.6C44.1867 65.6 40.5621 64.6888 40.5621 64.6888Z" fill="#1F7810"/>
<path d="M48.4371 54.5527C42.7871 56.375 42.2496 60.7027 43.8746 61.7562C45.4996 62.8097 47.2803 62.1637 48.2496 60.0763C48.9371 58.5958 48.6871 56.4604 48.4371 54.5527Z" fill="#34C71C"/>
<path fill-rule="evenodd" clip-rule="evenodd" d="M41.2902 6.59042C41.9897 6.18604 42.9166 6.37489 43.3604 7.01222L42.0939 7.7444C43.3604 7.01222 43.3607 7.01265 43.361 7.01308L43.3617 7.01398L43.363 7.01589L43.3659 7.02012L43.3728 7.03029L43.391 7.0574C43.4049 7.07847 43.4223 7.10553 43.4428 7.13845C43.4838 7.20428 43.537 7.2937 43.5981 7.40571C43.7203 7.62955 43.8747 7.94489 44.0265 8.34353C44.3301 9.14087 44.6249 10.2765 44.6249 11.6792C44.6249 13.4575 43.9371 14.4356 43.4165 15.176C43.4 15.1995 43.3836 15.2227 43.3675 15.2458C43.123 15.5943 42.9747 15.8245 42.8757 16.0956C42.7828 16.3498 42.7124 16.7038 42.7596 17.2654C42.8337 18.1476 42.9885 18.6128 43.1175 18.8704C43.2334 19.1018 43.3569 19.2301 43.573 19.4285C43.5926 19.4464 43.6141 19.4659 43.6371 19.4867C43.87 19.6974 44.266 20.0554 44.5537 20.5909C44.8741 21.187 45.0163 21.8937 45.0231 22.7916C45.0302 23.7321 44.8643 24.4784 44.5374 25.1114C44.2229 25.7205 43.7997 26.1347 43.5171 26.4114L43.5007 26.4275C43.2013 26.7207 43.0687 26.8588 42.9663 27.0485C42.8745 27.2187 42.7639 27.52 42.7639 28.1193C42.7639 28.7647 42.9917 29.2676 43.3629 30.0318C43.3716 30.0496 43.3803 30.0675 43.389 30.0855C43.7438 30.815 44.2186 31.7915 44.2186 33.0572C44.2186 34.2 44.0319 35.0852 43.8285 35.709C43.727 36.0201 43.622 36.2645 43.5353 36.4418C43.4919 36.5304 43.4532 36.6023 43.4218 36.6574C43.4061 36.6849 43.3922 36.7082 43.3805 36.7273L43.3646 36.7529L43.358 36.7633L43.355 36.7679L43.353 36.7711C43.3526 36.7716 43.3523 36.7721 42.0626 36.0743L43.3523 36.7721C42.9293 37.4211 42.0089 37.6347 41.2967 37.2493C40.592 36.868 40.3549 36.0432 40.7596 35.3972C40.7597 35.3971 40.7595 35.3973 40.7596 35.3972C40.7641 35.3894 40.7768 35.3665 40.795 35.3294C40.8312 35.2552 40.8902 35.1223 40.9527 34.9305C41.0774 34.5483 41.2186 33.925 41.2186 33.0572C41.2186 32.4066 40.99 31.9004 40.6196 31.1381C40.6103 31.1188 40.6008 31.0994 40.5913 31.0798C40.2376 30.3526 39.7639 29.3787 39.7639 28.1193C39.7639 27.1957 39.9388 26.4637 40.2743 25.8422C40.5833 25.2697 40.9935 24.8691 41.2638 24.6052C41.2777 24.5916 41.2912 24.5785 41.3043 24.5657C41.5896 24.2863 41.7223 24.1426 41.8229 23.9477C41.9174 23.7648 42.0279 23.4414 42.0231 22.8105C42.0181 22.1525 41.9133 21.8932 41.8593 21.7928C41.8013 21.6848 41.7467 21.6321 41.4437 21.3539C41.1392 21.0744 40.7231 20.6738 40.3881 20.0049C40.0662 19.362 39.8592 18.5555 39.7683 17.474C39.6943 16.5935 39.796 15.8708 40.0293 15.2322C40.2564 14.6105 40.5885 14.1319 40.8396 13.7739C40.855 13.7519 40.8702 13.7303 40.8853 13.7088C41.3261 13.0815 41.6249 12.6563 41.6249 11.6792C41.6249 10.6278 41.4042 9.79596 41.1923 9.23944C41.0863 8.96116 40.983 8.75295 40.9118 8.62249C40.8762 8.55734 40.8489 8.51192 40.8335 8.48718C40.8267 8.47625 40.8222 8.4694 40.8205 8.4667C40.3856 7.83055 40.5943 6.9927 41.2902 6.59042Z" fill="#BEDAFD"/>
<path fill-rule="evenodd" clip-rule="evenodd" d="M34.5347 9.72309C34.2153 9.31255 33.5912 9.21562 33.1406 9.50659L33.7188 10.2499C33.1406 9.50659 33.1403 9.50678 33.14 9.50699L33.1393 9.50742L33.1378 9.50837L33.1344 9.51061L33.1255 9.51649L33.0998 9.53376C33.0792 9.54772 33.0521 9.56658 33.0192 9.59022C32.9535 9.63745 32.8646 9.70418 32.7602 9.78953C32.5525 9.95935 32.2775 10.2078 32.0016 10.5281C31.4563 11.1613 30.8579 12.135 30.8579 13.3697C30.858 14.7705 31.5941 15.5476 32.106 16.0882C32.1357 16.1195 32.1646 16.15 32.1926 16.1798C32.451 16.4551 32.5982 16.634 32.6852 16.8308C32.761 17.0021 32.8149 17.2454 32.7344 17.6574C32.6337 18.1722 32.478 18.4782 32.3271 18.6885C32.1754 18.9001 32.0085 19.0486 31.7643 19.2659C31.7488 19.2797 31.7329 19.2938 31.7167 19.3083C31.4588 19.5381 31.1159 19.8498 30.8605 20.3139C30.601 20.7851 30.4666 21.3437 30.4597 22.0541C30.4524 22.8054 30.6238 23.3955 30.9459 23.883C31.2468 24.3384 31.6443 24.6425 31.919 24.8526C31.9251 24.8573 31.9312 24.8619 31.9371 24.8665C32.24 25.0983 32.3992 25.2264 32.5162 25.3957C32.6143 25.5378 32.7189 25.7675 32.7189 26.2187C32.7189 26.7034 32.4991 27.089 32.1214 27.6968C32.1114 27.7128 32.1014 27.7289 32.0912 27.7453C31.7425 28.3054 31.2642 29.0738 31.2642 30.078C31.2642 31.1362 31.7577 31.9303 32.2225 32.4398C32.4549 32.6946 32.6868 32.8862 32.8632 33.0161C32.9519 33.0814 33.0282 33.1322 33.0857 33.1686C33.1145 33.1869 33.1388 33.2016 33.1577 33.2128L33.1821 33.227L33.1911 33.2321L33.1948 33.2342L33.1965 33.2352L33.1972 33.2356C33.1976 33.2358 33.198 33.236 33.6898 32.5017L33.198 33.236C33.6694 33.4981 34.2848 33.3624 34.5725 32.9329C34.8586 32.5056 34.7128 31.9487 34.2473 31.6848C34.2449 31.6833 34.2379 31.6791 34.2271 31.6723C34.205 31.6583 34.1676 31.6337 34.12 31.5986C34.0236 31.5277 33.8918 31.4189 33.7606 31.275C33.498 30.9872 33.2642 30.5912 33.2642 30.078C33.2642 29.5892 33.4849 29.201 33.8617 28.5947C33.8723 28.5776 33.8831 28.5603 33.894 28.5428C34.2417 27.9844 34.7189 27.218 34.7189 26.2187C34.7189 25.4797 34.5381 24.9018 34.2089 24.4252C33.914 23.9982 33.5292 23.7045 33.2643 23.5024C33.2504 23.4918 33.2368 23.4814 33.2236 23.4712C32.9309 23.2472 32.7731 23.1153 32.6594 22.9432C32.5601 22.793 32.455 22.547 32.4597 22.0702C32.4646 21.5645 32.5577 21.2951 32.6482 21.1308C32.7426 20.9592 32.872 20.8277 33.1151 20.611C33.1353 20.593 33.1564 20.5743 33.1784 20.5549C33.4069 20.3526 33.7239 20.0722 34.0013 19.6854C34.3159 19.2468 34.5611 18.7049 34.7034 17.977C34.8417 17.2694 34.7725 16.675 34.5404 16.1499C34.3195 15.6504 33.9742 15.2742 33.7126 14.9955C33.6947 14.9764 33.6769 14.9576 33.6595 14.939C33.1617 14.4095 32.8579 14.0863 32.8579 13.3697C32.8579 12.6864 33.19 12.1002 33.5751 11.653C33.7644 11.4331 33.9547 11.2612 34.0959 11.1458C34.166 11.0885 34.2224 11.0464 34.2585 11.0204C34.2766 11.0074 34.2894 10.9986 34.2961 10.994L34.3012 10.9906C34.7483 10.6988 34.8531 10.1324 34.5347 9.72309Z" fill="#A2C1E7"/>
<path fill-rule="evenodd" clip-rule="evenodd" d="M52.4873 12.4191C52.4872 12.4193 52.4875 12.4189 52.4873 12.4191C52.7659 11.9854 52.6069 11.4273 52.1312 11.1727C51.6551 10.9178 51.0422 11.0629 50.7625 11.4967L51.6134 11.9522C50.7625 11.4967 50.7626 11.4965 50.7625 11.4967L50.7612 11.4987L50.7593 11.5017L50.7539 11.5102L50.7366 11.5378C50.7223 11.5608 50.7027 11.593 50.6785 11.6336C50.6301 11.7149 50.5636 11.8306 50.4857 11.9756C50.3305 12.2648 50.1283 12.6748 49.9368 13.1648C49.5605 14.1276 49.1935 15.4794 49.3824 16.8547C49.5548 18.1096 50.2427 19.1079 50.7912 19.9038C50.8422 19.9779 50.8921 20.0501 50.9401 20.1207C51.5415 21.0035 51.9231 21.673 51.876 22.5029C51.8321 23.2771 51.4237 23.8788 50.8258 24.6934C50.8049 24.7219 50.7837 24.7507 50.7623 24.7798C50.2084 25.5327 49.5031 26.4916 49.3786 27.7649C49.2505 29.0762 49.7521 30.2584 50.2289 31.0656C50.4721 31.4772 50.7219 31.8134 50.912 32.0482C51.0074 32.166 51.0889 32.2595 51.1484 32.3256C51.1781 32.3586 51.2025 32.3849 51.2205 32.4039L51.2425 32.4271L51.2498 32.4346L51.2524 32.4373L51.2535 32.4384C51.2537 32.4386 51.2544 32.4393 51.9997 31.8319L51.2544 32.4393C51.6226 32.8144 52.2548 32.8464 52.6664 32.5109C53.0779 32.1756 53.1132 31.5998 52.7454 31.2248L52.7378 31.2168C52.7291 31.2075 52.7143 31.1916 52.6943 31.1695C52.6544 31.1252 52.5943 31.0564 52.5213 30.9662C52.3743 30.7848 52.179 30.5219 51.99 30.202C51.6026 29.5461 51.2917 28.7353 51.3707 27.9266C51.4476 27.1401 51.8817 26.5328 52.4883 25.7064L52.5079 25.6797C53.0756 24.9064 53.7982 23.922 53.8733 22.5969C53.9555 21.1476 53.2426 20.0453 52.6394 19.1598C52.5998 19.1017 52.5607 19.0444 52.5222 18.988C51.9382 18.1336 51.482 17.4661 51.3669 16.6284C51.2337 15.6585 51.4916 14.6187 51.8209 13.7761C51.9822 13.3634 52.1529 13.0173 52.2824 12.7761C52.3469 12.6559 52.4006 12.5628 52.437 12.5016C52.4552 12.471 52.469 12.4485 52.4776 12.4346L52.4865 12.4205L52.4873 12.4191Z" fill="#A2C1E7"/>
</svg>
