<svg width="96" height="96" viewBox="0 0 96 96" fill="none" xmlns="http://www.w3.org/2000/svg">
<path fill-rule="evenodd" clip-rule="evenodd" d="M71.6728 52.3998C72.1182 61.657 64.2127 70.9448 52.5494 74.1132C40.9277 77.2703 29.5033 73.2844 25.238 65.1142C23.2667 65.6269 21.2971 64.6233 20.8249 62.8569C20.3527 61.0905 21.5554 59.2252 23.5153 58.6699C23.1308 49.4456 31.0215 40.2127 42.6432 37.0556C54.3063 33.8872 65.7708 37.913 70 46.1422C71.6614 46.0627 73.1641 47.016 73.5685 48.5288C73.9729 50.0416 73.1489 51.6269 71.6728 52.3998Z" fill="#FFD12F"/>
<path fill-rule="evenodd" clip-rule="evenodd" d="M73.6727 53.442C73.513 63.5052 64.8686 72.838 53.0656 76.0443C41.4002 79.2133 29.4234 75.646 24.168 67.2431C21.8318 67.2223 19.571 65.8526 18.9093 63.3773C18.2476 60.9021 19.5196 58.5726 21.5291 57.3713C21.8846 47.4442 30.4615 38.2935 42.1269 35.1245C53.9298 31.9181 66.0554 35.6085 71.2096 44.2281C73.1551 44.5723 74.9182 45.8913 75.4842 48.0084C76.0501 50.1255 75.1832 52.159 73.6727 53.442ZM71.6728 52.3998C72.1182 61.657 64.2126 70.9448 52.5494 74.1132C40.9277 77.2703 29.5033 73.2844 25.238 65.1142C23.2667 65.6269 21.2971 64.6233 20.8249 62.8569C20.3527 61.0905 21.5554 59.2252 23.5153 58.6699C23.1308 49.4456 31.0215 40.2127 42.6431 37.0556C54.3063 33.8872 65.7708 37.913 69.9999 46.1422C71.6614 46.0627 73.1641 47.016 73.5685 48.5288C73.9729 50.0416 73.1489 51.6269 71.6728 52.3998Z" fill="#755F13"/>
<path d="M45.5769 44.7301C46.9922 47.8576 44.367 52.1277 39.7134 54.2678C35.0598 56.4078 30.14 55.6074 28.7248 52.4799C27.3095 49.3524 29.9347 45.0823 34.5883 42.9423C39.2419 40.8022 44.1617 41.6027 45.5769 44.7301Z" fill="#FFEA2F"/>
<path d="M24.2238 60.2726C24.5418 60.9755 24.1693 61.8352 23.3916 62.1928C22.614 62.5504 21.7257 62.2706 21.4076 61.5677C21.0896 60.8648 21.4621 60.0051 22.2398 59.6475C23.0174 59.2899 23.9057 59.5698 24.2238 60.2726Z" fill="#FFEA2F"/>
<path fill-rule="evenodd" clip-rule="evenodd" d="M45.4658 68.5124C58.7059 64.9157 67.3804 54.2988 64.841 44.7991C64.0903 41.9911 62.4439 39.595 60.155 37.7055C64.5242 39.4158 68.0395 42.3273 70 46.1422C71.6615 46.0627 73.1641 47.016 73.5685 48.5288C73.9729 50.0415 73.1489 51.6269 71.6728 52.3997C72.1182 61.6569 64.2127 70.9447 52.5494 74.1131C42.4612 76.8536 32.5215 74.2118 27.2843 68.1228C32.4357 70.018 38.8956 70.2973 45.4658 68.5124Z" fill="#DEB523"/>
<path d="M64.3542 56.7555C63.6877 57.4906 62.5562 57.5418 61.827 56.8699C61.0978 56.198 61.047 55.0574 61.7136 54.3223C62.3801 53.5872 63.5115 53.536 64.2407 54.2079C64.9699 54.8798 65.0207 56.0204 64.3542 56.7555Z" fill="#C89616"/>
<path d="M65.9014 62.0671C65.2349 62.8022 64.1035 62.8534 63.3743 62.1815C62.6451 61.5096 62.5943 60.369 63.2608 59.6339C63.9273 58.8989 65.0588 58.8477 65.788 59.5196C66.5171 60.1915 66.5679 61.3321 65.9014 62.0671Z" fill="#C89616"/>
<path d="M69.1635 57.1332C68.6636 57.6845 67.815 57.7229 67.2682 57.219C66.7213 56.715 66.6832 55.8596 67.1831 55.3083C67.683 54.757 68.5315 54.7186 69.0784 55.2225C69.6253 55.7264 69.6634 56.5819 69.1635 57.1332Z" fill="#C89616"/>
<path d="M61.6774 66.7256C61.0109 67.4607 59.8795 67.5119 59.1503 66.84C58.4211 66.1681 58.3703 65.0275 59.0368 64.2924C59.7033 63.5573 60.8348 63.5061 61.564 64.178C62.2931 64.8499 62.3439 65.9905 61.6774 66.7256Z" fill="#C89616"/>
<path d="M60.1302 60.4138C59.4637 61.1489 58.3323 61.2001 57.6031 60.5282C56.8739 59.8563 56.8231 58.7157 57.4896 57.9806C58.1561 57.2456 59.2876 57.1943 60.0168 57.8663C60.746 58.5382 60.7968 59.6787 60.1302 60.4138Z" fill="#C89616"/>
<path d="M55.8058 69.5163C54.9321 70.4798 53.4492 70.5469 52.4934 69.6662C51.5377 68.7856 51.4711 67.2906 52.3447 66.3271C53.2183 65.3637 54.7013 65.2966 55.657 66.1772C56.6128 67.0579 56.6794 68.5529 55.8058 69.5163Z" fill="#C89616"/>
<path d="M48.4869 71.9298C47.8203 72.6649 46.6889 72.7161 45.9597 72.0442C45.2305 71.3723 45.1797 70.2317 45.8463 69.4966C46.5128 68.7615 47.6442 68.7103 48.3734 69.3822C49.1026 70.0541 49.1534 71.1947 48.4869 71.9298Z" fill="#C89616"/>
<path d="M53.8448 62.9513C53.3346 63.514 52.4685 63.5532 51.9103 63.0388C51.3521 62.5245 51.3132 61.6514 51.8235 61.0888C52.3337 60.5261 53.1997 60.4869 53.7579 61.0012C54.3161 61.5155 54.355 62.3886 53.8448 62.9513Z" fill="#C89616"/>
<path d="M50.4628 67.4543C50.0516 67.9077 49.3537 67.9393 48.9039 67.5249C48.4541 67.1104 48.4228 66.4069 48.8339 65.9534C49.2451 65.5 49.943 65.4684 50.3928 65.8829C50.8426 66.2973 50.8739 67.0009 50.4628 67.4543Z" fill="#C89616"/>
<path d="M41.5731 72.9888C41.0732 73.5401 40.2246 73.5785 39.6777 73.0746C39.1308 72.5706 39.0927 71.7152 39.5926 71.1639C40.0925 70.6126 40.9411 70.5742 41.488 71.0781C42.0349 71.582 42.073 72.4375 41.5731 72.9888Z" fill="#C89616"/>
<path fill-rule="evenodd" clip-rule="evenodd" d="M36.6837 46.4719C37.1737 47.4598 36.7764 48.6612 35.7964 49.1551C35.0116 49.5507 34.3839 50.0627 33.8857 50.6904C33.2013 51.5529 31.9528 51.6928 31.0971 51.0027C30.2415 50.3127 30.1028 49.0541 30.7873 48.1916C31.6612 47.0904 32.7486 46.2192 34.0219 45.5774C35.0019 45.0834 36.1936 45.4839 36.6837 46.4719Z" fill="white"/>
<path fill-rule="evenodd" clip-rule="evenodd" d="M69.8861 51.483C71.5474 51.483 72.8942 50.1253 72.8942 48.4506C72.8942 47.9251 72.7616 47.4309 72.5283 47C73.4632 47.5143 74.0974 48.5143 74.0974 49.6636C74.0974 51.3383 72.7507 52.6959 71.0894 52.6959C69.9493 52.6959 68.9574 52.0566 68.4471 51.1142C68.8746 51.3493 69.3649 51.483 69.8861 51.483Z" fill="#AE8C14"/>
</svg>
