<svg width="96" height="97" viewBox="0 0 96 97" fill="none" xmlns="http://www.w3.org/2000/svg">
<path d="M29.728 44.5552C29.4957 44.0541 29.7136 43.4596 30.2146 43.2274C30.7157 42.9951 31.3102 43.2129 31.5425 43.714L45.8428 74.5604C46.0751 75.0614 45.8572 75.6559 45.3562 75.8882C44.8551 76.1205 44.2606 75.9026 44.0283 75.4016L29.728 44.5552Z" fill="#FAF4C6"/>
<path fill-rule="evenodd" clip-rule="evenodd" d="M33.3569 42.8728L47.6573 73.7192C48.3542 75.2223 47.7005 77.0058 46.1974 77.7027C44.6942 78.3996 42.9107 77.7459 42.2138 76.2428L27.9135 45.3964C27.2166 43.8932 27.8702 42.1097 29.3734 41.4128C30.8766 40.716 32.6601 41.3696 33.3569 42.8728ZM31.5425 43.714L45.8428 74.5604C46.0751 75.0614 45.8572 75.6559 45.3562 75.8882C44.8551 76.1205 44.2606 75.9026 44.0283 75.4016L29.728 44.5552C29.4957 44.0541 29.7136 43.4596 30.2146 43.2273C30.7157 42.995 31.3102 43.2129 31.5425 43.714Z" fill="#E0B16A"/>
<path fill-rule="evenodd" clip-rule="evenodd" d="M34.395 47.4894C34.896 47.2571 35.4905 47.475 35.7228 47.976L42.6627 62.9456C42.895 63.4467 42.6771 64.0412 42.1761 64.2734C41.675 64.5057 41.0805 64.2879 40.8482 63.7868L33.9083 48.8172C33.676 48.3162 33.8939 47.7217 34.395 47.4894Z" fill="#D09741"/>
<path d="M38.578 32.7367C41.3655 38.7494 38.7509 45.8834 32.7382 48.6708C26.7255 51.4583 19.5915 48.8438 16.804 42.8311C14.0166 36.8184 16.6311 29.6844 22.6438 26.8969C28.6565 24.1094 35.7905 26.724 38.578 32.7367Z" fill="#9ED83F"/>
<path fill-rule="evenodd" clip-rule="evenodd" d="M40.3925 31.8955C43.6445 38.9103 40.5942 47.2332 33.5794 50.4853C26.5646 53.7374 18.2416 50.687 14.9895 43.6722C11.7375 36.6574 14.7878 28.3344 21.8026 25.0824C28.8174 21.8303 37.1404 24.8806 40.3925 31.8955ZM32.7382 48.6708C38.7509 45.8833 41.3654 38.7494 38.578 32.7367C35.7905 26.724 28.6565 24.1094 22.6438 26.8969C16.6311 29.6844 14.0166 36.8183 16.804 42.831C19.5915 48.8437 26.7255 51.4583 32.7382 48.6708Z" fill="#5A8C07"/>
<path fill-rule="evenodd" clip-rule="evenodd" d="M29.239 49.6869C34.002 45.5812 35.6792 38.6689 32.9031 32.6809C31.4788 29.6086 29.1113 27.2737 26.3046 25.861C31.311 25.2779 36.3424 27.9144 38.578 32.7367C41.3655 38.7494 38.7509 45.8834 32.7382 48.6708C31.5996 49.1987 30.4208 49.5328 29.239 49.6869Z" fill="#78B710"/>
<path d="M35.6074 42.4107C35.9259 42.984 35.7194 43.7069 35.1461 44.0255C34.5728 44.344 33.8499 44.1375 33.5313 43.5642C33.2128 42.9909 33.4193 42.268 33.9926 41.9494C34.5659 41.6309 35.2888 41.8374 35.6074 42.4107Z" fill="#66A107"/>
<path d="M38.1658 37.8789C38.5598 38.5879 38.3044 39.4821 37.5953 39.8761C36.8862 40.2701 35.992 40.0147 35.5981 39.3056C35.2041 38.5965 35.4595 37.7023 36.1686 37.3084C36.8776 36.9144 37.7718 37.1698 38.1658 37.8789Z" fill="#66A107"/>
<path d="M33.6314 46.318C33.8549 46.7203 33.71 47.2277 33.3077 47.4513C32.9053 47.6749 32.3979 47.5299 32.1743 47.1276C31.9508 46.7252 32.0957 46.2178 32.4981 45.9943C32.9004 45.7707 33.4078 45.9156 33.6314 46.318Z" fill="#66A107"/>
<path d="M38.0285 41.4705C38.2521 41.8728 38.1072 42.3802 37.7048 42.6038C37.3025 42.8273 36.795 42.6824 36.5715 42.28C36.3479 41.8777 36.4929 41.3703 36.8952 41.1467C37.2976 40.9232 37.805 41.0681 38.0285 41.4705Z" fill="#66A107"/>
<path d="M34.3345 39.2809C34.558 39.6833 34.4131 40.1907 34.0107 40.4143C33.6084 40.6378 33.101 40.4929 32.8774 40.0905C32.6539 39.6882 32.7988 39.1808 33.2012 38.9572C33.6035 38.7336 34.1109 38.8786 34.3345 39.2809Z" fill="#66A107"/>
<path d="M32.1211 43.9427C32.3446 44.3451 32.1997 44.8525 31.7973 45.0761C31.395 45.2996 30.8876 45.1547 30.664 44.7523C30.4404 44.35 30.5854 43.8426 30.9877 43.619C31.3901 43.3954 31.8975 43.5404 32.1211 43.9427Z" fill="#66A107"/>
<path d="M38.3592 34.795C38.5828 35.1974 38.4379 35.7048 38.0355 35.9284C37.6331 36.1519 37.1257 36.007 36.9022 35.6046C36.6786 35.2023 36.8235 34.6949 37.2259 34.4713C37.6283 34.2477 38.1357 34.3927 38.3592 34.795Z" fill="#66A107"/>
<path d="M30.5161 47.1927C30.6555 47.4436 30.5651 47.76 30.3142 47.8994C30.0633 48.0389 29.7469 47.9485 29.6074 47.6975C29.468 47.4466 29.5584 47.1302 29.8093 46.9908C30.0603 46.8514 30.3767 46.9418 30.5161 47.1927Z" fill="#66A107"/>
<path fill-rule="evenodd" clip-rule="evenodd" d="M38.7738 33.1822C35.7597 35.648 32.1431 37.9244 28.0786 39.8087C24.3739 41.5262 20.661 42.7492 17.1327 43.4876C17.0174 43.2735 16.9077 43.0546 16.804 42.8311C14.0166 36.8184 16.6311 29.6844 22.6438 26.8969C28.6565 24.1094 35.7905 26.724 38.578 32.7367C38.6465 32.8845 38.7118 33.033 38.7738 33.1822Z" fill="#68EDFF"/>
<path fill-rule="evenodd" clip-rule="evenodd" d="M33.6967 36.79C33.4923 35.9456 33.2038 35.1128 32.8273 34.3006C31.0042 30.368 27.4782 27.6983 23.3148 26.61C29.1779 24.3075 35.8935 26.9463 38.578 32.7368C38.6465 32.8846 38.7118 33.0331 38.7738 33.1822C37.2321 34.4434 35.5329 35.655 33.6967 36.79Z" fill="#29C5DB"/>
<path fill-rule="evenodd" clip-rule="evenodd" d="M40.8819 30.7274C41.2764 31.1139 41.283 31.747 40.8966 32.1416C31.9704 41.2549 19.8421 43.9854 14.8255 44.2175C14.2738 44.243 13.8058 43.8165 13.7803 43.2648C13.7548 42.7131 14.1813 42.2452 14.733 42.2197C19.4005 42.0037 30.9913 39.3963 39.4678 30.7421C39.8542 30.3475 40.4873 30.341 40.8819 30.7274Z" fill="#5A8C07"/>
<path fill-rule="evenodd" clip-rule="evenodd" d="M21.6278 30.2069C22.0746 30.5315 22.1737 31.1568 21.8492 31.6037C21.4777 32.1151 20.9085 33.0962 20.4868 34.2916C20.064 35.49 19.8166 36.8268 19.999 38.0826C20.0784 38.6292 19.6997 39.1366 19.1532 39.216C18.6066 39.2954 18.0992 38.9167 18.0198 38.3701C17.7747 36.6828 18.1151 35.0029 18.6007 33.6262C19.0875 32.2465 19.7475 31.094 20.231 30.4283C20.5556 29.9815 21.1809 29.8823 21.6278 30.2069Z" fill="white"/>
<path d="M66.884 44.9643C67.1601 44.486 67.7717 44.3221 68.25 44.5983C68.7283 44.8744 68.8922 45.486 68.616 45.9643L51.616 75.4092C51.3399 75.8874 50.7283 76.0513 50.25 75.7752C49.7717 75.499 49.6078 74.8874 49.884 74.4092L66.884 44.9643Z" fill="#E9CB91"/>
<path fill-rule="evenodd" clip-rule="evenodd" d="M70.3481 46.9643L53.3481 76.4092C52.5197 77.844 50.6849 78.3357 49.25 77.5072C47.8151 76.6788 47.3235 74.844 48.1519 73.4092L65.1519 43.9643C65.9804 42.5294 67.8151 42.0378 69.25 42.8662C70.6849 43.6946 71.1765 45.5294 70.3481 46.9643ZM68.616 45.9643L51.616 75.4092C51.3399 75.8874 50.7283 76.0513 50.25 75.7752C49.7717 75.499 49.6079 74.8874 49.884 74.4092L66.884 44.9643C67.1601 44.486 67.7717 44.3221 68.25 44.5983C68.7283 44.8744 68.8922 45.486 68.616 45.9643Z" fill="#C19149"/>
<path fill-rule="evenodd" clip-rule="evenodd" d="M67.1696 50.4697C67.6478 50.7458 67.8117 51.3574 67.5356 51.8357L59.2856 66.1251C59.0094 66.6034 58.3978 66.7673 57.9196 66.4911C57.4413 66.215 57.2774 65.6034 57.5535 65.1251L65.8035 50.8357C66.0797 50.3574 66.6913 50.1935 67.1696 50.4697Z" fill="#AB7729"/>
<path d="M81.6423 45.4021C78.3286 51.1416 70.9895 53.1081 65.25 49.7944C59.5105 46.4807 57.544 39.1416 60.8577 33.4021C64.1714 27.6626 71.5105 25.6961 77.25 29.0098C82.9895 32.3235 84.956 39.6626 81.6423 45.4021Z" fill="#FE531D"/>
<path fill-rule="evenodd" clip-rule="evenodd" d="M83.3744 46.4021C79.5084 53.0982 70.9461 55.3925 64.25 51.5265C57.5539 47.6605 55.2596 39.0982 59.1256 32.4021C62.9916 25.706 71.5539 23.4118 78.25 27.2778C84.9461 31.1438 87.2403 39.706 83.3744 46.4021ZM65.25 49.7944C70.9895 53.1081 78.3286 51.1416 81.6423 45.4021C84.956 39.6626 82.9895 32.3235 77.25 29.0098C71.5105 25.6961 64.1714 27.6626 60.8577 33.4021C57.544 39.1416 59.5105 46.4807 65.25 49.7944Z" fill="#AC1703"/>
<path fill-rule="evenodd" clip-rule="evenodd" d="M62.4056 47.5172C68.5041 49.0503 75.1226 46.4447 78.4227 40.7287C80.1158 37.7961 80.6632 34.5163 80.2036 31.4078C83.5612 35.1669 84.2999 40.799 81.6423 45.4022C78.3286 51.1417 70.9895 53.1082 65.25 49.7945C64.1631 49.167 63.2116 48.3951 62.4056 47.5172Z" fill="#D7320E"/>
<path d="M71.9339 48.3789C71.6436 48.9669 70.9315 49.2083 70.3434 48.9179C69.7553 48.6276 69.514 47.9155 69.8043 47.3274C70.0947 46.7394 70.8068 46.498 71.3948 46.7884C71.9829 47.0787 72.2243 47.7908 71.9339 48.3789Z" fill="#B92607"/>
<path d="M77.1165 47.9056C76.7574 48.6329 75.8766 48.9314 75.1493 48.5723C74.4219 48.2132 74.1234 47.3325 74.4825 46.6051C74.8416 45.8778 75.7224 45.5793 76.4497 45.9384C77.1771 46.2975 77.4756 47.1782 77.1165 47.9056Z" fill="#B92607"/>
<path d="M67.5963 48.976C67.3925 49.3888 66.8927 49.5582 66.48 49.3544C66.0673 49.1506 65.8979 48.6508 66.1017 48.2381C66.3054 47.8254 66.8052 47.656 67.218 47.8598C67.6307 48.0635 67.8001 48.5633 67.5963 48.976Z" fill="#B92607"/>
<path d="M74.0844 49.8355C73.8806 50.2482 73.3808 50.4176 72.9681 50.2138C72.5554 50.01 72.386 49.5103 72.5897 49.0975C72.7935 48.6848 73.2933 48.5154 73.706 48.7192C74.1188 48.923 74.2881 49.4227 74.0844 49.8355Z" fill="#B92607"/>
<path d="M73.7841 45.5517C73.5803 45.9644 73.0805 46.1338 72.6678 45.9301C72.2551 45.7263 72.0857 45.2265 72.2895 44.8138C72.4933 44.4011 72.993 44.2317 73.4058 44.4354C73.8185 44.6392 73.9879 45.139 73.7841 45.5517Z" fill="#B92607"/>
<path d="M68.6909 46.3828C68.4871 46.7956 67.9873 46.965 67.5746 46.7612C67.1619 46.5574 66.9925 46.0576 67.1962 45.6449C67.4 45.2322 67.8998 45.0628 68.3125 45.2666C68.7253 45.4703 68.8946 45.9701 68.6909 46.3828Z" fill="#B92607"/>
<path d="M79.7629 46.3106C79.5591 46.7234 79.0594 46.8927 78.6466 46.689C78.2339 46.4852 78.0645 45.9854 78.2683 45.5727C78.4721 45.16 78.9719 44.9906 79.3846 45.1943C79.7973 45.3981 79.9667 45.8979 79.7629 46.3106Z" fill="#B92607"/>
<path d="M65.105 46.9112C64.9779 47.1686 64.6662 47.2742 64.4088 47.1472C64.1514 47.0201 64.0458 46.7084 64.1729 46.451C64.3 46.1936 64.6116 46.088 64.869 46.2151C65.1264 46.3422 65.232 46.6538 65.105 46.9112Z" fill="#B92607"/>
<path fill-rule="evenodd" clip-rule="evenodd" d="M81.3907 45.8186C77.6396 44.7723 73.6968 43.1242 69.817 40.8842C66.2806 38.8424 63.1439 36.5096 60.5099 34.0487C60.6186 33.8312 60.7345 33.6155 60.8577 33.4021C64.1714 27.6626 71.5105 25.6961 77.25 29.0098C82.9895 32.3235 84.956 39.6626 81.6423 45.4021C81.5608 45.5433 81.4769 45.6821 81.3907 45.8186Z" fill="#FBA72A"/>
<path fill-rule="evenodd" clip-rule="evenodd" d="M75.5185 43.7422C76.0916 43.0891 76.6067 42.374 77.0543 41.5987C79.2216 37.8449 79.3763 33.4249 77.8707 29.3936C83.1275 32.8639 84.8334 39.8749 81.6422 45.4023C81.5607 45.5433 81.4768 45.6821 81.3906 45.8186C79.472 45.2835 77.5033 44.5909 75.5185 43.7422Z" fill="#E08A09"/>
<path fill-rule="evenodd" clip-rule="evenodd" d="M84.6113 46.1303C84.5222 46.6754 84.0082 47.0451 83.4631 46.956C70.8735 44.8994 61.6616 36.5511 58.5852 32.5817C58.2469 32.1452 58.3265 31.517 58.7631 31.1787C59.1996 30.8404 59.8277 30.92 60.166 31.3565C63.0283 35.0497 71.8302 43.0291 83.7856 44.9822C84.3306 45.0712 84.7003 45.5853 84.6113 46.1303Z" fill="#AC1703"/>
<path fill-rule="evenodd" clip-rule="evenodd" d="M73.9582 30.0834C73.9498 30.6356 73.4954 31.0765 72.9432 31.0682C72.3111 31.0586 71.1813 31.1576 69.9609 31.5006C68.7375 31.8444 67.5018 32.4112 66.5797 33.283C66.1784 33.6624 65.5454 33.6446 65.166 33.2433C64.7866 32.842 64.8044 32.2091 65.2057 31.8296C66.4447 30.6583 68.0144 29.9701 69.4199 29.5751C70.8284 29.1794 72.1507 29.056 72.9734 29.0684C73.5256 29.0767 73.9665 29.5312 73.9582 30.0834Z" fill="white"/>
<path d="M47 41.3926C47 40.8403 47.4477 40.3926 48 40.3926C48.5523 40.3926 49 40.8403 49 41.3926V75.3926C49 75.9449 48.5523 76.3926 48 76.3926C47.4477 76.3926 47 75.9449 47 75.3926V41.3926Z" fill="#FAF4C6"/>
<path fill-rule="evenodd" clip-rule="evenodd" d="M51 41.3926V75.3926C51 77.0494 49.6569 78.3926 48 78.3926C46.3431 78.3926 45 77.0494 45 75.3926V41.3926C45 39.7357 46.3431 38.3926 48 38.3926C49.6569 38.3926 51 39.7357 51 41.3926ZM49 41.3926V75.3926C49 75.9449 48.5523 76.3926 48 76.3926C47.4477 76.3926 47 75.9449 47 75.3926V41.3926C47 40.8403 47.4477 40.3926 48 40.3926C48.5523 40.3926 49 40.8403 49 41.3926Z" fill="#E0B16A"/>
<path fill-rule="evenodd" clip-rule="evenodd" d="M50 46.0176C50.5523 46.0176 51 46.4653 51 47.0176V63.5176C51 64.0699 50.5523 64.5176 50 64.5176C49.4477 64.5176 49 64.0699 49 63.5176V47.0176C49 46.4653 49.4477 46.0176 50 46.0176Z" fill="#D09741"/>
<path d="M60 34.3926C60 41.02 54.6274 46.3926 48 46.3926C41.3726 46.3926 36 41.02 36 34.3926C36 27.7652 41.3726 22.3926 48 22.3926C54.6274 22.3926 60 27.7652 60 34.3926Z" fill="#FFAEE8"/>
<path fill-rule="evenodd" clip-rule="evenodd" d="M62 34.3926C62 42.1246 55.732 48.3926 48 48.3926C40.268 48.3926 34 42.1246 34 34.3926C34 26.6606 40.268 20.3926 48 20.3926C55.732 20.3926 62 26.6606 62 34.3926ZM48 46.3926C54.6274 46.3926 60 41.02 60 34.3926C60 27.7652 54.6274 22.3926 48 22.3926C41.3726 22.3926 36 27.7652 36 34.3926C36 41.02 41.3726 46.3926 48 46.3926Z" fill="#B63C94"/>
<path fill-rule="evenodd" clip-rule="evenodd" d="M44.398 45.8426C50.4461 44.1211 54.875 38.5553 54.875 31.9551C54.875 28.5687 53.7091 25.4547 51.7569 22.9924C56.5442 24.5692 60 29.0773 60 34.3926C60 41.02 54.6274 46.3926 48 46.3926C46.745 46.3926 45.535 46.1999 44.398 45.8426Z" fill="#E972C7"/>
<path fill-rule="evenodd" clip-rule="evenodd" d="M59.9903 34.8791C56.2186 35.8485 51.98 36.3926 47.5 36.3926C43.4165 36.3926 39.5336 35.9406 36.0221 35.1265C36.0074 34.8837 36 34.639 36 34.3926C36 27.7652 41.3726 22.3926 48 22.3926C54.6274 22.3926 60 27.7652 60 34.3926C60 34.5555 59.9967 34.7177 59.9903 34.8791Z" fill="#FFD568"/>
<path fill-rule="evenodd" clip-rule="evenodd" d="M53.8666 36.0169C54.0364 35.1648 54.125 34.2879 54.125 33.3927C54.125 29.0581 52.0489 25.153 48.7294 22.4146C55.0171 22.7916 60 28.0103 60 34.3927C60 34.5556 59.9967 34.7178 59.9903 34.8791C58.0612 35.3749 56.0099 35.7595 53.8666 36.0169Z" fill="#F5B350"/>
<path d="M52.625 41.6426C52.625 42.2984 52.0933 42.8301 51.4375 42.8301C50.7817 42.8301 50.25 42.2984 50.25 41.6426C50.25 40.9867 50.7817 40.4551 51.4375 40.4551C52.0933 40.4551 52.625 40.9867 52.625 41.6426Z" fill="#C751A6"/>
<path d="M57.0625 38.9238C57.0625 39.735 56.4049 40.3926 55.5938 40.3926C54.7826 40.3926 54.125 39.735 54.125 38.9238C54.125 38.1127 54.7826 37.4551 55.5938 37.4551C56.4049 37.4551 57.0625 38.1127 57.0625 38.9238Z" fill="#C751A6"/>
<path d="M49 44.0983C49 44.5586 48.6269 44.9318 48.1666 44.9318C47.7063 44.9318 47.3331 44.5586 47.3331 44.0983C47.3331 43.638 47.7063 43.2649 48.1666 43.2649C48.6269 43.2649 49 43.638 49 44.0983Z" fill="#C751A6"/>
<path d="M55.1981 41.9966C55.1981 42.4569 54.8249 42.8301 54.3647 42.8301C53.9044 42.8301 53.5312 42.4569 53.5312 41.9966C53.5312 41.5363 53.9044 41.1632 54.3647 41.1632C54.8249 41.1632 55.1981 41.5363 55.1981 41.9966Z" fill="#C751A6"/>
<path d="M53.0324 38.2885C53.0324 38.7488 52.6593 39.1219 52.199 39.1219C51.7387 39.1219 51.3656 38.7488 51.3656 38.2885C51.3656 37.8282 51.7387 37.4551 52.199 37.4551C52.6593 37.4551 53.0324 37.8282 53.0324 38.2885Z" fill="#C751A6"/>
<path d="M48.8334 41.2885C48.8334 41.7488 48.4603 42.1219 48 42.1219C47.5397 42.1219 47.1666 41.7488 47.1666 41.2885C47.1666 40.8282 47.5397 40.4551 48 40.4551C48.4603 40.4551 48.8334 40.8282 48.8334 41.2885Z" fill="#C751A6"/>
<path d="M58.7294 36.3221C58.7294 36.7824 58.3562 37.1555 57.8959 37.1555C57.4356 37.1555 57.0625 36.7824 57.0625 36.3221C57.0625 35.8618 57.4356 35.4886 57.8959 35.4886C58.3562 35.4886 58.7294 35.8618 58.7294 36.3221Z" fill="#C751A6"/>
<path d="M45.852 43.3498C45.852 43.6369 45.6193 43.8696 45.3322 43.8696C45.0452 43.8696 44.8125 43.6369 44.8125 43.3498C44.8125 43.0628 45.0452 42.8301 45.3322 42.8301C45.6193 42.8301 45.852 43.0628 45.852 43.3498Z" fill="#C751A6"/>
<path fill-rule="evenodd" clip-rule="evenodd" d="M62.9353 33.5388C63.1307 34.0553 62.8704 34.6325 62.3538 34.8279C50.4225 39.3416 38.2707 36.7178 33.6218 34.8183C33.1105 34.6094 32.8654 34.0256 33.0743 33.5144C33.2832 33.0031 33.867 32.758 34.3782 32.9669C38.7036 34.7341 50.3159 37.2436 61.6462 32.9573C62.1627 32.7619 62.7399 33.0222 62.9353 33.5388Z" fill="#B63C94"/>
<path fill-rule="evenodd" clip-rule="evenodd" d="M45.686 24.9682C45.9549 25.4506 45.7818 26.0597 45.2993 26.3286C44.7472 26.6363 43.8182 27.287 42.9328 28.1942C42.0452 29.1036 41.2585 30.2123 40.8958 31.4284C40.7379 31.9576 40.1809 32.2587 39.6517 32.1009C39.1224 31.943 38.8214 31.386 38.9792 30.8568C39.4665 29.2228 40.4819 27.842 41.5015 26.7972C42.5234 25.7502 43.607 24.9822 44.3256 24.5816C44.808 24.3127 45.4171 24.4858 45.686 24.9682Z" fill="white"/>
</svg>
