<svg width="96" height="96" viewBox="0 0 96 96" fill="none" xmlns="http://www.w3.org/2000/svg">
<path d="M23.3685 48.4543C31.2693 33.1268 43.5155 33.377 48.651 35.418L65.2426 49.6395C66.296 54.3141 66.3092 65.2435 57.9343 71.5641C49.5595 77.8847 34.6271 78.6748 26.1338 74.7244C19.3391 65.5595 21.4591 53.3923 23.3685 48.4543Z" fill="#EA6C25"/>
<path fill-rule="evenodd" clip-rule="evenodd" d="M49.3896 33.5594C49.5948 33.6409 49.785 33.7559 49.9525 33.8995L66.5441 48.1209C66.8712 48.4012 67.0989 48.7796 67.1936 49.1997C67.7797 51.8005 68.0574 56.0006 67.0765 60.418C66.0895 64.8632 63.7976 69.6446 59.1392 73.1604C54.5598 76.6166 48.3322 78.4743 42.2469 78.9887C36.1638 79.503 29.9368 78.699 25.2903 76.5378C24.988 76.3972 24.7257 76.1833 24.5271 75.9155C20.8112 70.9033 19.5728 65.1247 19.4874 60.0378C19.4022 54.9633 20.4598 50.4312 21.5031 47.733C21.5288 47.6665 21.5581 47.6013 21.5908 47.5379C25.7513 39.4666 31.168 35.3129 36.4017 33.5298C41.5716 31.7684 46.4079 32.3744 49.3896 33.5594ZM26.1338 74.7244C19.3391 65.5595 21.4591 53.3923 23.3685 48.4543C31.2693 33.1268 43.5155 33.377 48.651 35.418L65.2426 49.6394C66.296 54.314 66.3092 65.2434 57.9343 71.5641C49.5595 77.8847 34.6271 78.6748 26.1338 74.7244Z" fill="#923805"/>
<path d="M42.8484 54.63C40.7292 60.9095 35.0873 64.6757 30.2469 63.0421C25.4065 61.4085 23.2005 54.9938 25.3198 48.7143C27.439 42.4349 33.0809 38.6686 37.9213 40.3022C42.7618 41.9358 44.9677 48.3506 42.8484 54.63Z" fill="#FD8542"/>
<path fill-rule="evenodd" clip-rule="evenodd" d="M34.2393 76.8807C42.2711 77.8348 51.8394 76.1641 57.9344 71.5641C66.3092 65.2435 66.296 54.3141 65.2426 49.6395L48.651 35.418C46.3382 34.4989 42.5833 33.9429 38.4326 35.0094C38.8729 35.1328 39.2804 35.2708 39.651 35.418L56.2426 49.6395C57.296 54.3141 57.3092 65.2435 48.9344 71.5641C45.0245 74.5149 39.6853 76.2604 34.2393 76.8807Z" fill="#CB5817"/>
<path fill-rule="evenodd" clip-rule="evenodd" d="M35.3225 41.3063C35.6366 41.7606 35.5229 42.3835 35.0686 42.6975C31.982 44.8315 25.5935 52.5887 26.3732 65.9417C26.4054 66.493 25.9846 66.9661 25.4332 66.9983C24.8819 67.0305 24.4088 66.6096 24.3766 66.0583C23.5564 52.0112 30.2679 43.5851 33.9313 41.0524C34.3855 40.7383 35.0084 40.852 35.3225 41.3063Z" fill="#FFC09D"/>
<path d="M69.3905 20.604C60.8576 23.1322 57.4076 31.1384 56.7492 34.8254L59.317 36.9981C61.8452 30.6775 66.082 29.2456 69.3905 28.7023C72.3928 28.5443 72.3939 30.1035 74.526 30.6775C78.6344 31.7836 80.1882 29.2948 80.4516 27.9122C80.4516 24.0608 77.9233 18.0757 69.3905 20.604Z" fill="#85360A"/>
<path fill-rule="evenodd" clip-rule="evenodd" d="M55.4573 36.3521C54.9129 35.8915 54.655 35.1758 54.7804 34.4738C55.5104 30.3859 59.2805 21.5136 68.8223 18.6864C73.5964 17.2718 77.1757 18.1434 79.5194 20.436C81.7232 22.5918 82.4516 25.6443 82.4516 27.9122C82.4516 28.0378 82.4397 28.1631 82.4162 28.2864C82.2051 29.3951 81.5126 30.8586 80.0803 31.8647C78.5702 32.9255 76.5176 33.2849 74.006 32.6087C72.7469 32.2697 71.8624 31.5985 71.3826 31.2345C71.2903 31.1644 71.213 31.1057 71.1508 31.063C70.9387 30.917 70.7853 30.8377 70.5995 30.7835C70.4157 30.7298 70.113 30.6763 69.601 30.6948C68.121 30.9464 66.5987 31.3771 65.1855 32.3377C63.7596 33.307 62.3058 34.9112 61.1739 37.7409C60.9352 38.3378 60.424 38.7835 59.8002 38.9388C59.1763 39.0942 58.5159 38.9401 58.0251 38.5249L55.4573 36.3521ZM69.3905 28.7023C71.2091 28.6066 71.9265 29.1409 72.6834 29.7048C73.1761 30.0717 73.6854 30.4512 74.526 30.6775C78.6344 31.7836 80.1882 29.2948 80.4516 27.9122C80.4516 24.0608 77.9233 18.0757 69.3905 20.604C60.8576 23.1322 57.4076 31.1383 56.7492 34.8254L59.317 36.9981C59.5897 36.3162 59.8823 35.6913 60.1915 35.1182C62.7485 30.3789 66.4389 29.187 69.3905 28.7023Z" fill="#4D1F05"/>
<path fill-rule="evenodd" clip-rule="evenodd" d="M71.8123 26.6693C71.8223 27.2215 71.3828 27.6773 70.8306 27.6873C68.7938 27.7244 63.5365 29.0239 59.8018 34.0351C59.4718 34.4779 58.8452 34.5693 58.4024 34.2393C57.9596 33.9093 57.8681 33.2828 58.1982 32.8399C62.3634 27.2511 68.2478 25.734 70.7943 25.6877C71.3465 25.6776 71.8023 26.1171 71.8123 26.6693Z" fill="#4D1F05"/>
<path fill-rule="evenodd" clip-rule="evenodd" d="M68.375 23.1051C71.6135 21.5939 74.5622 22.0824 75.7612 22.5992C76.2684 22.8178 76.5023 23.4062 76.2837 23.9134C76.0651 24.4205 75.4767 24.6545 74.9696 24.4359C74.2593 24.1297 71.9079 23.6635 69.2208 24.9175C68.7203 25.1511 68.1252 24.9347 67.8917 24.4342C67.6581 23.9337 67.8745 23.3387 68.375 23.1051Z" fill="#BE5B23"/>
<path d="M33 26.25C30.8668 31.7016 32.8612 34.0844 33.75 35.5C36.614 35.5 41.0588 38.2836 49.7497 44.8017C56.7607 50.06 64.0057 59.1613 65.125 63.375C66.7381 64.198 71.5 64.125 73.75 61.125C76.5772 57.3553 76.2831 54.4472 75.7235 52.4062C73.9063 46.0856 69.113 37.566 64.2674 33.2468C54.9276 24.9219 48.8612 23.1198 44.3264 21.7727L44.25 21.75C41.6164 20.9928 34.7608 21.75 33 26.25Z" fill="#863203"/>
<path fill-rule="evenodd" clip-rule="evenodd" d="M33.75 37.5C33.0619 37.5 32.4221 37.1462 32.0562 36.5635C32.0094 36.4889 31.9524 36.4023 31.8877 36.3041C31.4543 35.6456 30.6765 34.464 30.2952 32.8477C29.8423 30.9281 29.9516 28.5521 31.1375 25.5212C32.3425 22.4418 35.1988 20.8457 37.74 20.1079C40.2754 19.3717 43.0421 19.3217 44.8026 19.8278L44.8196 19.8328L44.896 19.8555C44.896 19.8555 44.896 19.8555 44.896 19.8555C49.6095 21.2557 55.9707 23.1725 65.5981 31.7538C68.232 34.1014 70.7648 37.5016 72.8559 41.0634C74.9531 44.6357 76.6815 48.5002 77.6456 51.8535L77.6523 51.8773C77.975 53.0542 78.249 54.5847 77.9863 56.4032C77.7227 58.228 76.9392 60.2061 75.35 62.325C73.818 64.3677 71.5209 65.3105 69.5406 65.6541C67.6305 65.9856 65.5502 65.8372 64.2161 65.1565C63.7101 64.8984 63.3378 64.4373 63.192 63.8884C62.9875 63.1186 62.4459 61.957 61.5359 60.4876C60.6452 59.0492 59.4695 57.4235 58.0982 55.7457C55.3484 52.3815 51.8983 48.9131 48.5497 46.4017C44.2073 43.1449 40.9997 40.878 38.547 39.4282C36.0314 37.9411 34.6054 37.5 33.75 37.5ZM44.3264 21.7727L44.25 21.75C41.6164 20.9928 34.7608 21.75 33 26.25C31.0202 31.3096 32.5957 33.7259 33.5431 35.1789C33.6165 35.2914 33.6861 35.3982 33.75 35.5C36.614 35.5 41.0588 38.2835 49.7497 44.8017C56.7607 50.0599 64.0057 59.1612 65.125 63.375C66.7381 64.198 71.5 64.125 73.75 61.125C76.5772 57.3553 76.2831 54.4472 75.7235 52.4062C73.9063 46.0855 69.113 37.5659 64.2674 33.2468C54.9276 24.9218 48.8612 23.1197 44.3264 21.7727Z" fill="#491C03"/>
<path fill-rule="evenodd" clip-rule="evenodd" d="M37.5943 26.0834C38.1005 23.6502 40.4834 22.0881 42.9166 22.5943C46.3977 23.3186 50.6263 24.7189 54.5081 26.9917C58.3704 29.2531 62.2056 32.5691 64.3442 37.2575C65.3756 39.5186 64.3787 42.1878 62.1175 43.2192C59.8563 44.2506 57.1872 43.2537 56.1558 40.9925C55.0443 38.5559 52.8587 36.4552 49.9606 34.7583C47.0819 33.0728 43.8106 31.9731 41.0834 31.4056C38.6502 30.8994 37.0881 28.5166 37.5943 26.0834Z" fill="#A84610"/>
<path fill-rule="evenodd" clip-rule="evenodd" d="M41.074 25.7222C41.1976 24.903 41.9619 24.3392 42.781 24.4629C46.0244 24.9524 53.2711 26.9825 59.1742 33.4127C59.7345 34.023 59.6939 34.9719 59.0836 35.5321C58.4734 36.0924 57.5245 36.0518 56.9643 35.4416C51.6674 29.6717 45.1434 27.8534 42.3333 27.4293C41.5141 27.3056 40.9503 26.5413 41.074 25.7222Z" fill="#D87138"/>
<path fill-rule="evenodd" clip-rule="evenodd" d="M37.6948 46.7578C37.8976 46.2441 38.4784 45.992 38.9922 46.1948C41.5249 47.1946 45.4415 49.7822 49.147 53.2027C52.8585 56.6287 56.4778 60.9992 58.3053 65.6331C58.5079 66.1469 58.2556 66.7276 57.7419 66.9302C57.2281 67.1329 56.6473 66.8806 56.4447 66.3668C54.7722 62.1257 51.3914 57.9963 47.7905 54.6723C44.1835 51.3428 40.4751 48.9304 38.2578 48.0551C37.7441 47.8523 37.4921 47.2715 37.6948 46.7578Z" fill="#DD621D"/>
<path fill-rule="evenodd" clip-rule="evenodd" d="M33.3332 51.2492C33.5667 50.7488 34.1618 50.5324 34.6623 50.7659C36.6515 51.6943 40.1259 53.9384 43.4976 57.2124C46.8722 60.4892 50.2139 64.8653 51.8302 70.0789C51.9937 70.6064 51.6986 71.1666 51.1711 71.3302C50.6436 71.4937 50.0834 71.1986 49.9198 70.6711C48.436 65.8847 45.335 61.7843 42.1043 58.6472C38.8706 55.5072 35.5772 53.4 33.8165 52.5783C33.316 52.3447 33.0996 51.7497 33.3332 51.2492Z" fill="#DD621D"/>
<path fill-rule="evenodd" clip-rule="evenodd" d="M30.4688 58.7021C30.7024 58.2016 31.2974 57.9853 31.7979 58.2188C35.755 60.0654 40.8103 63.8618 44.5382 72.2176C44.7632 72.7219 44.5368 73.3132 44.0324 73.5382C43.5281 73.7632 42.9368 73.5368 42.7118 73.0324C39.1897 65.1382 34.495 61.6845 30.9521 60.0312C30.4516 59.7976 30.2353 59.2026 30.4688 58.7021Z" fill="#DD621D"/>
<path d="M69.75 51.625C69.75 52.5915 69.0225 53.375 68.125 53.375C67.2275 53.375 66.5 52.5915 66.5 51.625C66.5 50.6585 67.2275 49.875 68.125 49.875C69.0225 49.875 69.75 50.6585 69.75 51.625Z" fill="#AD460C"/>
<path d="M61.9375 50.4102C61.9375 51.1072 61.4128 51.6722 60.7656 51.6722C60.1184 51.6722 59.5938 51.1072 59.5938 50.4102C59.5938 49.7132 60.1184 49.1482 60.7656 49.1482C61.4128 49.1482 61.9375 49.7132 61.9375 50.4102Z" fill="#AD460C"/>
<path d="M67.0938 47.5352C67.0938 48.2322 66.5691 48.7972 65.9219 48.7972C65.2747 48.7972 64.75 48.2322 64.75 47.5352C64.75 46.8382 65.2747 46.2732 65.9219 46.2732C66.5691 46.2732 67.0938 46.8382 67.0938 47.5352Z" fill="#AD460C"/>
<path d="M71.4375 46.7809C71.4375 47.4779 70.9128 48.043 70.2656 48.043C69.6184 48.043 69.0938 47.4779 69.0938 46.7809C69.0938 46.0839 69.6184 45.5189 70.2656 45.5189C70.9128 45.5189 71.4375 46.0839 71.4375 46.7809Z" fill="#AD460C"/>
<path d="M75.3317 54.8125C75.3317 55.779 74.6041 56.5625 73.7067 56.5625C72.8092 56.5625 72.0817 55.779 72.0817 54.8125C72.0817 53.846 72.8092 53.0625 73.7067 53.0625C74.6041 53.0625 75.3317 53.846 75.3317 54.8125Z" fill="#AD460C"/>
<path d="M69.3942 60.875C69.3942 61.8415 68.6666 62.625 67.7692 62.625C66.8717 62.625 66.1442 61.8415 66.1442 60.875C66.1442 59.9085 66.8717 59.125 67.7692 59.125C68.6666 59.125 69.3942 59.9085 69.3942 60.875Z" fill="#AD460C"/>
<path d="M73.5 50.629C73.5 51.2051 73.0663 51.6722 72.5312 51.6722C71.9962 51.6722 71.5625 51.2051 71.5625 50.629C71.5625 50.0528 71.9962 49.5857 72.5312 49.5857C73.0663 49.5857 73.5 50.0528 73.5 50.629Z" fill="#AD460C"/>
<path d="M73.0504 59.1251C73.0504 59.7012 72.6167 60.1683 72.0817 60.1683C71.5466 60.1683 71.1129 59.7012 71.1129 59.1251C71.1129 58.5489 71.5466 58.0818 72.0817 58.0818C72.6167 58.0818 73.0504 58.5489 73.0504 59.1251Z" fill="#AD460C"/>
<path d="M70.0625 56.2501C70.0625 56.8262 69.6288 57.2933 69.0938 57.2933C68.5587 57.2933 68.125 56.8262 68.125 56.2501C68.125 55.6739 68.5587 55.2068 69.0938 55.2068C69.6288 55.2068 70.0625 55.6739 70.0625 56.2501Z" fill="#AD460C"/>
<path d="M68.6004 43.9678C68.6004 44.3973 68.2771 44.7455 67.8783 44.7455C67.4795 44.7455 67.1562 44.3973 67.1562 43.9678C67.1562 43.5383 67.4795 43.1902 67.8783 43.1902C68.2771 43.1902 68.6004 43.5383 68.6004 43.9678Z" fill="#AD460C"/>
<path d="M62.75 46.3473C62.75 46.7768 62.4267 47.125 62.0279 47.125C61.6291 47.125 61.3058 46.7768 61.3058 46.3473C61.3058 45.9179 61.6291 45.5697 62.0279 45.5697C62.4267 45.5697 62.75 45.9179 62.75 46.3473Z" fill="#AD460C"/>
<path d="M57.4713 46.7576C57.4713 47.1871 57.148 47.5352 56.7492 47.5352C56.3505 47.5352 56.0272 47.1871 56.0272 46.7576C56.0272 46.3281 56.3505 45.98 56.7492 45.98C57.148 45.98 57.4713 46.3281 57.4713 46.7576Z" fill="#AD460C"/>
<path d="M64.75 54.7398C64.75 55.316 64.3163 55.7831 63.7812 55.7831C63.2462 55.7831 62.8125 55.316 62.8125 54.7398C62.8125 54.1636 63.2462 53.6965 63.7812 53.6965C64.3163 53.6965 64.75 54.1636 64.75 54.7398Z" fill="#AD460C"/>
</svg>
