<svg width="96" height="96" viewBox="0 0 96 96" fill="none" xmlns="http://www.w3.org/2000/svg">
<path d="M69.4391 60C69.4391 73.2548 58.78 84 45.6314 84C32.4828 84 21.8237 73.2548 21.8237 60C21.8237 46.7452 32.4828 36 45.6314 36C58.78 36 69.4391 46.7452 69.4391 60Z" fill="#FFAC2F"/>
<path fill-rule="evenodd" clip-rule="evenodd" d="M71.4231 60C71.4231 74.3594 59.8757 86 45.6314 86C31.387 86 19.8397 74.3594 19.8397 60C19.8397 45.6406 31.387 34 45.6314 34C59.8757 34 71.4231 45.6406 71.4231 60ZM45.6314 84C58.78 84 69.4391 73.2548 69.4391 60C69.4391 46.7452 58.78 36 45.6314 36C32.4828 36 21.8237 46.7452 21.8237 60C21.8237 73.2548 32.4828 84 45.6314 84Z" fill="#884A28"/>
<path fill-rule="evenodd" clip-rule="evenodd" d="M45.6314 84C58.78 84 69.4391 73.2548 69.4391 60C69.4391 46.7452 58.78 36 45.6314 36C44.686 36 43.7534 36.0556 42.8367 36.1636C51.8131 37.3715 58.7371 45.1206 58.7371 54.5C58.7371 64.7173 50.5208 73 40.3854 73C30.8327 73 22.9848 65.6423 22.1139 56.242C21.9229 57.4664 21.8237 58.7215 21.8237 60C21.8237 73.2548 32.4828 84 45.6314 84Z" fill="#FF862F"/>
<path d="M60.7238 53.8572C60.7238 54.9223 59.8673 55.7857 58.8107 55.7857C57.7541 55.7857 56.8976 54.9223 56.8976 53.8572C56.8976 52.792 57.7541 51.9286 58.8107 51.9286C59.8673 51.9286 60.7238 52.792 60.7238 53.8572Z" fill="#DD7429"/>
<path d="M66.4632 57.7143C66.4632 58.7795 65.6067 59.6429 64.5501 59.6429C63.4935 59.6429 62.637 58.7795 62.637 57.7143C62.637 56.6492 63.4935 55.7858 64.5501 55.7858C65.6067 55.7858 66.4632 56.6492 66.4632 57.7143Z" fill="#DD7429"/>
<path d="M65.5066 51.4464C65.5066 52.2453 64.8642 52.8929 64.0718 52.8929C63.2794 52.8929 62.637 52.2453 62.637 51.4464C62.637 50.6476 63.2794 50 64.0718 50C64.8642 50 65.5066 50.6476 65.5066 51.4464Z" fill="#DD7429"/>
<path d="M66.6731 66C66.6731 67.6569 65.3407 69 63.6972 69C62.0536 69 60.7212 67.6569 60.7212 66C60.7212 64.3431 62.0536 63 63.6972 63C65.3407 63 66.6731 64.3431 66.6731 66Z" fill="#DD7429"/>
<path d="M60.7238 60.6072C60.7238 61.6723 59.8673 62.5357 58.8107 62.5357C57.7541 62.5357 56.8976 61.6723 56.8976 60.6072C56.8976 59.542 57.7541 58.6786 58.8107 58.6786C59.8673 58.6786 60.7238 59.542 60.7238 60.6072Z" fill="#DD7429"/>
<path d="M62.6369 72.25C62.6369 73.3151 61.7804 74.1786 60.7238 74.1786C59.6672 74.1786 58.8107 73.3151 58.8107 72.25C58.8107 71.1849 59.6672 70.3214 60.7238 70.3214C61.7804 70.3214 62.6369 71.1849 62.6369 72.25Z" fill="#DD7429"/>
<path d="M57.6035 75.9286C57.6035 76.9937 56.7469 77.8571 55.6903 77.8571C54.6338 77.8571 53.7772 76.9937 53.7772 75.9286C53.7772 74.8635 54.6338 74 55.6903 74C56.7469 74 57.6035 74.8635 57.6035 75.9286Z" fill="#DD7429"/>
<path d="M57.8896 69.3572C57.8896 70.4223 57.0331 71.2857 55.9765 71.2857C54.9199 71.2857 54.0634 70.4223 54.0634 69.3572C54.0634 68.292 54.9199 67.4286 55.9765 67.4286C57.0331 67.4286 57.8896 68.292 57.8896 69.3572Z" fill="#DD7429"/>
<path d="M50.8748 78.5536C50.8748 79.3524 50.2324 80 49.44 80C48.6475 80 48.0051 79.3524 48.0051 78.5536C48.0051 77.7548 48.6475 77.1072 49.44 77.1072C50.2324 77.1072 50.8748 77.7548 50.8748 78.5536Z" fill="#DD7429"/>
<path d="M64.3234 35.6173C64.3234 35.6173 59.789 27.809 55.1797 27.6058C50.5705 27.4025 46.6514 31.4442 46.6514 31.4442C46.6514 31.4442 50.2054 35.8156 54.8146 36.0189C59.4238 36.2222 64.3234 35.6173 64.3234 35.6173Z" fill="#64AC1D"/>
<path fill-rule="evenodd" clip-rule="evenodd" d="M66.0355 34.6069L64.3234 35.6173L64.5645 37.6025C65.2275 37.5206 65.8051 37.108 66.1014 36.5046C66.3977 35.9012 66.373 35.1879 66.0355 34.6069ZM46.6514 31.4442C45.2326 30.0462 45.233 30.0458 45.2335 30.0453L45.2367 30.042L45.2422 30.0364L45.2577 30.0207C45.2699 30.0083 45.286 29.9921 45.3059 29.9725C45.3456 29.9331 45.4004 29.8796 45.4697 29.814C45.6079 29.6829 45.8043 29.5028 46.0524 29.2906C46.5466 28.8681 47.2569 28.309 48.1319 27.755C49.8431 26.6718 52.3849 25.4806 55.2664 25.6076C56.9453 25.6817 58.4597 26.4325 59.6939 27.3071C60.9445 28.1934 62.0614 29.3163 62.9756 30.3736C63.8965 31.4387 64.6553 32.4884 65.1822 33.2676C65.4468 33.659 65.6559 33.9865 65.8006 34.2193C65.873 34.3358 65.9295 34.4288 65.969 34.4946C65.9888 34.5276 66.0043 34.5537 66.0154 34.5725L66.0288 34.5953L66.033 34.6025L66.0345 34.6051L66.0355 34.6069C66.0358 34.6073 66.0355 34.6069 64.3234 35.6173C64.5645 37.6025 64.5647 37.6025 64.5645 37.6025L64.5455 37.6048L64.4986 37.6104C64.4582 37.6152 64.3998 37.622 64.3247 37.6305C64.1744 37.6474 63.9572 37.6711 63.6831 37.6987C63.1352 37.7539 62.3584 37.825 61.4346 37.8895C59.5955 38.018 57.1364 38.1232 54.7278 38.017C51.8464 37.8899 49.4174 36.4794 47.8067 35.2496C46.983 34.6208 46.3238 34.0013 45.8681 33.5368C45.6393 33.3037 45.4593 33.107 45.3329 32.9642C45.2697 32.8928 45.2197 32.8346 45.1835 32.7919C45.1654 32.7705 45.1508 32.753 45.1397 32.7396L45.1256 32.7226L45.1206 32.7165L45.1177 32.713C45.1173 32.7125 45.1169 32.712 46.6514 31.4442ZM46.6514 31.4442L45.2326 30.0462C44.5257 30.7752 44.4759 31.9235 45.1169 32.712L46.6514 31.4442ZM63.0871 33.7385C61.4269 31.4143 58.3206 27.7443 55.1797 27.6057C50.5705 27.4024 46.6514 31.4442 46.6514 31.4442C46.6514 31.4442 50.2053 35.8156 54.8146 36.0189C57.4863 36.1367 60.2557 35.983 62.1117 35.833C63.4577 35.7242 64.3234 35.6173 64.3234 35.6173C64.3234 35.6173 63.8632 34.825 63.0871 33.7385Z" fill="#156319"/>
<path d="M70.0017 17.3078C70.0017 17.3078 64.5525 26.9861 58.7367 30.0766C52.921 33.1671 45.4309 30.3647 45.4309 30.3647C45.4309 30.3647 47.37 22.5517 53.1857 19.4612C59.0015 16.3707 70.0017 17.3078 70.0017 17.3078Z" fill="#87D623"/>
<path fill-rule="evenodd" clip-rule="evenodd" d="M71.7272 18.295L70.0017 17.3077L70.1688 15.3148C70.8428 15.3723 71.4414 15.7719 71.7568 16.3751C72.0722 16.9783 72.061 17.7019 71.7272 18.295ZM67.7569 17.196C69.1339 17.2338 70.0017 17.3077 70.0017 17.3077C70.0017 17.3077 69.5718 18.0713 68.8247 19.2379C66.9117 22.2249 62.919 27.8541 58.7368 30.0766C52.921 33.167 45.4309 30.3647 45.4309 30.3647C45.4309 30.3647 47.37 22.5517 53.1858 19.4612C57.368 17.2387 64.2313 17.0991 67.7569 17.196ZM45.4309 30.3647C43.5063 29.8793 43.5064 29.8787 43.5066 29.878L43.5078 29.8732L43.5101 29.8642L43.5168 29.8378C43.5224 29.8164 43.5299 29.7877 43.5395 29.7519C43.5588 29.6805 43.5864 29.5809 43.6229 29.4563C43.6959 29.2073 43.8047 28.8573 43.9534 28.4315C44.2499 27.5824 44.7099 26.4184 45.3688 25.1462C46.6653 22.6429 48.842 19.5086 52.2606 17.6919C55.586 15.9248 60.1748 15.381 63.6887 15.2274C65.4912 15.1486 67.1015 15.1699 68.2614 15.2108C68.8424 15.2313 69.3128 15.2568 69.641 15.2774C69.8051 15.2877 69.9338 15.2968 70.023 15.3034C70.0676 15.3067 70.1024 15.3095 70.1269 15.3114L70.1558 15.3138L70.1643 15.3145L70.1688 15.3148C70.1692 15.3149 70.1688 15.3148 70.0017 17.3077C71.7272 18.295 71.7273 18.2946 71.7272 18.295L71.7249 18.2989L71.7207 18.3064L71.7063 18.3317C71.6941 18.3532 71.6766 18.3837 71.6541 18.4227C71.6091 18.5007 71.5439 18.6128 71.4595 18.7551C71.291 19.0397 71.046 19.4453 70.7344 19.9401C70.1124 20.9279 69.22 22.2792 68.1369 23.7338C66.0254 26.5695 62.9873 30.0787 59.6619 31.8458C56.2433 33.6625 52.4482 33.7016 49.6667 33.3653C48.2532 33.1944 47.0406 32.9192 46.1782 32.686C45.7457 32.5691 45.3978 32.4617 45.1527 32.3817C45.0301 32.3417 44.933 32.3084 44.8636 32.284C44.8289 32.2718 44.8011 32.2619 44.7805 32.2544L44.7551 32.2451L44.7465 32.2419L44.7418 32.2402C44.7412 32.2399 44.7406 32.2397 45.4309 30.3647ZM43.5063 29.8793L45.4309 30.3647L44.7406 32.2397C43.7925 31.885 43.2608 30.8682 43.5063 29.8793Z" fill="#156319"/>
<path d="M58.2333 29.1847C63.178 26.5571 67.962 18.6172 67.962 18.6172C56.7182 21.5054 49.3501 27.2214 47.0714 29.7184C47.0714 29.7184 53.2887 31.8123 58.2333 29.1847Z" fill="#79C01E"/>
<path d="M36.6499 25.1521C38.6874 26 43.6474 34 45.0269 38.0638C45.142 38.4028 46.0659 38.0483 45.9695 37.7521C45.4079 34.0015 43.1514 25 40.6714 22C37.7638 22.1742 36.6568 24.3298 36.6499 25.1521Z" fill="#8C5936"/>
<path fill-rule="evenodd" clip-rule="evenodd" d="M35.8749 26.9932C35.137 26.6775 34.6593 25.9445 34.6661 25.1352C34.675 24.0714 35.2617 22.8586 36.1517 21.9375C37.1282 20.9269 38.5928 20.121 40.5538 20.0035C41.1828 19.9659 41.7922 20.2317 42.1956 20.7196C42.9976 21.6898 43.6931 23.0222 44.2871 24.4045C44.8941 25.8172 45.4504 27.4148 45.9361 29.0065C46.8891 32.129 47.6101 35.3598 47.9166 37.3565C48.1591 38.4701 47.4442 39.239 47.224 39.4437C46.8987 39.7461 46.5312 39.9274 46.2397 40.0314C45.9537 40.1335 45.5284 40.2372 45.0466 40.1906C44.584 40.1458 43.5423 39.8673 43.1499 38.7113C42.5348 36.8996 41.0462 34.039 39.4164 31.4836C38.6105 30.22 37.8053 29.0868 37.102 28.2381C36.7495 27.8129 36.445 27.4864 36.1981 27.2583C35.9776 27.0547 35.8718 26.9943 35.8728 26.9925C35.8728 26.9924 35.8736 26.9926 35.8749 26.9932ZM45.9695 37.7521C45.9689 37.7478 45.9683 37.7435 45.9676 37.7393C45.9032 37.3108 45.8169 36.8145 45.7108 36.2668C45.5387 35.379 45.3147 34.3564 45.048 33.2698C44.0358 29.1466 42.4084 24.1012 40.6715 22C39.1952 22.0884 38.1831 22.6876 37.5435 23.3638C37.4255 23.4885 37.3202 23.6159 37.227 23.7431C36.8303 24.2847 36.6527 24.8243 36.65 25.1521C38.1197 25.7637 41.1101 30.0969 43.1804 33.9896C43.6638 34.8985 44.0969 35.7833 44.4489 36.5912C44.6522 37.0579 44.8285 37.4989 44.9716 37.904C44.9906 37.9579 45.0091 38.0111 45.027 38.0638C45.142 38.4028 46.0659 38.0483 45.9695 37.7521ZM44.0006 38.0032C44.0152 38.1216 44.0422 38.2458 44.0844 38.3754C44.0499 38.2695 44.0243 38.1608 44.0078 38.0506C44.0054 38.0349 44.003 38.0191 44.0006 38.0032Z" fill="#583A24"/>
<path d="M41.3321 22.3474C41.8631 23.0915 41.2504 24.451 39.9638 25.3839C38.6772 26.3167 37.2038 26.4697 36.6729 25.7256C36.1419 24.9815 36.7546 23.622 38.0412 22.6891C39.3278 21.7563 40.8012 21.6032 41.3321 22.3474Z" fill="#C27A49"/>
<path d="M42.1145 44.6632C43.7694 47.5263 41.6573 51.8759 37.397 54.3783C33.1368 56.8808 28.3415 56.5883 26.6866 53.7252C25.0317 50.862 27.1438 46.5124 31.4041 44.01C35.6644 41.5076 40.4596 41.8 42.1145 44.6632Z" fill="#FFC671"/>
<path fill-rule="evenodd" clip-rule="evenodd" d="M33.81 47.1547C34.395 48.0887 34.1183 49.3239 33.1918 49.9136C32.4849 50.3636 31.9391 50.9081 31.5269 51.5492C30.9308 52.476 29.7023 52.7403 28.7829 52.1395C27.8635 51.5386 27.6013 50.3002 28.1973 49.3733C28.9368 48.2234 29.9045 47.2755 31.0732 46.5315C31.9996 45.9418 33.225 46.2208 33.81 47.1547Z" fill="white"/>
</svg>
