<svg width="96" height="96" viewBox="0 0 96 96" fill="none" xmlns="http://www.w3.org/2000/svg">
<path d="M64.9297 20.9682C64.9297 20.9682 62.9737 29.4193 59.0149 32.549C54.2435 36.3212 47.1444 33.1029 47.1444 33.1029C47.1444 33.1029 47.9322 26.2578 53.2233 22.6478C57.2933 19.8709 64.9297 20.9682 64.9297 20.9682Z" fill="#10BC17"/>
<path fill-rule="evenodd" clip-rule="evenodd" d="M66.8619 21.4227L64.9298 20.9682L65.2098 18.9882C65.7606 19.0674 66.2531 19.376 66.5673 19.839C66.8814 20.3019 66.9883 20.8765 66.8619 21.4227ZM62.9285 20.7929C64.138 20.8545 64.9298 20.9682 64.9298 20.9682C64.9298 20.9682 64.7499 21.7455 64.3888 22.9159C63.5592 25.6047 61.7732 30.3685 59.015 32.549C54.2436 36.3212 47.1444 33.1029 47.1444 33.1029C47.1444 33.1029 47.9323 26.2578 53.2233 22.6478C55.9828 20.7651 60.3817 20.6633 62.9285 20.7929ZM47.1444 33.1029C45.1737 32.8724 45.1738 32.8716 45.1738 32.8709L45.174 32.8693L45.1745 32.8656L45.1756 32.8563L45.1788 32.8301C45.1814 32.8094 45.185 32.7822 45.1896 32.7487C45.1989 32.6817 45.2125 32.5897 45.2312 32.4752C45.2688 32.2464 45.3275 31.9265 45.415 31.536C45.5897 30.7572 45.882 29.6846 46.3578 28.4861C47.3007 26.1104 49.021 23.1 52.1113 20.9915C54.6381 19.2676 58.0517 18.8426 60.5436 18.7676C61.8389 18.7286 62.9927 18.7825 63.8228 18.8459C64.2391 18.8776 64.5775 18.912 64.8155 18.939C64.9346 18.9525 65.0288 18.9642 65.0954 18.9728C65.1287 18.9771 65.1551 18.9807 65.1743 18.9833L65.1976 18.9865L65.2078 18.988L65.2098 18.9882C65.2102 18.9883 65.2098 18.9882 64.9298 20.9682C66.8619 21.4227 66.862 21.4223 66.8619 21.4227L66.8609 21.427L66.8591 21.4344L66.8535 21.4584C66.8487 21.4784 66.842 21.5063 66.8334 21.5417C66.8161 21.6125 66.791 21.7134 66.7581 21.841C66.6922 22.0961 66.5949 22.4587 66.4658 22.9015C66.2083 23.7848 65.8211 24.999 65.3015 26.3215C64.3035 28.8614 62.6669 32.2036 60.2393 34.1228C57.239 36.4948 53.6206 36.5871 51.0166 36.2214C49.6872 36.0346 48.5342 35.7176 47.7143 35.4486C47.3023 35.3135 46.9688 35.1886 46.7328 35.0951C46.6147 35.0483 46.5206 35.0091 46.4529 34.9803C46.419 34.9659 46.3917 34.954 46.3713 34.945L46.3458 34.9337L46.3369 34.9297L46.332 34.9275C46.3314 34.9272 46.3307 34.9269 47.1444 33.1029ZM45.1737 32.8724L47.1444 33.1029L46.3307 34.9269C45.5421 34.5694 45.074 33.7382 45.1737 32.8724Z" fill="#156319"/>
<path d="M57.773 31.9525C61.0336 29.7278 63.1759 22.9205 63.1759 22.9205C55.4205 25.6625 51.1768 30.9326 49.8163 32.9231C49.8163 32.9231 54.5123 34.1772 57.773 31.9525Z" fill="#07A00E"/>
<path d="M33.4591 25.224C33.4591 25.224 39.8613 23.5424 43.3892 25.1375C47.6413 27.06 48.009 33.0792 48.009 33.0792C48.009 33.0792 43.1083 34.9874 38.7798 32.6506C35.4502 30.853 33.4591 25.224 33.4591 25.224Z" fill="#13CA1B"/>
<path fill-rule="evenodd" clip-rule="evenodd" d="M32.9588 23.2886L33.459 25.224L31.5903 25.8957C31.4035 25.3675 31.4452 24.7844 31.7054 24.2886C31.9657 23.7929 32.4204 23.43 32.9588 23.2886ZM34.2584 27.087C33.7368 26.0093 33.459 25.224 33.459 25.224C33.459 25.224 34.2496 25.0164 35.4282 24.8162C37.6036 24.4468 41.101 24.1029 43.3892 25.1375C47.6412 27.06 48.009 33.0792 48.009 33.0792C48.009 33.0792 43.1083 34.9874 38.7798 32.6505C36.6938 31.5244 35.1332 28.8945 34.2584 27.087ZM48.009 33.0792C48.7238 34.9449 48.7231 34.9451 48.7225 34.9454L48.721 34.9459L48.7178 34.9472L48.7099 34.9502L48.6886 34.9583C48.6721 34.9645 48.6507 34.9725 48.6247 34.9819C48.5727 35.0008 48.5021 35.0257 48.4143 35.055C48.2388 35.1137 47.9934 35.1905 47.6891 35.2727C47.0828 35.4365 46.2303 35.625 45.2225 35.7305C43.2297 35.9391 40.4808 35.8376 37.8431 34.4136C35.6549 33.2322 34.0936 30.9435 33.1432 29.2464C32.6437 28.3546 32.2604 27.5289 32.0015 26.9262C31.8716 26.6236 31.7716 26.374 31.7029 26.1965C31.6685 26.1077 31.6418 26.0367 31.623 25.9858L31.6008 25.9248L31.5941 25.9062L31.5918 25.8999L31.5903 25.8957C31.5902 25.8953 31.5903 25.8957 33.459 25.224C32.9588 23.2886 32.9584 23.2887 32.9588 23.2886L32.9627 23.2876L32.969 23.286L32.9885 23.2809L33.0547 23.2642C33.1105 23.2503 33.1896 23.2309 33.2895 23.2073C33.4893 23.1603 33.7735 23.0963 34.1237 23.0254C34.8217 22.884 35.7937 22.7126 36.8893 22.594C38.969 22.3689 41.9175 22.2801 44.2011 23.3126C47.0398 24.5961 48.4571 27.1836 49.1602 29.1516C49.5211 30.1619 49.7255 31.0935 49.8406 31.7712C49.8985 32.1123 49.9348 32.3949 49.9569 32.5982C49.968 32.7001 49.9757 32.7825 49.9807 32.8429C49.9833 32.8731 49.9852 32.8979 49.9865 32.9169L49.9882 32.941L49.9888 32.9497L49.9891 32.9548C49.9891 32.9556 49.9892 32.9563 48.009 33.0792ZM48.7238 34.9449L48.009 33.0792L49.9892 32.9563C50.0423 33.8263 49.5304 34.6308 48.7238 34.9449Z" fill="#156319"/>
<path fill-rule="evenodd" clip-rule="evenodd" d="M34.4302 25.0033C33.825 25.1278 33.4591 25.224 33.4591 25.224C33.4591 25.224 35.4502 30.8529 38.7798 32.6505C43.1083 34.9873 48.009 33.0791 48.009 33.0791C48.009 33.0791 47.9213 31.6438 47.3364 29.9511C45.7281 30.4857 42.3075 31.2754 39.0407 29.7864C37.0688 28.8876 35.4517 26.7042 34.4302 25.0033Z" fill="#33ED3B"/>
<path d="M69.0023 53.7427C69.0023 65.9444 59.19 75.8359 47.086 75.8359C34.982 75.8359 25.1698 65.9444 25.1698 53.7427C25.1698 41.5409 34.982 31.6494 47.086 31.6494C59.19 31.6494 69.0023 41.5409 69.0023 53.7427Z" fill="#FE9F81"/>
<path fill-rule="evenodd" clip-rule="evenodd" d="M70.9862 53.7427C70.9862 67.049 60.2857 77.8359 47.086 77.8359C33.8863 77.8359 23.1858 67.049 23.1858 53.7427C23.1858 40.4363 33.8863 29.6494 47.086 29.6494C60.2857 29.6494 70.9862 40.4363 70.9862 53.7427ZM47.086 75.8359C59.19 75.8359 69.0022 65.9444 69.0022 53.7427C69.0022 41.5409 59.19 31.6494 47.086 31.6494C34.982 31.6494 25.1698 41.5409 25.1698 53.7427C25.1698 65.9444 34.982 75.8359 47.086 75.8359Z" fill="#AB442D"/>
<path fill-rule="evenodd" clip-rule="evenodd" d="M56.4653 73.7163C49.9357 72.7082 43.4052 66.2326 40.4709 57.0683C36.8542 45.773 40.0387 34.5716 47.5773 31.6549C47.414 31.6513 47.2503 31.6494 47.0861 31.6494C34.9821 31.6494 25.1699 41.5409 25.1699 53.7427C25.1699 65.9445 34.9821 75.836 47.0861 75.836C50.4421 75.836 53.6219 75.0756 56.4653 73.7163Z" fill="#FF7E6C"/>
<path d="M52.334 34.964C55.0006 36.406 55.4228 40.8437 53.277 44.8758C51.1313 48.9079 47.2302 51.0076 44.5637 49.5655C41.8971 48.1235 41.4749 43.6858 43.6207 39.6537C45.7664 35.6216 49.6675 33.5219 52.334 34.964Z" fill="#FEC0AC"/>
<path fill-rule="evenodd" clip-rule="evenodd" d="M47.0804 40.8092C48.0638 41.2963 48.4693 42.4949 47.986 43.4862C47.6562 44.1629 47.4943 44.8325 47.4779 45.5116C47.4512 46.6158 46.5417 47.4892 45.4463 47.4623C44.3509 47.4355 43.4845 46.5185 43.5111 45.4143C43.5421 44.1291 43.8541 42.893 44.4248 41.7222C44.908 40.7308 46.097 40.3221 47.0804 40.8092Z" fill="white"/>
<path fill-rule="evenodd" clip-rule="evenodd" d="M46.9449 31.0927C49.7756 30.0338 52.7385 30.3242 55.1695 31.1637C55.6878 31.3427 55.964 31.9114 55.7864 32.4339C55.6089 32.9563 55.0448 33.2348 54.5265 33.0558C52.4028 32.3224 49.9267 32.1105 47.6352 32.9677C45.3742 33.8135 43.1567 35.7504 41.6007 39.5846C38.4409 47.3709 40.3032 54.6161 41.5698 57.1698C41.8148 57.6638 41.6162 58.2645 41.1262 58.5115C40.6362 58.7585 40.0403 58.5582 39.7953 58.0643C38.3224 55.0946 36.3493 47.2428 39.7644 38.8274C41.4959 34.5607 44.0837 32.163 46.9449 31.0927Z" fill="#AB442D"/>
<path d="M45.8497 70.9161C46.4472 71.8909 46.1476 73.1693 45.1806 73.7716C44.2136 74.3738 42.9454 74.0718 42.348 73.097C41.7506 72.1223 42.0501 70.8438 43.0171 70.2415C43.9841 69.6393 45.2523 69.9413 45.8497 70.9161Z" fill="#EC6B59"/>
<path d="M52.3129 70.2168C52.9103 71.1916 52.6107 72.4701 51.6437 73.0724C50.6768 73.6746 49.4086 73.3726 48.8111 72.3978C48.2137 71.423 48.5133 70.1446 49.4802 69.5423C50.4472 68.9401 51.7154 69.2421 52.3129 70.2168Z" fill="#EC6B59"/>
<path d="M49.3585 64.7226C49.8222 65.4791 49.5897 66.4712 48.8393 66.9386C48.0888 67.406 47.1046 67.1716 46.641 66.4152C46.1774 65.6587 46.4099 64.6665 47.1603 64.1991C47.9107 63.7317 48.8949 63.9661 49.3585 64.7226Z" fill="#EC6B59"/>
<path d="M56.56 69.2347C57.0236 69.9912 56.7911 70.9833 56.0407 71.4507C55.2903 71.9181 54.3061 71.6837 53.8424 70.9272C53.3788 70.1707 53.6113 69.1786 54.3617 68.7112C55.1121 68.2438 56.0963 68.4782 56.56 69.2347Z" fill="#EC6B59"/>
<path d="M43.1461 64.9827C43.6098 65.7392 43.3773 66.7314 42.6269 67.1987C41.8764 67.6661 40.8922 67.4318 40.4286 66.6753C39.965 65.9188 40.1975 64.9267 40.9479 64.4593C41.6983 63.9919 42.6825 64.2262 43.1461 64.9827Z" fill="#EC6B59"/>
<path d="M35.3006 61.3699C35.7642 62.1264 35.5317 63.1186 34.7813 63.586C34.0309 64.0533 33.0467 63.819 32.583 63.0625C32.1194 62.306 32.3519 61.3139 33.1023 60.8465C33.8527 60.3791 34.8369 60.6135 35.3006 61.3699Z" fill="#EC6B59"/>
<path d="M59.1082 64.3699C59.5718 65.1264 59.3393 66.1186 58.5889 66.586C57.8385 67.0533 56.8543 66.819 56.3906 66.0625C55.927 65.306 56.1595 64.3139 56.9099 63.8465C57.6603 63.3791 58.6445 63.6135 59.1082 64.3699Z" fill="#EC6B59"/>
<path d="M39.6865 69.6611C40.1502 70.4176 39.9177 71.4097 39.1673 71.8771C38.4168 72.3445 37.4327 72.1101 36.969 71.3536C36.5054 70.5971 36.7379 69.605 37.4883 69.1376C38.2387 68.6702 39.2229 68.9046 39.6865 69.6611Z" fill="#EC6B59"/>
<path d="M38.476 64.8575C38.7103 65.2398 38.5928 65.7413 38.2135 65.9775C37.8343 66.2137 37.3368 66.0953 37.1025 65.7129C36.8682 65.3306 36.9857 64.8291 37.365 64.5929C37.7442 64.3567 38.2417 64.4751 38.476 64.8575Z" fill="#EC6B59"/>
<path d="M30.5653 60.6924C30.7997 61.0748 30.6822 61.5762 30.3029 61.8124C29.9236 62.0487 29.4262 61.9302 29.1919 61.5479C28.9575 61.1655 29.075 60.6641 29.4543 60.4279C29.8336 60.1917 30.331 60.3101 30.5653 60.6924Z" fill="#EC6B59"/>
<path d="M61.3169 67.6924C61.5513 68.0748 61.4338 68.5762 61.0545 68.8124C60.6752 69.0487 60.1778 68.9302 59.9435 68.5479C59.7091 68.1655 59.8266 67.6641 60.2059 67.4279C60.5852 67.1917 61.0826 67.3101 61.3169 67.6924Z" fill="#EC6B59"/>
<path d="M54.373 64.6924C54.6073 65.0748 54.4898 65.5762 54.1105 65.8124C53.7312 66.0487 53.2338 65.9302 52.9995 65.5479C52.7652 65.1655 52.8827 64.6641 53.2619 64.4279C53.6412 64.1917 54.1386 64.3101 54.373 64.6924Z" fill="#EC6B59"/>
<path d="M63.3009 63.6924C63.5353 64.0748 63.4178 64.5762 63.0385 64.8124C62.6592 65.0487 62.1618 64.9302 61.9275 64.5479C61.6931 64.1655 61.8106 63.6641 62.1899 63.4279C62.5692 63.1917 63.0666 63.3101 63.3009 63.6924Z" fill="#EC6B59"/>
<path d="M35.2508 65.8672C35.6377 66.4986 35.4437 67.3267 34.8173 67.7168C34.191 68.1069 33.3695 67.9113 32.9826 67.2799C32.5956 66.6485 32.7896 65.8204 33.416 65.4302C34.0423 65.0401 34.8638 65.2358 35.2508 65.8672Z" fill="#EC6B59"/>
</svg>
