<svg width="96" height="96" viewBox="0 0 96 96" fill="none" xmlns="http://www.w3.org/2000/svg">
<path d="M34.4239 45.8577C31.0391 52.0294 27.7756 52.5001 27.7756 61.7567C27.7756 72.9109 36.6582 81.1396 47.6154 81.1396C58.5726 81.1396 67.4551 73.7804 67.4551 62.6263C67.4551 53.3696 63.8415 52.5 60.1466 46.1542C56.051 39.1205 58.7912 28.9657 47.218 28.9657C34.6528 28.9657 38.4076 38.5941 34.4239 45.8577Z" fill="#A4D31F"/>
<path fill-rule="evenodd" clip-rule="evenodd" d="M30.3669 48.448C31.1262 47.422 31.9044 46.3182 32.6877 44.89C33.5363 43.3427 34.0008 41.6179 34.3958 39.7393C34.4813 39.3326 34.565 38.9083 34.6507 38.474C34.9394 37.011 35.2505 35.4348 35.7266 34.038C36.374 32.1385 37.4088 30.2738 39.3599 28.9316C41.2828 27.6089 43.8462 26.9657 47.218 26.9657C50.3975 26.9657 52.8484 27.6656 54.7188 29.0502C56.5821 30.4295 57.6346 32.316 58.3437 34.219C58.8688 35.6283 59.256 37.2061 59.618 38.6812C59.7288 39.1325 59.8372 39.5743 59.9465 39.9986C60.437 41.9031 60.9791 43.6331 61.8576 45.1418C62.718 46.6195 63.5769 47.7855 64.4166 48.8796C64.5489 49.0521 64.6829 49.2253 64.8176 49.3995C65.5162 50.3029 66.2357 51.2332 66.8614 52.2267C68.4563 54.759 69.4391 57.6742 69.4391 62.6263C69.4391 75.0907 59.4525 83.1396 47.6154 83.1396C35.6523 83.1396 25.7917 74.1039 25.7917 61.7567C25.7917 56.843 26.6696 54.0319 28.137 51.6084C28.6973 50.6831 29.3439 49.8183 29.9657 48.9865C30.101 48.8056 30.2351 48.6261 30.3669 48.448ZM31.5289 50.219C32.4288 49.0145 33.421 47.6863 34.4239 45.8577C35.6608 43.6024 36.1517 41.1192 36.6167 38.767C37.6493 33.5433 38.5542 28.9657 47.218 28.9657C55.1868 28.9657 56.3695 33.7802 57.6702 39.0753C58.2586 41.4703 58.8711 43.9636 60.1466 46.1542C61.2232 48.0032 62.2929 49.3872 63.2682 50.6493C65.6405 53.7188 67.4551 56.0667 67.4551 62.6263C67.4551 73.7804 58.5726 81.1396 47.6154 81.1396C36.6582 81.1396 27.7757 72.9109 27.7757 61.7567C27.7757 55.2428 29.3917 53.0796 31.5289 50.219Z" fill="#5B7C14"/>
<path fill-rule="evenodd" clip-rule="evenodd" d="M33.5567 75.6023C35.2348 76.3899 37.0546 76.9664 38.983 77.2955C49.7865 79.1391 59.7629 73.3777 61.6098 62.38C62.6959 55.9125 61.2954 53.2921 59.4647 49.8666C58.7119 48.4581 57.8864 46.9135 57.1311 44.9094C56.2361 42.5348 56.0451 39.9734 55.8615 37.513C55.7268 35.7074 55.5962 33.9563 55.1945 32.3733C56.4726 34.2003 57.0583 36.5846 57.6702 39.0753C58.2585 41.4703 58.871 43.9637 60.1465 46.1543C61.2231 48.0032 62.2928 49.3872 63.2682 50.6493C65.6404 53.7188 67.4551 56.0667 67.4551 62.6263C67.4551 73.7805 58.5725 81.1396 47.6153 81.1396C42.1215 81.1396 37.1493 79.071 33.5567 75.6023Z" fill="#92BC1B"/>
<path d="M39.9382 47.8882C42.0937 49.1357 42.1852 53.0546 40.1425 56.6412C38.0999 60.2279 34.6966 62.1241 32.5411 60.8766C30.3856 59.6291 30.2941 55.7103 32.3368 52.1236C34.3795 48.537 37.7827 46.6407 39.9382 47.8882Z" fill="#BBEB35"/>
<path d="M44.5575 31.1066C45.3332 31.8088 45.03 33.4243 43.8803 34.7151C42.7306 36.0059 41.1697 36.483 40.394 35.7809C39.6183 35.0787 39.9215 33.4631 41.0712 32.1724C42.2209 30.8816 43.7817 30.4044 44.5575 31.1066Z" fill="#BBEB35"/>
<path fill-rule="evenodd" clip-rule="evenodd" d="M35.9498 53.093C36.8245 53.7582 36.9987 55.0122 36.3389 55.8941C36.0143 56.3278 35.8416 56.6877 35.7583 56.9735C35.4492 58.0332 34.3465 58.6397 33.2953 58.3281C32.244 58.0166 31.6424 56.9049 31.9515 55.8452C32.1975 55.0017 32.6249 54.2151 33.1711 53.4852C33.831 52.6034 35.075 52.4278 35.9498 53.093Z" fill="white"/>
<path d="M61.4731 17.192C61.4731 17.192 58.196 23.0123 54.6986 24.8708C51.2011 26.7294 46.6968 25.0441 46.6968 25.0441C46.6968 25.0441 47.8629 20.3455 51.3604 18.487C54.8578 16.6284 61.4731 17.192 61.4731 17.192Z" fill="#87D623"/>
<path fill-rule="evenodd" clip-rule="evenodd" d="M63.1985 18.1791L61.4731 17.1919L61.6401 15.199C62.3141 15.2564 62.9127 15.656 63.2281 16.2592C63.5435 16.8624 63.5324 17.5861 63.1985 18.1791ZM59.1979 17.1116C60.5439 17.1127 61.4731 17.1919 61.4731 17.1919C61.4731 17.1919 61.0128 18.0094 60.2531 19.1295C58.9858 20.9981 56.8853 23.7087 54.6986 24.8707C51.2011 26.7293 46.6968 25.044 46.6968 25.044C46.6968 25.044 47.8629 20.3454 51.3603 18.4869C53.547 17.3249 56.9524 17.1097 59.1979 17.1116ZM46.6968 25.044C44.7721 24.5586 44.7723 24.558 44.7724 24.5574L44.7727 24.5561L44.7735 24.5531L44.7753 24.5458L44.7804 24.5261C44.7844 24.5107 44.7896 24.4907 44.7961 24.4666C44.8091 24.4182 44.8273 24.3526 44.851 24.2718C44.8983 24.1104 44.9679 23.8869 45.0622 23.6167C45.25 23.0789 45.5409 22.3426 45.9583 21.5368C46.7718 19.966 48.1757 17.9184 50.4352 16.7177C52.6014 15.5665 55.5144 15.2374 57.6423 15.1443C58.7518 15.0958 59.7415 15.109 60.4541 15.1341C60.8114 15.1467 61.1016 15.1624 61.3052 15.1752C61.4071 15.1815 61.4876 15.1872 61.5442 15.1914L61.6109 15.1966L61.6303 15.1982L61.6386 15.1988L61.6401 15.199C61.6405 15.199 61.6401 15.199 61.4731 17.1919C63.1985 18.1791 63.1987 18.1788 63.1985 18.1791L63.1977 18.1805L63.1936 18.1877L63.1839 18.2048L63.1504 18.2632C63.1219 18.3126 63.0811 18.3827 63.0287 18.4711C62.9241 18.6477 62.773 18.8979 62.5814 19.2022C62.1993 19.809 61.6508 20.6396 60.9841 21.535C59.7055 23.2521 57.79 25.4888 55.6237 26.64C53.3642 27.8407 50.8951 27.8511 49.1499 27.6401C48.2545 27.5319 47.4875 27.3577 46.9412 27.21C46.6668 27.1358 46.4446 27.0673 46.2857 27.0155C46.2062 26.9895 46.1423 26.9676 46.0953 26.9511C46.0718 26.9429 46.0526 26.936 46.0377 26.9306L46.0187 26.9236L46.0117 26.921L46.0076 26.9195C46.007 26.9193 46.0064 26.919 46.6968 25.044ZM44.7721 24.5586L46.6968 25.044L46.0064 26.919C45.0584 26.5643 44.5267 25.5475 44.7721 24.5586Z" fill="#156319"/>
<path d="M54.3958 24.3344C57.3694 22.7542 60.2464 17.9793 60.2464 17.9793C53.4847 19.7162 49.0536 23.1537 47.6833 24.6553C47.6833 24.6553 51.4222 25.9146 54.3958 24.3344Z" fill="#79C01E"/>
<path d="M41.3034 19.5413C42.5817 20.0732 45.6935 25.0923 46.559 27.6418C46.6312 27.8545 47.2108 27.6321 47.1503 27.4463C46.798 25.0932 45.3823 19.4459 43.8264 17.5637C42.0022 17.673 41.3078 19.0253 41.3034 19.5413Z" fill="#8C5936"/>
<path fill-rule="evenodd" clip-rule="evenodd" d="M40.4402 21.342C39.7526 21.0073 39.313 20.301 39.3195 19.5243C39.3272 18.6137 39.8101 17.6784 40.4613 17.0045C41.1989 16.2411 42.2895 15.6522 43.7088 15.5672C44.3378 15.5295 44.9471 15.7953 45.3505 16.2833C45.9215 16.974 46.3912 17.8872 46.7731 18.776C47.1681 19.6953 47.5261 20.7251 47.836 21.7403C48.4379 23.7126 48.8966 25.7582 49.0978 27.0539C49.3292 28.1368 48.6321 28.8755 48.4385 29.0554C48.1411 29.3319 47.8146 29.4902 47.5666 29.5788C47.324 29.6653 46.9447 29.7609 46.5006 29.7179C46.0757 29.6768 45.0636 29.4138 44.6819 28.2893C44.3238 27.2347 43.4257 25.4979 42.4172 23.9165C41.9219 23.1399 41.435 22.4563 41.0197 21.9552C40.8112 21.7037 40.6433 21.5255 40.5205 21.4122C40.4842 21.3786 40.4575 21.356 40.4402 21.342ZM47.1503 27.4462C47.1499 27.4436 47.1495 27.4409 47.1491 27.4382C47.0798 26.9772 46.9701 26.3909 46.8266 25.7319C46.5681 24.544 46.2003 23.1197 45.7635 21.7669C45.203 20.0314 44.529 18.4136 43.8264 17.5637C43.2945 17.5955 42.8587 17.7331 42.508 17.9248C42.1353 18.1284 41.8588 18.3932 41.6654 18.6573C41.4165 18.997 41.3051 19.3356 41.3034 19.5413C41.916 19.7962 42.9495 21.0814 43.9552 22.6316C44.6587 23.716 45.3486 24.93 45.8711 26.0117C46.1402 26.5687 46.3649 27.0905 46.5242 27.5415C46.5362 27.5753 46.5478 27.6088 46.559 27.6418C46.6312 27.8545 47.2108 27.6321 47.1503 27.4462ZM45.177 27.6692C45.1915 27.7964 45.2198 27.93 45.2652 28.0696C45.2307 27.9636 45.2051 27.855 45.1886 27.7448C45.1849 27.72 45.181 27.6949 45.177 27.6692Z" fill="#583A24"/>
<path d="M44.2408 17.7817C44.5739 18.2485 44.1896 19.1014 43.3824 19.6867C42.5752 20.272 41.6508 20.368 41.3177 19.9011C40.9846 19.4342 41.369 18.5813 42.1762 17.9961C42.9834 17.4108 43.9077 17.3148 44.2408 17.7817Z" fill="#C27A49"/>
<path d="M59.6917 57.6612C59.6917 58.6217 58.9193 59.4004 57.9665 59.4004C57.0137 59.4004 56.2413 58.6217 56.2413 57.6612C56.2413 56.7008 57.0137 55.9221 57.9665 55.9221C58.9193 55.9221 59.6917 56.7008 59.6917 57.6612Z" fill="#83A918"/>
<path d="M64.8673 61.1395C64.8673 62.1 64.0949 62.8787 63.1421 62.8787C62.1893 62.8787 61.4169 62.1 61.4169 61.1395C61.4169 60.179 62.1893 59.4004 63.1421 59.4004C64.0949 59.4004 64.8673 60.179 64.8673 61.1395Z" fill="#83A918"/>
<path d="M64.0047 55.4873C64.0047 56.2077 63.4254 56.7917 62.7108 56.7917C61.9962 56.7917 61.4169 56.2077 61.4169 55.4873C61.4169 54.767 61.9962 54.183 62.7108 54.183C63.4254 54.183 64.0047 54.767 64.0047 55.4873Z" fill="#83A918"/>
<path d="M64.8673 67.2264C64.8673 68.1869 64.0949 68.9656 63.1421 68.9656C62.1893 68.9656 61.4169 68.1869 61.4169 67.2264C61.4169 66.2659 62.1893 65.4873 63.1421 65.4873C64.0949 65.4873 64.8673 66.2659 64.8673 67.2264Z" fill="#83A918"/>
<path d="M59.6917 63.7483C59.6917 64.7088 58.9193 65.4874 57.9665 65.4874C57.0137 65.4874 56.2413 64.7088 56.2413 63.7483C56.2413 62.7878 57.0137 62.0092 57.9665 62.0092C58.9193 62.0092 59.6917 62.7878 59.6917 63.7483Z" fill="#83A918"/>
<path d="M61.4169 72.444C61.4169 73.4045 60.6445 74.1831 59.6917 74.1831C58.7389 74.1831 57.9666 73.4045 57.9666 72.444C57.9666 71.4835 58.7389 70.7048 59.6917 70.7048C60.6445 70.7048 61.4169 71.4835 61.4169 72.444Z" fill="#83A918"/>
<path d="M56.2413 69.8352C56.2413 70.7957 55.4689 71.5743 54.5161 71.5743C53.5634 71.5743 52.791 70.7957 52.791 69.8352C52.791 68.8747 53.5634 68.0961 54.5161 68.0961C55.4689 68.0961 56.2413 68.8747 56.2413 69.8352Z" fill="#83A918"/>
<path d="M57.104 76.357C57.104 77.0773 56.5247 77.6613 55.8101 77.6613C55.0955 77.6613 54.5162 77.0773 54.5162 76.357C54.5162 75.6366 55.0955 75.0526 55.8101 75.0526C56.5247 75.0526 57.104 75.6366 57.104 76.357Z" fill="#83A918"/>
</svg>
