<svg width="96" height="96" viewBox="0 0 96 96" fill="none" xmlns="http://www.w3.org/2000/svg">
<path d="M39.6795 20.0377C42.8999 24.7472 41.4814 28.6415 40.3696 30C45.9822 28.4604 52.4459 29.3585 54.9762 30C52.1239 25.9245 54.1711 21.283 55.5513 19.4717C52.3309 20.2868 50.4524 22.8302 49.9157 24C49.8237 21.3736 48.1905 18.9057 47.3854 18C46.0972 20.2642 45.6218 22.7925 45.5452 23.7736C44.073 22.234 41.0213 20.6415 39.6795 20.0377Z" fill="#D72424"/>
<path fill-rule="evenodd" clip-rule="evenodd" d="M38.7028 31.0849C38.234 30.353 38.2892 29.3993 38.8392 28.7272C39.4077 28.0326 40.7449 25.1198 38.046 21.1729C37.5413 20.4349 37.5854 19.4485 38.1538 18.7592C38.7222 18.0699 39.6762 17.8461 40.4881 18.2114C41.2234 18.5423 42.39 19.1262 43.575 19.8343C43.8011 19.9694 44.0335 20.1123 44.268 20.262C44.5923 19.2255 45.0455 18.0927 45.6643 17.005C45.9812 16.448 46.5441 16.0783 47.1775 16.011C47.8109 15.9437 48.4378 16.1871 48.8629 16.6653C49.3877 17.2556 50.0973 18.2499 50.6955 19.4666C50.739 19.555 50.7822 19.6452 50.8249 19.7372C51.9241 18.8061 53.3355 17.9705 55.0681 17.5319C55.8871 17.3246 56.7464 17.6626 57.2098 18.3742C57.6732 19.0857 57.639 20.015 57.1247 20.69C56.6047 21.3724 55.8971 22.691 55.6311 24.2302C55.3729 25.7235 55.5387 27.3344 56.5973 28.847C57.0757 29.5305 57.0816 30.4419 56.6121 31.1316C56.1426 31.8213 55.297 32.1436 54.4923 31.9396C52.141 31.3435 46.0512 30.5142 40.8905 31.9298C40.0565 32.1586 39.1716 31.8168 38.7028 31.0849ZM51.5653 21.7588C50.7181 22.5945 50.1683 23.4494 49.9156 24C49.8823 23.0485 49.6467 22.1179 49.3215 21.2747C49.1261 20.7681 48.8983 20.293 48.6626 19.8641C48.2078 19.0365 47.7235 18.3804 47.3853 18C47.003 18.672 46.6923 19.3673 46.4423 20.0385C46.2558 20.5393 46.1031 21.0268 45.9798 21.4812C45.7115 22.4693 45.5821 23.301 45.5451 23.7736C45.0735 23.2803 44.4397 22.7816 43.752 22.3118C43.4503 22.1057 43.1382 21.9051 42.8248 21.7129C41.623 20.976 40.4028 20.3632 39.6795 20.0378C40.4035 21.0966 40.8931 22.1143 41.2044 23.0712C41.7896 24.8704 41.7445 26.4549 41.4428 27.6944C41.1912 28.7277 40.7613 29.5213 40.3696 30C41.2165 29.7677 42.0828 29.5909 42.952 29.4603C46.4049 28.9416 49.9043 29.1528 52.4196 29.5134C53.4674 29.6637 54.3444 29.8398 54.9762 30C54.4532 29.2527 54.0949 28.4864 53.867 27.7219C53.287 25.776 53.5521 23.8424 54.0962 22.2665C54.5039 21.0855 55.0684 20.1054 55.5513 19.4717C54.3253 19.782 53.2938 20.3428 52.4567 20.9829C52.1299 21.2328 51.8328 21.4948 51.5653 21.7588Z" fill="#732533"/>
<path fill-rule="evenodd" clip-rule="evenodd" d="M40.3696 30C41.4814 28.6415 42.8999 24.7472 39.6795 20.0377C40.3499 20.3394 41.4472 20.8879 42.561 21.5533C44.3427 25.1032 43.5862 28.0314 42.7029 29.499C41.9174 29.6252 41.1356 29.7899 40.3696 30ZM48.333 29.1644C51.1791 29.2462 53.6324 29.6593 54.9762 30C54.8729 29.8524 54.776 29.704 54.6853 29.555C52.9587 29.2923 50.7194 29.0935 48.333 29.1644ZM54.7446 20.7603C55.0126 20.2468 55.2936 19.8099 55.5513 19.4717C53.8072 19.9131 52.4567 20.8615 51.4998 21.824C51.7218 22.5147 51.8734 23.2509 51.8996 24C52.2561 23.2231 53.2044 21.8403 54.7446 20.7603ZM48.5626 19.6856C48.1379 18.9421 47.6989 18.3526 47.3854 18C46.5284 19.5063 46.0312 21.1295 45.7717 22.3362C46.4456 22.7989 47.0657 23.2889 47.5291 23.7736C47.587 23.0329 47.8721 21.4105 48.5626 19.6856Z" fill="#FE3434"/>
<path d="M71.4231 53.0001C71.4231 66.2549 60.764 77.0001 47.6154 77.0001C34.4667 77.0001 23.8077 66.2549 23.8077 53.0001C23.8077 39.7452 34.4667 29.0001 47.6154 29.0001C60.764 29.0001 71.4231 39.7452 71.4231 53.0001Z" fill="#FE3434"/>
<path fill-rule="evenodd" clip-rule="evenodd" d="M73.4071 53.0001C73.4071 67.3595 61.8597 79.0001 47.6154 79.0001C33.3711 79.0001 21.8237 67.3595 21.8237 53.0001C21.8237 38.6407 33.3711 27.0001 47.6154 27.0001C61.8597 27.0001 73.4071 38.6407 73.4071 53.0001ZM47.6154 77.0001C60.764 77.0001 71.4231 66.2549 71.4231 53.0001C71.4231 39.7452 60.764 29.0001 47.6154 29.0001C34.4668 29.0001 23.8077 39.7452 23.8077 53.0001C23.8077 66.2549 34.4668 77.0001 47.6154 77.0001Z" fill="#732533"/>
<path fill-rule="evenodd" clip-rule="evenodd" d="M47.6154 77.0001C60.764 77.0001 71.4231 66.2549 71.4231 53.0001C71.4231 39.7452 60.764 29.0001 47.6154 29.0001C41.9749 29.0001 36.7926 30.9774 32.7133 34.2819C35.6766 32.2125 39.2736 31 43.1514 31C53.2868 31 61.5032 39.2828 61.5032 49.5C61.5032 59.7173 53.2868 68 43.1514 68C33.016 68 24.7997 59.7173 24.7997 49.5C24.7997 47.2219 25.2082 45.0398 25.9553 43.0244C24.5763 46.0623 23.8077 49.4407 23.8077 53.0001C23.8077 66.2549 34.4667 77.0001 47.6154 77.0001Z" fill="#D72424"/>
<path d="M64.378 49.0203C64.378 50.0832 63.5232 50.9448 62.4689 50.9448C61.4145 50.9448 60.5598 50.0832 60.5598 49.0203C60.5598 47.9574 61.4145 47.0958 62.4689 47.0958C63.5232 47.0958 64.378 47.9574 64.378 49.0203Z" fill="#B42222"/>
<path d="M68.9431 51.6979C68.9431 52.7608 68.0884 53.6224 67.0341 53.6224C65.9797 53.6224 65.125 52.7608 65.125 51.6979C65.125 50.6351 65.9797 49.7734 67.0341 49.7734C68.0884 49.7734 68.9431 50.6351 68.9431 51.6979Z" fill="#B42222"/>
<path d="M67.9886 45.4434C67.9886 46.2405 67.3476 46.8867 66.5568 46.8867C65.766 46.8867 65.125 46.2405 65.125 45.4434C65.125 44.6462 65.766 44 66.5568 44C67.3476 44 67.9886 44.6462 67.9886 45.4434Z" fill="#B42222"/>
<path d="M67.7811 58.4336C67.7811 59.4965 66.9264 60.3581 65.872 60.3581C64.8177 60.3581 63.963 59.4965 63.963 58.4336C63.963 57.3708 64.8177 56.5092 65.872 56.5092C66.9264 56.5092 67.7811 57.3708 67.7811 58.4336Z" fill="#B42222"/>
<path d="M63.2159 55.756C63.2159 56.8189 62.3612 57.6805 61.3068 57.6805C60.2525 57.6805 59.3978 56.8189 59.3978 55.756C59.3978 54.6932 60.2525 53.8315 61.3068 53.8315C62.3612 53.8315 63.2159 54.6932 63.2159 55.756Z" fill="#B42222"/>
<path d="M65.4712 64.5C65.4712 65.8807 64.3608 67 62.9912 67C61.6215 67 60.5112 65.8807 60.5112 64.5C60.5112 63.1193 61.6215 62 62.9912 62C64.3608 62 65.4712 63.1193 65.4712 64.5Z" fill="#B42222"/>
<path d="M58.5272 61.5C58.5272 62.3284 57.861 63 57.0393 63C56.2175 63 55.5513 62.3284 55.5513 61.5C55.5513 60.6716 56.2175 60 57.0393 60C57.861 60 58.5272 60.6716 58.5272 61.5Z" fill="#B42222"/>
<path d="M53.2555 73.1143C53.2555 73.7613 52.7353 74.2857 52.0935 74.2857C51.4517 74.2857 50.9315 73.7613 50.9315 73.1143C50.9315 72.4673 51.4517 71.9429 52.0935 71.9429C52.7353 71.9429 53.2555 72.4673 53.2555 73.1143Z" fill="#B42222"/>
<path d="M60.5112 70C60.5112 71.1046 59.623 72 58.5272 72C57.4315 72 56.5433 71.1046 56.5433 70C56.5433 68.8954 57.4315 68 58.5272 68C59.623 68 60.5112 68.8954 60.5112 70Z" fill="#B42222"/>
<path d="M56.5433 66C56.5433 66.5523 56.0992 67 55.5513 67C55.0035 67 54.5593 66.5523 54.5593 66C54.5593 65.4477 55.0035 65 55.5513 65C56.0992 65 56.5433 65.4477 56.5433 66Z" fill="#B42222"/>
<path d="M44.0985 37.6632C45.7534 40.5263 43.6413 44.8759 39.381 47.3783C35.1207 49.8808 30.3255 49.5883 28.6706 46.7252C27.0157 43.862 29.1278 39.5124 33.3881 37.01C37.6484 34.5076 42.4436 34.8 44.0985 37.6632Z" fill="#FF7878"/>
<path fill-rule="evenodd" clip-rule="evenodd" d="M35.794 40.1547C36.379 41.0887 36.1023 42.3239 35.1758 42.9136C34.469 43.3636 33.9231 43.9081 33.5109 44.5492C32.9149 45.476 31.6863 45.7403 30.7669 45.1395C29.8475 44.5386 29.5853 43.3002 30.1813 42.3733C30.9208 41.2234 31.8885 40.2755 33.0572 39.5315C33.9837 38.9418 35.209 39.2208 35.794 40.1547Z" fill="white"/>
</svg>
