<svg width="96" height="97" viewBox="0 0 96 97" fill="none" xmlns="http://www.w3.org/2000/svg">
<path d="M21 35.7783C21 35.7783 26.4286 41.7295 48.1429 41.7295C69.8571 41.7295 75.2857 35.7783 75.2857 35.7783L67.233 77.9564C67.1731 78.2701 67.0769 78.5759 66.8909 78.8356C65.9296 80.1779 61.8275 84.3799 48.1429 84.3799C34.4582 84.3799 30.3561 80.1779 29.3948 78.8356C29.2088 78.5759 29.1126 78.2701 29.0527 77.9564L21 35.7783Z" fill="#F47A53"/>
<path fill-rule="evenodd" clip-rule="evenodd" d="M20.1048 33.9897C20.8943 33.5946 21.8479 33.7643 22.4526 34.4035C22.4538 34.4046 22.4551 34.4059 22.4568 34.4075C22.4718 34.422 22.5097 34.4578 22.5733 34.5121C22.7004 34.6204 22.9309 34.8032 23.2866 35.0372C23.9974 35.5047 25.2147 36.1809 27.115 36.8753C30.9189 38.2654 37.4632 39.7294 48.1429 39.7294C58.8225 39.7294 65.3668 38.2654 69.1707 36.8753C71.071 36.1809 72.2884 35.5047 72.9992 35.0372C73.3549 34.8032 73.5854 34.6204 73.7124 34.5121C73.776 34.4578 73.814 34.422 73.829 34.4075C73.8306 34.4059 73.832 34.4046 73.8331 34.4035C74.4379 33.7643 75.3915 33.5946 76.1809 33.9897C76.9814 34.3904 77.4181 35.2741 77.2503 36.1533L69.1976 78.3314C69.1123 78.7779 68.9429 79.4053 68.5169 80.0001C67.0641 82.0287 62.2435 86.3798 48.1429 86.3798C34.0423 86.3798 29.2217 82.0287 27.7688 80.0001C27.3428 79.4053 27.1734 78.7779 27.0882 78.3314L19.0355 36.1533C18.8676 35.2741 19.3044 34.3904 20.1048 33.9897ZM72.9413 37.3932C74.6495 36.4757 75.2857 35.7782 75.2857 35.7782L67.233 77.9563C67.1732 78.2701 67.0769 78.5759 66.8909 78.8356C65.9296 80.1778 61.8275 84.3798 48.1429 84.3798C34.4583 84.3798 30.3561 80.1778 29.3948 78.8356C29.2089 78.5759 29.1126 78.2701 29.0527 77.9563L21 35.7782C21 35.7782 21.6363 36.4757 23.3445 37.3932C26.6258 39.1556 33.8626 41.7294 48.1429 41.7294C62.4232 41.7294 69.6599 39.1556 72.9413 37.3932Z" fill="#C1461E"/>
<path d="M44.0322 84.2413C45.2958 84.3306 46.6633 84.3798 48.1428 84.3798C49.6224 84.3798 50.9899 84.3306 52.2535 84.2413L54.6625 41.5336C52.6725 41.659 50.504 41.7294 48.1428 41.7294C45.7817 41.7294 43.6131 41.659 41.6232 41.5336L44.0322 84.2413Z" fill="#FFE4C4"/>
<path d="M67.2331 77.9563L75.2857 35.7782C75.2857 35.7782 72.3043 39.0467 61.9223 40.7392L59.1802 83.1612C64.2917 81.8125 66.2623 79.7133 66.8908 78.8357C67.0768 78.5761 67.1732 78.2701 67.2331 77.9563Z" fill="#E25F35"/>
<path d="M29.0469 77.9641L20.9942 35.786C20.9942 35.786 22.6258 37.5747 27.6779 39.1908L33.5436 81.9205C31.0023 80.7536 29.8447 79.4793 29.3896 78.8441C29.2036 78.5844 29.1068 78.2779 29.0469 77.9641Z" fill="#FFAA8F"/>
<path d="M67.2331 77.9563L75.2858 35.7782C75.2858 35.7782 73.6542 37.5669 68.6021 39.183L62.7365 81.9127C65.2777 80.7458 66.4354 79.4715 66.8905 78.8363C67.0765 78.5766 67.1732 78.2701 67.2331 77.9563Z" fill="#EE8E59"/>
<path fill-rule="evenodd" clip-rule="evenodd" d="M32.0265 46.0489C32.5806 46.0231 33.0879 46.4441 33.1596 46.9892L35.0658 61.4893C35.1375 62.0344 34.7463 62.4973 34.1922 62.5231C33.6381 62.549 33.1308 62.128 33.0591 61.5828L31.1529 47.0828C31.0813 46.5376 31.4724 46.0748 32.0265 46.0489Z" fill="#FFE6DF"/>
<path d="M60.8683 79.7382C60.8683 80.7425 59.9809 81.5567 58.8862 81.5567C57.7915 81.5567 56.9041 80.7425 56.9041 79.7382C56.9041 78.7339 57.7915 77.9198 58.8862 77.9198C59.9809 77.9198 60.8683 78.7339 60.8683 79.7382Z" fill="#C04923"/>
<path d="M65.7501 77.3893C65.7501 78.1426 65.0845 78.7532 64.2635 78.7532C63.4424 78.7532 62.7769 78.1426 62.7769 77.3893C62.7769 76.6361 63.4424 76.0255 64.2635 76.0255C65.0845 76.0255 65.7501 76.6361 65.7501 77.3893Z" fill="#C04923"/>
<path d="M61.721 74.7377C61.721 75.4909 61.0554 76.1015 60.2344 76.1015C59.4134 76.1015 58.7478 75.4909 58.7478 74.7377C58.7478 73.9845 59.4134 73.3739 60.2344 73.3739C61.0554 73.3739 61.721 73.9845 61.721 74.7377Z" fill="#C04923"/>
<path d="M67.6674 68.373C67.6674 69.1262 67.0018 69.7368 66.1808 69.7368C65.3598 69.7368 64.6942 69.1262 64.6942 68.373C64.6942 67.6198 65.3598 67.0092 66.1808 67.0092C67.0018 67.0092 67.6674 67.6198 67.6674 68.373Z" fill="#C04923"/>
<path d="M63.7032 69.737C63.7032 70.2391 63.2595 70.6462 62.7121 70.6462C62.1648 70.6462 61.7211 70.2391 61.7211 69.737C61.7211 69.2348 62.1648 68.8278 62.7121 68.8278C63.2595 68.8278 63.7032 69.2348 63.7032 69.737Z" fill="#C04923"/>
<path d="M67.6673 64.2817C67.6673 64.7838 67.2236 65.1909 66.6763 65.1909C66.1289 65.1909 65.6852 64.7838 65.6852 64.2817C65.6852 63.7795 66.1289 63.3724 66.6763 63.3724C67.2236 63.3724 67.6673 63.7795 67.6673 64.2817Z" fill="#C04923"/>
<path d="M66.5937 72.8434C66.5937 73.5967 65.9281 74.2073 65.1071 74.2073C64.2861 74.2073 63.6205 73.5967 63.6205 72.8434C63.6205 72.0902 64.2861 71.4796 65.1071 71.4796C65.9281 71.4796 66.5937 72.0902 66.5937 72.8434Z" fill="#C04923"/>
<path d="M64.6943 64.7363C64.6943 65.4895 64.0287 66.1001 63.2077 66.1001C62.3866 66.1001 61.7211 65.4895 61.7211 64.7363C61.7211 63.983 62.3866 63.3724 63.2077 63.3724C64.0287 63.3724 64.6943 63.983 64.6943 64.7363Z" fill="#C04923"/>
<path d="M66.6764 60.6447C66.6764 61.1468 66.2326 61.5539 65.6853 61.5539C65.1379 61.5539 64.6942 61.1468 64.6942 60.6447C64.6942 60.1425 65.1379 59.7355 65.6853 59.7355C66.2326 59.7355 66.6764 60.1425 66.6764 60.6447Z" fill="#C04923"/>
<path d="M54.8393 80.5717C54.8393 81.0738 54.3956 81.4809 53.8482 81.4809C53.3009 81.4809 52.8572 81.0738 52.8572 80.5717C52.8572 80.0695 53.3009 79.6625 53.8482 79.6625C54.3956 79.6625 54.8393 80.0695 54.8393 80.5717Z" fill="#C04923"/>
<path d="M75.2857 35.7781C75.2857 40.1605 63.1334 43.7131 48.1429 43.7131C33.1523 43.7131 21 40.1605 21 35.7781C21 31.3957 33.1523 27.8431 48.1429 27.8431C63.1334 27.8431 75.2857 31.3957 75.2857 35.7781Z" fill="#952C0A"/>
<path fill-rule="evenodd" clip-rule="evenodd" d="M67.8969 43.3086C62.7565 44.8114 55.7729 45.7131 48.1429 45.7131C40.5128 45.7131 33.5292 44.8114 28.3888 43.3086C25.8317 42.5611 23.6169 41.6324 21.9959 40.512C20.4359 39.4338 19 37.8672 19 35.7781C19 33.689 20.4359 32.1224 21.9959 31.0442C23.6169 29.9238 25.8317 28.9951 28.3888 28.2476C33.5292 26.7448 40.5128 25.8431 48.1429 25.8431C55.7729 25.8431 62.7565 26.7448 67.8969 28.2476C70.454 28.9951 72.6689 29.9238 74.2899 31.0442C75.8498 32.1224 77.2857 33.689 77.2857 35.7781C77.2857 37.8672 75.8498 39.4338 74.2899 40.512C72.6689 41.6324 70.454 42.5611 67.8969 43.3086ZM48.1429 43.7131C63.1334 43.7131 75.2857 40.1605 75.2857 35.7781C75.2857 31.3957 63.1334 27.8431 48.1429 27.8431C33.1523 27.8431 21 31.3957 21 35.7781C21 40.1605 33.1523 43.7131 48.1429 43.7131Z" fill="#C1461E"/>
<path d="M75.2857 34.7781C75.2857 39.1605 63.1334 42.7131 48.1429 42.7131C33.1523 42.7131 21 39.1605 21 34.7781C21 30.3957 33.1523 26.8431 48.1429 26.8431C63.1334 26.8431 75.2857 30.3957 75.2857 34.7781Z" fill="#E09C35"/>
<path d="M43.6875 26.1298C43.6875 29.5125 40.9452 32.2548 37.5625 32.2548C34.1798 32.2548 31.4375 29.5125 31.4375 26.1298C31.4375 22.747 34.1798 20.0048 37.5625 20.0048C40.9452 20.0048 43.6875 22.747 43.6875 26.1298Z" fill="#FFF8BB"/>
<path d="M28.8839 35.9629C28.8839 37.0724 27.9845 37.9718 26.875 37.9718C25.7655 37.9718 24.8661 37.0724 24.8661 35.9629C24.8661 34.8534 25.7655 33.954 26.875 33.954C27.9845 33.954 28.8839 34.8534 28.8839 35.9629Z" fill="#FFF8BB"/>
<path d="M46.1875 39.7441C46.1875 40.8536 45.2881 41.7531 44.1786 41.7531C43.0691 41.7531 42.1697 40.8536 42.1697 39.7441C42.1697 38.6346 43.0691 37.7352 44.1786 37.7352C45.2881 37.7352 46.1875 38.6346 46.1875 39.7441Z" fill="#FFF8BB"/>
<path d="M69.0916 37.1843C69.0916 38.2938 68.1921 39.1932 67.0826 39.1932C65.9732 39.1932 65.0737 38.2938 65.0737 37.1843C65.0737 36.0748 65.9732 35.1754 67.0826 35.1754C68.1921 35.1754 69.0916 36.0748 69.0916 37.1843Z" fill="#FFF8BB"/>
<path d="M53.2732 39.7441C53.2732 40.8536 52.3738 41.7531 51.2643 41.7531C50.1548 41.7531 49.2554 40.8536 49.2554 39.7441C49.2554 38.6346 50.1548 37.7352 51.2643 37.7352C52.3738 37.7352 53.2732 38.6346 53.2732 39.7441Z" fill="#FFF8BB"/>
<path d="M32.7902 29.6532C32.7902 33.0359 30.0479 35.7782 26.6652 35.7782C23.2824 35.7782 20.5402 33.0359 20.5402 29.6532C20.5402 26.2705 23.2824 23.5282 26.6652 23.5282C30.0479 23.5282 32.7902 26.2705 32.7902 29.6532Z" fill="#FFF8BB"/>
<path d="M60.9644 24.2782C60.9644 27.6609 58.2221 30.4032 54.8394 30.4032C51.4566 30.4032 48.7144 27.6609 48.7144 24.2782C48.7144 20.8955 51.4566 18.1532 54.8394 18.1532C58.2221 18.1532 60.9644 20.8955 60.9644 24.2782Z" fill="#FFF8BB"/>
<path d="M73.9709 31.2782C73.9709 34.6609 71.2287 37.4032 67.8459 37.4032C64.4632 37.4032 61.7209 34.6609 61.7209 31.2782C61.7209 27.8955 64.4632 25.1532 67.8459 25.1532C71.2287 25.1532 73.9709 27.8955 73.9709 31.2782Z" fill="#FFF8BB"/>
<path d="M52.8572 26.8431C52.8572 30.2259 50.1149 32.9681 46.7322 32.9681C43.3494 32.9681 40.6072 30.2259 40.6072 26.8431C40.6072 23.4604 43.3494 20.7181 46.7322 20.7181C50.1149 20.7181 52.8572 23.4604 52.8572 26.8431Z" fill="#FFF8BB"/>
<path d="M46.7322 20.5907C46.7322 23.1105 44.6895 25.1532 42.1697 25.1532C39.6499 25.1532 37.6072 23.1105 37.6072 20.5907C37.6072 18.0709 39.6499 16.0282 42.1697 16.0282C44.6895 16.0282 46.7322 18.0709 46.7322 20.5907Z" fill="#FFF8BB"/>
<path d="M36.5625 34.4969C36.5625 37.1721 34.3939 39.3407 31.7188 39.3407C29.0436 39.3407 26.875 37.1721 26.875 34.4969C26.875 31.8218 29.0436 29.6532 31.7188 29.6532C34.3939 29.6532 36.5625 31.8218 36.5625 34.4969Z" fill="#FFF8BB"/>
<path d="M44.9792 35.1001C44.9792 38.2375 42.4359 40.7809 39.2985 40.7809C36.1611 40.7809 33.6177 38.2375 33.6177 35.1001C33.6177 31.9627 36.1611 29.4193 39.2985 29.4193C42.4359 29.4193 44.9792 31.9627 44.9792 35.1001Z" fill="#FFF8BB"/>
<path d="M67.0828 34.5215C67.0828 37.6589 64.5394 40.2023 61.402 40.2023C58.2646 40.2023 55.7212 37.6589 55.7212 34.5215C55.7212 31.3841 58.2646 28.8407 61.402 28.8407C64.5394 28.8407 67.0828 31.3841 67.0828 34.5215Z" fill="#FFF8BB"/>
<path d="M53.8236 35.4761C53.8236 38.6135 51.2802 41.1569 48.1428 41.1569C45.0054 41.1569 42.462 38.6135 42.462 35.4761C42.462 32.3387 45.0054 29.7953 48.1428 29.7953C51.2802 29.7953 53.8236 32.3387 53.8236 35.4761Z" fill="#FFF8BB"/>
<path d="M62.2469 34.3105C62.2469 38.2764 59.032 41.4913 55.0662 41.4913C51.1003 41.4913 47.8854 38.2764 47.8854 34.3105C47.8854 30.3447 51.1003 27.1298 55.0662 27.1298C59.032 27.1298 62.2469 30.3447 62.2469 34.3105Z" fill="#FFF8BB"/>
<path d="M35.0447 24.2782C35.0447 26.798 33.002 28.8407 30.4822 28.8407C27.9624 28.8407 25.9197 26.798 25.9197 24.2782C25.9197 21.7584 27.9624 19.7157 30.4822 19.7157C33.002 19.7157 35.0447 21.7584 35.0447 24.2782Z" fill="#FFF8BB"/>
<path d="M52.9453 21.5673C52.9453 24.0871 50.9026 26.1298 48.3828 26.1298C45.863 26.1298 43.8203 24.0871 43.8203 21.5673C43.8203 19.0475 45.863 17.0048 48.3828 17.0048C50.9026 17.0048 52.9453 19.0475 52.9453 21.5673Z" fill="#FFF8BB"/>
<path d="M65.9498 24.5673C65.9498 27.0871 63.9071 29.1298 61.3873 29.1298C58.8675 29.1298 56.8248 27.0871 56.8248 24.5673C56.8248 22.0475 58.8675 20.0048 61.3873 20.0048C63.9071 20.0048 65.9498 22.0475 65.9498 24.5673Z" fill="#FFF8BB"/>
<path d="M70.8463 27.8431C70.8463 30.3629 68.8036 32.4056 66.2838 32.4056C63.764 32.4056 61.7213 30.3629 61.7213 27.8431C61.7213 25.3233 63.764 23.2806 66.2838 23.2806C68.8036 23.2806 70.8463 25.3233 70.8463 27.8431Z" fill="#FFF8BB"/>
<path d="M74.3327 27.7646C74.3327 29.69 72.7718 31.2509 70.8463 31.2509C68.9209 31.2509 67.36 29.69 67.36 27.7646C67.36 25.8391 68.9209 24.2782 70.8463 24.2782C72.7718 24.2782 74.3327 25.8391 74.3327 27.7646Z" fill="#FFF8BB"/>
<path d="M56.6871 19.5146C56.6871 21.44 55.1262 23.0009 53.2007 23.0009C51.2753 23.0009 49.7144 21.44 49.7144 19.5146C49.7144 17.5891 51.2753 16.0282 53.2007 16.0282C55.1262 16.0282 56.6871 17.5891 56.6871 19.5146Z" fill="#FFF8BB"/>
<path d="M38.2733 32.9539C38.2733 33.9614 37.4566 34.7781 36.4492 34.7781C35.4417 34.7781 34.625 33.9614 34.625 32.9539C34.625 31.9465 35.4417 31.1298 36.4492 31.1298C37.4566 31.1298 38.2733 31.9465 38.2733 32.9539Z" fill="#FDD27F"/>
<path d="M53.3626 24.825C53.3626 25.8325 52.5459 26.6492 51.5384 26.6492C50.5309 26.6492 49.7142 25.8325 49.7142 24.825C49.7142 23.8176 50.5309 23.0009 51.5384 23.0009C52.5459 23.0009 53.3626 23.8176 53.3626 24.825Z" fill="#FDD27F"/>
<path d="M64.6941 34.2298C64.6941 35.2373 63.8774 36.054 62.8699 36.054C61.8625 36.054 61.0458 35.2373 61.0458 34.2298C61.0458 33.2223 61.8625 32.4056 62.8699 32.4056C63.8774 32.4056 64.6941 33.2223 64.6941 34.2298Z" fill="#EEAC2B"/>
<path d="M68.9577 26.6491C68.9577 27.0903 68.6 27.448 68.1588 27.448C67.7175 27.448 67.3599 27.0903 67.3599 26.6491C67.3599 26.2079 67.7175 25.8502 68.1588 25.8502C68.6 25.8502 68.9577 26.2079 68.9577 26.6491Z" fill="#EEAC2B"/>
<path d="M71.3952 29.9287C71.3952 30.3699 71.0375 30.7276 70.5963 30.7276C70.155 30.7276 69.7974 30.3699 69.7974 29.9287C69.7974 29.4874 70.155 29.1298 70.5963 29.1298C71.0375 29.1298 71.3952 29.4874 71.3952 29.9287Z" fill="#FDD27F"/>
<path d="M72.444 35.778C72.444 36.2192 72.0863 36.5769 71.6451 36.5769C71.2039 36.5769 70.8462 36.2192 70.8462 35.778C70.8462 35.3368 71.2039 34.9791 71.6451 34.9791C72.0863 34.9791 72.444 35.3368 72.444 35.778Z" fill="#EEAC2B"/>
<path d="M67.8815 37.1843C67.8815 37.6255 67.5238 37.9832 67.0826 37.9832C66.6414 37.9832 66.2837 37.6255 66.2837 37.1843C66.2837 36.7431 66.6414 36.3854 67.0826 36.3854C67.5238 36.3854 67.8815 36.7431 67.8815 37.1843Z" fill="#FDD27F"/>
<path d="M68.4752 32.4057C68.4752 32.8469 68.1176 33.2046 67.6763 33.2046C67.2351 33.2046 66.8774 32.8469 66.8774 32.4057C66.8774 31.9645 67.2351 31.6068 67.6763 31.6068C68.1176 31.6068 68.4752 31.9645 68.4752 32.4057Z" fill="#EEAC2B"/>
<path d="M64.4677 28.3308C64.4677 28.772 64.11 29.1297 63.6688 29.1297C63.2276 29.1297 62.8699 28.772 62.8699 28.3308C62.8699 27.8895 63.2276 27.5319 63.6688 27.5319C64.11 27.5319 64.4677 27.8895 64.4677 28.3308Z" fill="#FDD27F"/>
<path d="M55.0661 39.142C55.0661 39.5833 54.7084 39.9409 54.2672 39.9409C53.8259 39.9409 53.4683 39.5833 53.4683 39.142C53.4683 38.7008 53.8259 38.3431 54.2672 38.3431C54.7084 38.3431 55.0661 38.7008 55.0661 39.142Z" fill="#EEAC2B"/>
<path d="M46.7947 20.3431C46.7947 20.6897 46.5138 20.9706 46.1673 20.9706C45.8207 20.9706 45.5398 20.6897 45.5398 20.3431C45.5398 19.9966 45.8207 19.7156 46.1673 19.7156C46.5138 19.7156 46.7947 19.9966 46.7947 20.3431Z" fill="#FDD27F"/>
<path d="M60.9643 23.0009C60.9643 23.4421 60.6066 23.7998 60.1654 23.7998C59.7241 23.7998 59.3665 23.4421 59.3665 23.0009C59.3665 22.5597 59.7241 22.202 60.1654 22.202C60.6066 22.202 60.9643 22.5597 60.9643 23.0009Z" fill="#FDD27F"/>
<path d="M54.455 20.0048C54.455 20.4461 54.0973 20.8037 53.6561 20.8037C53.2149 20.8037 52.8572 20.4461 52.8572 20.0048C52.8572 19.5636 53.2149 19.2059 53.6561 19.2059C54.0973 19.2059 54.455 19.5636 54.455 20.0048Z" fill="#FDD27F"/>
<path d="M57.4859 27.8432C57.4859 28.2844 57.1282 28.6421 56.687 28.6421C56.2457 28.6421 55.8881 28.2844 55.8881 27.8432C55.8881 27.402 56.2457 27.0443 56.687 27.0443C57.1282 27.0443 57.4859 27.402 57.4859 27.8432Z" fill="#EEAC2B"/>
<path d="M61.0458 30.2182C61.0458 30.6594 60.6881 31.0171 60.2469 31.0171C59.8057 31.0171 59.448 30.6594 59.448 30.2182C59.448 29.777 59.8057 29.4193 60.2469 29.4193C60.6881 29.4193 61.0458 29.777 61.0458 30.2182Z" fill="#EEAC2B"/>
<path d="M54.1615 29.9287C54.1615 30.3699 53.8038 30.7276 53.3626 30.7276C52.9214 30.7276 52.5637 30.3699 52.5637 29.9287C52.5637 29.4874 52.9214 29.1298 53.3626 29.1298C53.8038 29.1298 54.1615 29.4874 54.1615 29.9287Z" fill="#FDD27F"/>
<path d="M56.8247 34.1271C56.8247 34.7671 56.3058 35.286 55.6658 35.286C55.0257 35.286 54.5068 34.7671 54.5068 34.1271C54.5068 33.487 55.0257 32.9681 55.6658 32.9681C56.3058 32.9681 56.8247 33.487 56.8247 34.1271Z" fill="#FDD27F"/>
<path d="M61.0458 38.3431C61.0458 38.9832 60.5269 39.5021 59.8868 39.5021C59.2468 39.5021 58.7279 38.9832 58.7279 38.3431C58.7279 37.7031 59.2468 37.1842 59.8868 37.1842C60.5269 37.1842 61.0458 37.7031 61.0458 38.3431Z" fill="#FDD27F"/>
<path d="M46.1382 37.4369C46.1382 38.077 45.6193 38.5958 44.9792 38.5958C44.3392 38.5958 43.8203 38.077 43.8203 37.4369C43.8203 36.7968 44.3392 36.278 44.9792 36.278C45.6193 36.278 46.1382 36.7968 46.1382 37.4369Z" fill="#FDD27F"/>
<path d="M48 31.0172C48 31.6573 47.4811 32.1761 46.8411 32.1761C46.201 32.1761 45.6821 31.6573 45.6821 31.0172C45.6821 30.3771 46.201 29.8583 46.8411 29.8583C47.4811 29.8583 48 30.3771 48 31.0172Z" fill="#FDD27F"/>
<path d="M31.3691 34.7782C31.3691 35.4183 30.8503 35.9371 30.2102 35.9371C29.5701 35.9371 29.0513 35.4183 29.0513 34.7782C29.0513 34.1381 29.5701 33.6193 30.2102 33.6193C30.8503 33.6193 31.3691 34.1381 31.3691 34.7782Z" fill="#FDD27F"/>
<path d="M29.0513 27.0443C29.0513 27.6844 28.5324 28.2032 27.8923 28.2032C27.2523 28.2032 26.7334 27.6844 26.7334 27.0443C26.7334 26.4042 27.2523 25.8854 27.8923 25.8854C28.5324 25.8854 29.0513 26.4042 29.0513 27.0443Z" fill="#FDD27F"/>
<path d="M39.8804 25.4371C39.8804 26.0772 39.3615 26.5961 38.7214 26.5961C38.0814 26.5961 37.5625 26.0772 37.5625 25.4371C37.5625 24.7971 38.0814 24.2782 38.7214 24.2782C39.3615 24.2782 39.8804 24.7971 39.8804 25.4371Z" fill="#FDD27F"/>
<path d="M42.5521 19.7156C42.5521 20.4534 41.954 21.0515 41.2163 21.0515C40.4785 21.0515 39.8804 20.4534 39.8804 19.7156C39.8804 18.9779 40.4785 18.3798 41.2163 18.3798C41.954 18.3798 42.5521 18.9779 42.5521 19.7156Z" fill="#FFFFFE"/>
<path d="M51.6024 35.4034C51.6024 36.0515 51.077 36.5769 50.4289 36.5769C49.7808 36.5769 49.2554 36.0515 49.2554 35.4034C49.2554 34.7553 49.7808 34.2299 50.4289 34.2299C51.077 34.2299 51.6024 34.7553 51.6024 35.4034Z" fill="#FFFFFE"/>
<path d="M38.2733 37.4031C38.2733 38.0513 37.7479 38.5767 37.0998 38.5767C36.4517 38.5767 35.9263 38.0513 35.9263 37.4031C35.9263 36.755 36.4517 36.2296 37.0998 36.2296C37.7479 36.2296 38.2733 36.755 38.2733 37.4031Z" fill="#FFFFFE"/>
<path d="M43.3432 32.7803C43.3432 33.4285 42.8178 33.9539 42.1696 33.9539C41.5215 33.9539 40.9961 33.4285 40.9961 32.7803C40.9961 32.1322 41.5215 31.6068 42.1696 31.6068C42.8178 31.6068 43.3432 32.1322 43.3432 32.7803Z" fill="#FFFFFE"/>
<path d="M46.1674 25.1531C46.1674 25.8013 45.642 26.3267 44.9938 26.3267C44.3457 26.3267 43.8203 25.8013 43.8203 25.1531C43.8203 24.505 44.3457 23.9796 44.9938 23.9796C45.642 23.9796 46.1674 24.505 46.1674 25.1531Z" fill="#FFFFFE"/>
<path d="M33.7162 28.6217C33.7162 29.2698 33.1908 29.7952 32.5427 29.7952C31.8945 29.7952 31.3691 29.2698 31.3691 28.6217C31.3691 27.9735 31.8945 27.4481 32.5427 27.4481C33.1908 27.4481 33.7162 27.9735 33.7162 28.6217Z" fill="#FFFFFE"/>
<path d="M31.3983 22.8061C31.3983 23.4542 30.8729 23.9796 30.2248 23.9796C29.5767 23.9796 29.0513 23.4542 29.0513 22.8061C29.0513 22.158 29.5767 21.6326 30.2248 21.6326C30.8729 21.6326 31.3983 22.158 31.3983 22.8061Z" fill="#FFFFFE"/>
<path d="M26.4291 31.6465C26.4291 32.4353 25.7897 33.0747 25.0009 33.0747C24.2121 33.0747 23.5726 32.4353 23.5726 31.6465C23.5726 30.8577 24.2121 30.2182 25.0009 30.2182C25.7897 30.2182 26.4291 30.8577 26.4291 31.6465Z" fill="#FFFFFE"/>
</svg>
