<svg width="96" height="97" viewBox="0 0 96 97" fill="none" xmlns="http://www.w3.org/2000/svg">
<path d="M55.1868 30.0904C56.5905 29.7395 60.938 29.4568 62.9362 29.3593C63.3262 29.3593 65.599 28.8129 70.9781 30.0904C76.1664 31.3225 78.3376 38.4247 78.5813 42.2263C79.1174 46.8564 80.3944 58.193 81.2132 66.498C82.032 74.8031 72.1039 79.0101 62.6039 79.0101C52.0148 79.0101 45.3903 73.1976 45.3904 66.498C45.3904 62.3033 46.9695 49.5955 47.4374 42.2263C48.0223 33.0147 53.4322 30.529 55.1868 30.0904Z" fill="#F6EDC0"/>
<path fill-rule="evenodd" clip-rule="evenodd" d="M62.8584 27.3607C62.8737 27.3592 62.9023 27.3562 62.9482 27.351L62.9703 27.3485C63.0776 27.3363 63.2339 27.3186 63.4239 27.3017C63.8373 27.265 64.3976 27.2331 65.122 27.2461C66.569 27.272 68.6252 27.476 71.4402 28.1445C74.8551 28.9555 77.0723 31.6422 78.417 34.2888C79.7642 36.9405 80.429 39.9088 80.5737 42.0453C81.1135 46.7096 82.3859 58.0089 83.2035 66.3018C83.7132 71.4716 80.7929 75.2484 76.7891 77.5941C72.8342 79.9112 67.6017 81.0101 62.6039 81.0101C51.431 81.0101 43.3903 74.7594 43.3904 66.498C43.3904 64.2772 43.7998 59.9281 44.248 55.3574C44.3011 54.8155 44.355 54.2692 44.409 53.721C44.8179 49.5707 45.2372 45.3155 45.4414 42.0995C45.7595 37.0905 47.4109 33.726 49.3869 31.5305C51.3339 29.3672 53.4933 28.4522 54.7017 28.1501C55.5902 27.928 57.1983 27.7602 58.6715 27.6368C60.2117 27.5077 61.8219 27.4113 62.8388 27.3617L62.8584 27.3607ZM78.5813 42.2263C78.3376 38.4247 76.1664 31.3225 70.9781 30.0904C66.3129 28.9825 63.9842 29.2464 63.1938 29.336C63.0729 29.3497 62.988 29.3593 62.9362 29.3593C60.938 29.4568 56.5905 29.7395 55.1868 30.0904C53.4322 30.529 48.0223 33.0147 47.4374 42.2263C47.2308 45.4799 46.8076 49.7743 46.3994 53.9171C45.8829 59.1575 45.3904 64.1554 45.3904 66.498C45.3903 73.1976 52.0148 79.0101 62.6039 79.0101C72.1039 79.0101 82.032 74.8031 81.2132 66.498C80.3944 58.193 79.1174 46.8564 78.5813 42.2263Z" fill="#66592B"/>
<path d="M78.4817 70.0726C78.4817 73.5934 71.696 76.4476 63.3254 76.4476C54.9549 76.4476 48.1692 73.5934 48.1692 70.0726C48.1692 66.5518 54.9549 63.6976 63.3254 63.6976C71.696 63.6976 78.4817 66.5518 78.4817 70.0726Z" fill="#E3D99C"/>
<path fill-rule="evenodd" clip-rule="evenodd" d="M62.6086 29.3759C63.75 29.4853 65.1852 29.7081 66.958 30.1291C72.1422 31.3603 74.3117 38.4568 74.5552 42.2554C75.0909 46.8819 76.3668 58.2095 77.185 66.508C77.9436 74.202 69.471 78.3761 60.6671 78.9433C61.2968 78.9875 61.9426 79.0101 62.6039 79.0101C72.1039 79.0101 82.032 74.8031 81.2132 66.498C80.3944 58.193 79.1174 46.8564 78.5813 42.2263C78.3376 38.4247 76.1664 31.3225 70.9781 30.0904C66.3129 28.9825 63.9842 29.2464 63.1939 29.336C63.0729 29.3497 62.988 29.3593 62.9363 29.3593C62.8331 29.3643 62.7236 29.3699 62.6086 29.3759Z" fill="#D0C791"/>
<path d="M79.2912 60.5207C79.3038 61.4008 78.6706 62.1235 77.8768 62.1349C77.0829 62.1464 76.4291 61.4421 76.4165 60.562C76.4038 59.6819 77.0371 58.9592 77.8309 58.9478C78.6247 58.9363 79.2785 59.6406 79.2912 60.5207Z" fill="#BAAE69"/>
<path d="M79.919 65.8332C79.9316 66.7133 79.2984 67.436 78.5046 67.4474C77.7107 67.4589 77.0569 66.7546 77.0443 65.8745C77.0316 64.9944 77.6649 64.2717 78.4587 64.2603C79.2525 64.2488 79.9063 64.9531 79.919 65.8332Z" fill="#BAAE69"/>
<path d="M74.5851 65.2498C74.5978 66.1299 73.9645 66.8526 73.1707 66.8641C72.3769 66.8755 71.7231 66.1713 71.7104 65.2912C71.6978 64.411 72.331 63.6883 73.1249 63.6769C73.9187 63.6655 74.5725 64.3697 74.5851 65.2498Z" fill="#BAAE69"/>
<path d="M69.2516 63.7492C69.2643 64.6293 68.631 65.352 67.8372 65.3635C67.0434 65.3749 66.3896 64.6707 66.3769 63.7905C66.3643 62.9104 66.9975 62.1877 67.7914 62.1763C68.5852 62.1649 69.239 62.8691 69.2516 63.7492Z" fill="#BAAE69"/>
<path d="M71.1745 70.1541C71.1871 71.0342 70.5539 71.7569 69.7601 71.7684C68.9662 71.7798 68.3124 71.0756 68.2998 70.1955C68.2871 69.3153 68.9204 68.5926 69.7142 68.5812C70.508 68.5698 71.1618 69.274 71.1745 70.1541Z" fill="#BAAE69"/>
<path d="M67.4063 75.0962C67.419 75.9764 66.7857 76.6991 65.9919 76.7105C65.198 76.7219 64.5443 76.0177 64.5316 75.1376C64.5189 74.2575 65.1522 73.5347 65.946 73.5233C66.7398 73.5119 67.3936 74.2161 67.4063 75.0962Z" fill="#BAAE69"/>
<path d="M62.2786 72.8572C62.2871 73.4471 61.8626 73.9316 61.3305 73.9392C60.7984 73.9469 60.3602 73.4748 60.3517 72.8849C60.3432 72.295 60.7677 71.8105 61.2998 71.8029C61.8319 71.7952 62.2701 72.2672 62.2786 72.8572Z" fill="#BAAE69"/>
<path d="M58.106 74.021C58.1145 74.6109 57.69 75.0954 57.1579 75.103C56.6258 75.1107 56.1875 74.6386 56.1791 74.0487C56.1706 73.4588 56.595 72.9743 57.1271 72.9667C57.6593 72.959 58.0975 73.431 58.106 74.021Z" fill="#BAAE69"/>
<path d="M61.3305 69.1066C61.3389 69.6965 60.9145 70.1809 60.3824 70.1886C59.8503 70.1962 59.412 69.7242 59.4035 69.1343C59.3951 68.5443 59.8195 68.0599 60.3516 68.0522C60.8837 68.0446 61.322 68.5166 61.3305 69.1066Z" fill="#BAAE69"/>
<path d="M71.7029 73.7316C71.7114 74.3215 71.2869 74.8059 70.7548 74.8136C70.2227 74.8212 69.7845 74.3492 69.776 73.7593C69.7675 73.1693 70.192 72.6849 70.7241 72.6772C71.2562 72.6696 71.6944 73.1416 71.7029 73.7316Z" fill="#BAAE69"/>
<path d="M64.289 64.838C64.2974 65.4279 63.873 65.9124 63.3409 65.92C62.8088 65.9277 62.3705 65.4557 62.362 64.8657C62.3536 64.2758 62.778 63.7913 63.3101 63.7837C63.8422 63.776 64.2805 64.2481 64.289 64.838Z" fill="#BAAE69"/>
<path d="M68.5787 59.6832C68.5855 60.16 68.2425 60.5516 67.8124 60.5578C67.3823 60.564 67.0281 60.1824 67.0212 59.7056C67.0143 59.2288 67.3574 58.8372 67.7875 58.831C68.2176 58.8248 68.5718 59.2064 68.5787 59.6832Z" fill="#BAAE69"/>
<path d="M76.3812 57.277C76.388 57.7538 76.0449 58.1454 75.6149 58.1515C75.1848 58.1577 74.8306 57.7762 74.8237 57.2994C74.8168 56.8225 75.1599 56.431 75.59 56.4248C76.0201 56.4186 76.3743 56.8001 76.3812 57.277Z" fill="#BAAE69"/>
<path d="M78.6325 52.8707C78.6394 53.3475 78.2963 53.7391 77.8662 53.7453C77.4361 53.7515 77.0819 53.3699 77.075 52.8931C77.0682 52.4163 77.4113 52.0247 77.8414 52.0185C78.2714 52.0123 78.6257 52.3939 78.6325 52.8707Z" fill="#BAAE69"/>
<path d="M74.5957 55.5277C74.6025 56.0045 74.2594 56.3961 73.8293 56.4023C73.3992 56.4085 73.045 56.0269 73.0382 55.5501C73.0313 55.0733 73.3744 54.6817 73.8045 54.6755C74.2346 54.6693 74.5888 55.0509 74.5957 55.5277Z" fill="#BAAE69"/>
<path d="M76.5913 62.9966C76.5981 63.4734 76.255 63.865 75.8249 63.8711C75.3949 63.8773 75.0406 63.4958 75.0338 63.019C75.0269 62.5421 75.37 62.1506 75.8001 62.1444C76.2302 62.1382 76.5844 62.5197 76.5913 62.9966Z" fill="#BAAE69"/>
<path d="M71.3305 66.2475C71.3374 66.7244 70.9943 67.1159 70.5642 67.1221C70.1341 67.1283 69.7799 66.7468 69.773 66.2699C69.7662 65.7931 70.1093 65.4015 70.5394 65.3954C70.9694 65.3892 71.3237 65.7707 71.3305 66.2475Z" fill="#BAAE69"/>
<path d="M77.2844 70.6607C77.3024 71.9171 76.3984 72.9488 75.2652 72.9651C74.1319 72.9814 73.1986 71.9761 73.1806 70.7197C73.1625 69.4633 74.0665 68.4315 75.1997 68.4152C76.333 68.3989 77.2663 69.4043 77.2844 70.6607Z" fill="#BAAE69"/>
<path d="M67.3966 69.4137C67.4146 70.6701 66.5106 71.7019 65.3774 71.7182C64.2441 71.7345 63.3108 70.7292 63.2927 69.4728C63.2747 68.2163 64.1787 67.1846 65.3119 67.1683C66.4452 67.152 67.3785 68.1573 67.3966 69.4137Z" fill="#BAAE69"/>
<path d="M74.1997 60.1603C74.2177 61.4167 73.3137 62.4485 72.1805 62.4648C71.0472 62.4811 70.1139 61.4758 70.0958 60.2193C70.0778 58.9629 70.9818 57.9312 72.115 57.9149C73.2483 57.8986 74.1816 58.9039 74.1997 60.1603Z" fill="#BAAE69"/>
<path fill-rule="evenodd" clip-rule="evenodd" d="M52.1997 38.082C52.6432 38.4111 52.736 39.0374 52.407 39.481C52.0825 39.9182 51.0672 42.0263 50.7252 46.0327C50.3757 50.1269 50.0803 54.1052 49.9764 55.5804C49.9376 56.1313 49.4595 56.5465 48.9086 56.5077C48.3577 56.4689 47.9425 55.9908 47.9813 55.4399C48.0858 53.9567 48.382 49.9684 48.7325 45.8626C49.0905 41.669 50.1668 39.1437 50.8008 38.2893C51.1298 37.8457 51.7562 37.753 52.1997 38.082Z" fill="white"/>
<path fill-rule="evenodd" clip-rule="evenodd" d="M71.084 41.2425C70.2579 41.3051 69.639 42.0255 69.7016 42.8515L71.6024 67.9275C71.665 68.7536 72.3855 69.3724 73.2115 69.3098C74.0376 69.2472 74.6565 68.5268 74.5938 67.7007L72.693 42.6248C72.6304 41.7987 71.91 41.1798 71.084 41.2425Z" fill="#C0B576"/>
<path fill-rule="evenodd" clip-rule="evenodd" d="M54.496 41.2425C55.3221 41.3051 55.9409 42.0255 55.8783 42.8515L53.9775 67.9275C53.9149 68.7536 53.1945 69.3724 52.3684 69.3098C51.5424 69.2472 50.9235 68.5268 50.9861 67.7007L52.8869 42.6248C52.9495 41.7987 53.6699 41.1798 54.496 41.2425Z" fill="#D0C791"/>
<path fill-rule="evenodd" clip-rule="evenodd" d="M62.6438 42.7002C63.4722 42.7002 64.1438 43.3718 64.1438 44.2002V71.6887C64.1438 72.5171 63.4722 73.1887 62.6438 73.1887C61.8154 73.1887 61.1438 72.5171 61.1438 71.6887V44.2002C61.1438 43.3718 61.8154 42.7002 62.6438 42.7002Z" fill="#AEA467"/>
<path d="M62.6203 36.3908C68.4345 36.3908 73.1478 34.5644 73.1478 32.3114V21.3444H52.0928V32.3114C52.0928 34.5644 56.8061 36.3908 62.6203 36.3908Z" fill="#C8BC78"/>
<path fill-rule="evenodd" clip-rule="evenodd" d="M50.0928 21.3444C50.0928 20.2398 50.9882 19.3444 52.0928 19.3444H73.1478C74.2524 19.3444 75.1478 20.2398 75.1478 21.3444V32.3114C75.1478 33.6261 74.4523 34.6586 73.6715 35.3739C72.8921 36.0881 71.8749 36.6393 70.787 37.0608C68.5982 37.909 65.7102 38.3908 62.6203 38.3908C59.5304 38.3908 56.6424 37.909 54.4536 37.0608C53.3656 36.6393 52.3485 36.0881 51.569 35.3739C50.7882 34.6586 50.0928 33.6261 50.0928 32.3114V21.3444ZM73.1478 32.3114C73.1478 34.5644 68.4345 36.3908 62.6203 36.3908C56.8061 36.3908 52.0928 34.5644 52.0928 32.3114V21.3444H73.1478V32.3114Z" fill="#66592B"/>
<path d="M73.1478 32.3114V21.3444H68.3226L68.509 35.6934C71.3078 34.9602 73.1478 33.719 73.1478 32.3114Z" fill="#AA9C4E"/>
<path d="M73.1478 21.5089C73.1478 23.7618 68.4345 25.5883 62.6203 25.5883C56.8061 25.5883 52.0928 23.7618 52.0928 21.5089C52.0928 19.2559 56.8061 17.4294 62.6203 17.4294C68.4345 17.4294 73.1478 19.2559 73.1478 21.5089Z" fill="#D6CD9F"/>
<path fill-rule="evenodd" clip-rule="evenodd" d="M70.787 26.2583C68.5982 27.1065 65.7102 27.5883 62.6203 27.5883C59.5304 27.5883 56.6424 27.1065 54.4536 26.2583C53.3656 25.8367 52.3485 25.2855 51.569 24.5714C50.7882 23.8561 50.0928 22.8236 50.0928 21.5089C50.0928 20.1941 50.7882 19.1616 51.569 18.4463C52.3485 17.7322 53.3656 17.181 54.4536 16.7594C56.6424 15.9112 59.5304 15.4294 62.6203 15.4294C65.7102 15.4294 68.5982 15.9112 70.787 16.7594C71.8749 17.181 72.8921 17.7322 73.6715 18.4463C74.4523 19.1616 75.1478 20.1941 75.1478 21.5089C75.1478 22.8236 74.4523 23.8561 73.6715 24.5714C72.8921 25.2855 71.8749 25.8367 70.787 26.2583ZM62.6203 25.5883C68.4345 25.5883 73.1478 23.7618 73.1478 21.5089C73.1478 19.2559 68.4345 17.4294 62.6203 17.4294C56.8061 17.4294 52.0928 19.2559 52.0928 21.5089C52.0928 23.7618 56.8061 25.5883 62.6203 25.5883Z" fill="#66592B"/>
<path d="M65.3906 21.5088C65.3906 22.8901 62.5009 24.0099 58.9362 24.0099C55.3715 24.0099 52.4818 22.8901 52.4818 21.5088C52.4818 20.1275 55.3715 19.0078 58.9362 19.0078C62.5009 19.0078 65.3906 20.1275 65.3906 21.5088Z" fill="#FFFBE2"/>
<path d="M65.3906 21.3444C65.3906 22.1122 64.2702 22.7347 62.8881 22.7347C61.506 22.7347 60.3856 22.1122 60.3856 21.3444C60.3856 20.5766 61.506 19.9541 62.8881 19.9541C64.2702 19.9541 65.3906 20.5766 65.3906 21.3444Z" fill="#66592B"/>
<path fill-rule="evenodd" clip-rule="evenodd" d="M54.8539 27.8851C55.4062 27.8851 55.8539 28.3328 55.8539 28.8851V32.8226C55.8539 33.3749 55.4062 33.8226 54.8539 33.8226C54.3016 33.8226 53.8539 33.3749 53.8539 32.8226V28.8851C53.8539 28.3328 54.3016 27.8851 54.8539 27.8851Z" fill="#F0E5A8"/>
<path d="M24.5358 38.4103C25.9395 38.0594 30.287 37.7767 32.2852 37.6793C32.6752 37.6793 34.948 37.1329 40.3271 38.4103C45.5154 39.6425 47.6866 46.7446 47.9303 50.5462C48.4664 55.1764 49.7434 66.5129 50.5622 74.818C51.381 83.123 41.4529 87.3301 31.9529 87.3301C21.3638 87.3301 14.7393 81.5176 14.7394 74.818C14.7394 70.6233 16.3185 57.9155 16.7864 50.5462C17.3713 41.3346 22.7812 38.849 24.5358 38.4103Z" fill="#DBF3FE"/>
<path fill-rule="evenodd" clip-rule="evenodd" d="M32.2074 35.6807C32.2227 35.6791 32.2513 35.6762 32.2972 35.671L32.3193 35.6684C32.4266 35.6563 32.5829 35.6386 32.7729 35.6217C33.1863 35.585 33.7466 35.5531 34.471 35.5661C35.918 35.592 37.9742 35.7959 40.7892 36.4644C44.2041 37.2754 46.4213 39.9621 47.766 42.6088C49.1132 45.2605 49.778 48.2287 49.9227 50.3653C50.4625 55.0295 51.7349 66.3289 52.5525 74.6217C53.0622 79.7916 50.1419 83.5683 46.1381 85.9141C42.1832 88.2311 36.9507 89.3301 31.9529 89.3301C20.78 89.3301 12.7393 83.0793 12.7394 74.8179C12.7394 72.5972 13.1488 68.248 13.597 63.6774C13.6501 63.1355 13.704 62.5891 13.758 62.041C14.1669 57.8907 14.5862 53.6354 14.7904 50.4195C15.1085 45.4104 16.7599 42.046 18.7359 39.8505C20.6829 37.6872 22.8423 36.7722 24.0507 36.47C24.9392 36.2479 26.5473 36.0802 28.0205 35.9567C29.5607 35.8277 31.1709 35.7312 32.1878 35.6816L32.2074 35.6807ZM47.9303 50.5462C47.6866 46.7446 45.5154 39.6425 40.3271 38.4103C35.6619 37.3024 33.3332 37.5663 32.5428 37.6559C32.4219 37.6696 32.337 37.6793 32.2852 37.6793C30.287 37.7767 25.9395 38.0594 24.5358 38.4103C22.7812 38.849 17.3713 41.3346 16.7864 50.5462C16.5798 53.7999 16.1566 58.0942 15.7484 62.2371C15.2319 67.4774 14.7394 72.4753 14.7394 74.818C14.7393 81.5176 21.3638 87.3301 31.9529 87.3301C41.4529 87.3301 51.381 83.123 50.5622 74.818C49.7434 66.5129 48.4664 55.1764 47.9303 50.5462Z" fill="#2B4666"/>
<path d="M47.8307 78.3926C47.8307 81.9134 41.045 84.7676 32.6744 84.7676C24.3039 84.7676 17.5182 81.9134 17.5182 78.3926C17.5182 74.8718 24.3039 72.0176 32.6744 72.0176C41.045 72.0176 47.8307 74.8718 47.8307 78.3926Z" fill="#C3E8F9"/>
<path fill-rule="evenodd" clip-rule="evenodd" d="M31.9576 37.6958C33.099 37.8053 34.5342 38.0281 36.307 38.4491C41.4912 39.6803 43.6607 46.7768 43.9042 50.5754C44.4399 55.2019 45.7158 66.5295 46.534 74.8279C47.2926 82.522 38.82 86.6961 30.0161 87.2633C30.6458 87.3074 31.2916 87.3301 31.9529 87.3301C41.4529 87.3301 51.381 83.123 50.5622 74.818C49.7434 66.5129 48.4664 55.1764 47.9303 50.5462C47.6866 46.7446 45.5154 39.6425 40.3271 38.4103C35.6619 37.3024 33.3332 37.5663 32.5429 37.6559C32.4219 37.6696 32.337 37.6793 32.2853 37.6793C32.1821 37.6843 32.0726 37.6898 31.9576 37.6958Z" fill="#AEDBEE"/>
<path d="M48.6402 68.8406C48.6528 69.7207 48.0196 70.4435 47.2258 70.4549C46.4319 70.4663 45.7781 69.7621 45.7655 68.882C45.7528 68.0019 46.3861 67.2791 47.1799 67.2677C47.9737 67.2563 48.6275 67.9605 48.6402 68.8406Z" fill="white"/>
<path d="M49.268 74.1531C49.2806 75.0332 48.6474 75.756 47.8536 75.7674C47.0597 75.7788 46.4059 75.0746 46.3933 74.1945C46.3806 73.3144 47.0139 72.5916 47.8077 72.5802C48.6015 72.5688 49.2553 73.273 49.268 74.1531Z" fill="white"/>
<path d="M43.9341 73.5697C43.9468 74.4499 43.3135 75.1726 42.5197 75.184C41.7259 75.1954 41.0721 74.4912 41.0594 73.6111C41.0468 72.731 41.68 72.0083 42.4739 71.9968C43.2677 71.9854 43.9215 72.6896 43.9341 73.5697Z" fill="white"/>
<path d="M38.6006 72.0691C38.6133 72.9493 37.98 73.672 37.1862 73.6834C36.3924 73.6948 35.7386 72.9906 35.7259 72.1105C35.7133 71.2304 36.3465 70.5076 37.1404 70.4962C37.9342 70.4848 38.588 71.189 38.6006 72.0691Z" fill="white"/>
<path d="M40.5235 78.474C40.5361 79.3542 39.9029 80.0769 39.1091 80.0883C38.3152 80.0997 37.6614 79.3955 37.6488 78.5154C37.6361 77.6353 38.2694 76.9126 39.0632 76.9011C39.857 76.8897 40.5108 77.5939 40.5235 78.474Z" fill="white"/>
<path d="M36.7553 83.4162C36.768 84.2963 36.1347 85.019 35.3409 85.0304C34.547 85.0419 33.8933 84.3377 33.8806 83.4575C33.8679 82.5774 34.5012 81.8547 35.295 81.8433C36.0888 81.8319 36.7426 82.5361 36.7553 83.4162Z" fill="white"/>
<path d="M31.6276 81.1771C31.6361 81.7671 31.2116 82.2515 30.6795 82.2592C30.1474 82.2668 29.7092 81.7948 29.7007 81.2048C29.6922 80.6149 30.1167 80.1305 30.6488 80.1228C31.1809 80.1151 31.6191 80.5872 31.6276 81.1771Z" fill="white"/>
<path d="M27.455 82.3409C27.4635 82.9309 27.039 83.4153 26.5069 83.423C25.9748 83.4306 25.5365 82.9586 25.5281 82.3687C25.5196 81.7787 25.944 81.2943 26.4761 81.2866C27.0082 81.279 27.4465 81.751 27.455 82.3409Z" fill="white"/>
<path d="M30.6795 77.4265C30.6879 78.0164 30.2635 78.5009 29.7314 78.5085C29.1993 78.5162 28.761 78.0442 28.7525 77.4542C28.7441 76.8643 29.1685 76.3798 29.7006 76.3722C30.2327 76.3645 30.671 76.8366 30.6795 77.4265Z" fill="white"/>
<path d="M41.0519 82.0515C41.0604 82.6414 40.6359 83.1259 40.1038 83.1335C39.5717 83.1412 39.1335 82.6692 39.125 82.0792C39.1165 81.4893 39.541 81.0048 40.0731 80.9972C40.6052 80.9895 41.0434 81.4616 41.0519 82.0515Z" fill="white"/>
<path d="M33.638 73.158C33.6464 73.7479 33.222 74.2323 32.6899 74.24C32.1578 74.2476 31.7195 73.7756 31.711 73.1857C31.7026 72.5957 32.127 72.1113 32.6591 72.1036C33.1912 72.096 33.6295 72.568 33.638 73.158Z" fill="white"/>
<path d="M37.9277 68.0032C37.9345 68.48 37.5915 68.8716 37.1614 68.8777C36.7313 68.8839 36.3771 68.5024 36.3702 68.0256C36.3633 67.5487 36.7064 67.1572 37.1365 67.151C37.5666 67.1448 37.9208 67.5263 37.9277 68.0032Z" fill="white"/>
<path d="M45.7302 65.5969C45.737 66.0737 45.3939 66.4653 44.9639 66.4715C44.5338 66.4777 44.1796 66.0961 44.1727 65.6193C44.1658 65.1425 44.5089 64.7509 44.939 64.7447C45.3691 64.7385 45.7233 65.1201 45.7302 65.5969Z" fill="white"/>
<path d="M47.9815 61.1907C47.9884 61.6675 47.6453 62.0591 47.2152 62.0652C46.7851 62.0714 46.4309 61.6899 46.424 61.2131C46.4172 60.7362 46.7603 60.3447 47.1904 60.3385C47.6204 60.3323 47.9747 60.7138 47.9815 61.1907Z" fill="white"/>
<path d="M43.9447 63.8476C43.9515 64.3245 43.6084 64.716 43.1783 64.7222C42.7482 64.7284 42.394 64.3469 42.3872 63.87C42.3803 63.3932 42.7234 63.0016 43.1535 62.9955C43.5836 62.9893 43.9378 63.3708 43.9447 63.8476Z" fill="white"/>
<path d="M45.9403 71.3165C45.9471 71.7933 45.604 72.1849 45.1739 72.1911C44.7439 72.1973 44.3896 71.8157 44.3828 71.3389C44.3759 70.8621 44.719 70.4705 45.1491 70.4643C45.5792 70.4581 45.9334 70.8397 45.9403 71.3165Z" fill="white"/>
<path d="M40.6795 74.5675C40.6864 75.0443 40.3433 75.4359 39.9132 75.4421C39.4831 75.4483 39.1289 75.0667 39.122 74.5899C39.1152 74.1131 39.4583 73.7215 39.8884 73.7153C40.3184 73.7091 40.6727 74.0906 40.6795 74.5675Z" fill="white"/>
<path d="M46.6334 78.9806C46.6514 80.237 45.7474 81.2688 44.6142 81.2851C43.4809 81.3014 42.5476 80.2961 42.5296 79.0397C42.5115 77.7832 43.4155 76.7515 44.5487 76.7352C45.682 76.7189 46.6153 77.7242 46.6334 78.9806Z" fill="white"/>
<path d="M36.7456 77.7337C36.7636 78.9901 35.8596 80.0218 34.7264 80.0381C33.5931 80.0544 32.6598 79.0491 32.6417 77.7927C32.6237 76.5363 33.5277 75.5045 34.6609 75.4882C35.7942 75.4719 36.7275 76.4773 36.7456 77.7337Z" fill="white"/>
<path d="M43.5487 68.4803C43.5667 69.7367 42.6627 70.7684 41.5295 70.7847C40.3962 70.801 39.4629 69.7957 39.4448 68.5393C39.4268 67.2829 40.3308 66.2511 41.464 66.2348C42.5973 66.2185 43.5306 67.2238 43.5487 68.4803Z" fill="white"/>
<path fill-rule="evenodd" clip-rule="evenodd" d="M21.5487 46.402C21.9922 46.7311 22.085 47.3574 21.756 47.8009C21.4315 48.2382 20.4162 50.3462 20.0742 54.3526C19.7247 58.4468 19.4293 62.4252 19.3254 63.9003C19.2866 64.4512 18.8085 64.8664 18.2576 64.8276C17.7067 64.7888 17.2915 64.3108 17.3303 63.7598C17.4348 62.2767 17.731 58.2883 18.0815 54.1825C18.4395 49.9889 19.5158 47.4636 20.1498 46.6092C20.4788 46.1657 21.1052 46.0729 21.5487 46.402Z" fill="white"/>
<path fill-rule="evenodd" clip-rule="evenodd" d="M40.433 49.5624C39.6069 49.625 38.988 50.3454 39.0506 51.1715L40.9514 76.2474C41.014 77.0735 41.7345 77.6924 42.5605 77.6298C43.3866 77.5672 44.0055 76.8467 43.9428 76.0207L42.042 50.9447C41.9794 50.1187 41.259 49.4998 40.433 49.5624Z" fill="#89C3D6"/>
<path fill-rule="evenodd" clip-rule="evenodd" d="M23.845 49.5624C24.6711 49.625 25.2899 50.3454 25.2273 51.1715L23.3265 76.2474C23.2639 77.0735 22.5435 77.6924 21.7174 77.6298C20.8914 77.5672 20.2725 76.8467 20.3351 76.0207L22.2359 50.9447C22.2985 50.1187 23.0189 49.4998 23.845 49.5624Z" fill="#9ED0E0"/>
<path fill-rule="evenodd" clip-rule="evenodd" d="M31.9928 51.0201C32.8212 51.0201 33.4928 51.6917 33.4928 52.5201V80.0086C33.4928 80.8371 32.8212 81.5086 31.9928 81.5086C31.1644 81.5086 30.4928 80.8371 30.4928 80.0086V52.5201C30.4928 51.6917 31.1644 51.0201 31.9928 51.0201Z" fill="#7EB8CB"/>
<path d="M31.9693 44.7107C37.7835 44.7107 42.4968 42.8843 42.4968 40.6313V29.6643H21.4418V40.6313C21.4418 42.8843 26.1551 44.7107 31.9693 44.7107Z" fill="#84BCEE"/>
<path fill-rule="evenodd" clip-rule="evenodd" d="M19.4418 29.6643C19.4418 28.5597 20.3372 27.6643 21.4418 27.6643H42.4968C43.6014 27.6643 44.4968 28.5597 44.4968 29.6643V40.6313C44.4968 41.9461 43.8013 42.9786 43.0205 43.6939C42.2411 44.408 41.2239 44.9592 40.136 45.3808C37.9472 46.2289 35.0592 46.7107 31.9693 46.7107C28.8794 46.7107 25.9914 46.2289 23.8026 45.3808C22.7146 44.9592 21.6975 44.408 20.918 43.6939C20.1372 42.9786 19.4418 41.9461 19.4418 40.6313V29.6643ZM42.4968 40.6313C42.4968 42.8843 37.7835 44.7107 31.9693 44.7107C26.1551 44.7107 21.4418 42.8843 21.4418 40.6313V29.6643H42.4968V40.6313Z" fill="#2B4666"/>
<path d="M42.4968 40.6313V29.6643H37.6716L37.858 44.0133C40.6568 43.2801 42.4968 42.039 42.4968 40.6313Z" fill="#629BCE"/>
<path d="M42.4968 29.8288C42.4968 32.0818 37.7835 33.9082 31.9693 33.9082C26.1551 33.9082 21.4418 32.0818 21.4418 29.8288C21.4418 27.5758 26.1551 25.7494 31.9693 25.7494C37.7835 25.7494 42.4968 27.5758 42.4968 29.8288Z" fill="#AACFF1"/>
<path fill-rule="evenodd" clip-rule="evenodd" d="M40.136 34.5783C37.9472 35.4264 35.0592 35.9082 31.9693 35.9082C28.8794 35.9082 25.9914 35.4264 23.8026 34.5783C22.7146 34.1567 21.6975 33.6055 20.918 32.8914C20.1372 32.176 19.4418 31.1436 19.4418 29.8288C19.4418 28.514 20.1372 27.4816 20.918 26.7662C21.6975 26.0521 22.7146 25.5009 23.8026 25.0793C25.9914 24.2312 28.8794 23.7494 31.9693 23.7494C35.0592 23.7494 37.9472 24.2312 40.136 25.0793C41.2239 25.5009 42.2411 26.0521 43.0205 26.7662C43.8013 27.4816 44.4968 28.514 44.4968 29.8288C44.4968 31.1436 43.8013 32.176 43.0205 32.8914C42.2411 33.6055 41.2239 34.1567 40.136 34.5783ZM31.9693 33.9082C37.7835 33.9082 42.4968 32.0818 42.4968 29.8288C42.4968 27.5758 37.7835 25.7494 31.9693 25.7494C26.1551 25.7494 21.4418 27.5758 21.4418 29.8288C21.4418 32.0818 26.1551 33.9082 31.9693 33.9082Z" fill="#2B4666"/>
<path d="M34.7396 29.8288C34.7396 31.2101 31.8499 32.3299 28.2852 32.3299C24.7205 32.3299 21.8308 31.2101 21.8308 29.8288C21.8308 28.4475 24.7205 27.3277 28.2852 27.3277C31.8499 27.3277 34.7396 28.4475 34.7396 29.8288Z" fill="#ECF6FF"/>
<path d="M28.1404 29.6643C28.1404 30.1821 27.3849 30.6018 26.4529 30.6018C25.5209 30.6018 24.7654 30.1821 24.7654 29.6643C24.7654 29.1465 25.5209 28.7268 26.4529 28.7268C27.3849 28.7268 28.1404 29.1465 28.1404 29.6643Z" fill="#2B4666"/>
<path d="M33.6567 27.9456C33.6567 28.4633 32.9012 28.8831 31.9692 28.8831C31.0373 28.8831 30.2817 28.4633 30.2817 27.9456C30.2817 27.4278 31.0373 27.0081 31.9692 27.0081C32.9012 27.0081 33.6567 27.4278 33.6567 27.9456Z" fill="#2B4666"/>
<path d="M39.1727 29.3518C39.1727 29.8696 38.4172 30.2893 37.4852 30.2893C36.5532 30.2893 35.7977 29.8696 35.7977 29.3518C35.7977 28.834 36.5532 28.4143 37.4852 28.4143C38.4172 28.4143 39.1727 28.834 39.1727 29.3518Z" fill="#2B4666"/>
<path d="M33.6565 31.0393C33.6565 31.5571 32.901 31.9768 31.969 31.9768C31.037 31.9768 30.2815 31.5571 30.2815 31.0393C30.2815 30.5215 31.037 30.1018 31.969 30.1018C32.901 30.1018 33.6565 30.5215 33.6565 31.0393Z" fill="#2B4666"/>
<path fill-rule="evenodd" clip-rule="evenodd" d="M24.2029 36.2051C24.7552 36.2051 25.2029 36.6528 25.2029 37.2051V41.1426C25.2029 41.6949 24.7552 42.1426 24.2029 42.1426C23.6506 42.1426 23.2029 41.6949 23.2029 41.1426V37.2051C23.2029 36.6528 23.6506 36.2051 24.2029 36.2051Z" fill="#B6DDFF"/>
</svg>
