<svg width="103" height="94" viewBox="0 0 103 94" fill="none" xmlns="http://www.w3.org/2000/svg">
<path fill-rule="evenodd" clip-rule="evenodd" d="M89.2921 58.7169C89.4602 59.5134 88.8897 60.2836 88.0179 60.4372L80.7709 61.7139L82.5072 67.6338C82.737 68.4174 82.228 69.2227 81.3703 69.4327C80.5127 69.6426 79.6311 69.1776 79.4013 68.3941L77.2182 60.9505C77.1027 60.5567 77.1715 60.1367 77.4083 59.7911C77.6451 59.4455 78.0285 59.2054 78.4667 59.1282L87.4091 57.5528C88.2809 57.3992 89.124 57.9204 89.2921 58.7169Z" fill="#75C4FE"/>
<path fill-rule="evenodd" clip-rule="evenodd" d="M25.0933 31.0583C25.3023 31.7709 24.9002 32.5146 24.1538 32.7961L17.1981 35.4193C16.3774 35.7288 15.4374 35.3719 15.0986 34.6221C14.7598 33.8724 15.1505 33.0136 15.9712 32.7041L21.6221 30.5729L19.9722 24.9476C19.7424 24.164 20.2514 23.3587 21.109 23.1487C21.9667 22.9388 22.8482 23.4038 23.078 24.1873L25.0933 31.0583Z" fill="#75C4FE"/>
<path fill-rule="evenodd" clip-rule="evenodd" d="M82.1409 23.1296C82.9789 23.3977 83.4203 24.2357 83.1269 25.0013L80.6876 31.3651L87.1611 32.9734C88.0178 33.1862 88.5235 33.9933 88.2905 34.7761C88.0575 35.5588 87.1741 36.0208 86.3173 35.8079L78.1777 33.7857C77.7471 33.6787 77.3845 33.413 77.1768 33.0522C76.969 32.6913 76.9348 32.2678 77.0823 31.883L80.0922 24.0304C80.3856 23.2648 81.3029 22.8615 82.1409 23.1296Z" fill="#75C4FE"/>
<path fill-rule="evenodd" clip-rule="evenodd" d="M23.6724 59.8947C24.4516 60.0883 24.9527 60.7799 24.8434 61.5109L23.8244 68.3223C23.7042 69.126 22.8936 69.6885 22.0139 69.5787C21.1342 69.4688 20.5185 68.7283 20.6387 67.9246L21.4665 62.3909L15.3152 60.8626C14.4584 60.6497 13.9527 59.8426 14.1857 59.0599C14.4187 58.2772 15.3022 57.8152 16.159 58.028L23.6724 59.8947Z" fill="#75C4FE"/>
<path fill-rule="evenodd" clip-rule="evenodd" d="M44.5885 10.915C45.2595 10.3837 46.2748 10.45 46.8563 11.063L51.6901 16.1584L56.4337 11.8247C57.0616 11.2511 58.0795 11.2511 58.7073 11.8247C59.3352 12.3983 59.3352 13.3282 58.7073 13.9018L52.7428 19.3509C52.4272 19.6392 51.9947 19.7947 51.5487 19.7802C51.1027 19.7656 50.6833 19.5824 50.3911 19.2743L44.4265 12.9869C43.845 12.3739 43.9175 11.4463 44.5885 10.915Z" fill="#75C4FE"/>
<path fill-rule="evenodd" clip-rule="evenodd" d="M50.4691 75.5373C51.0401 75.0156 51.946 74.9618 52.5861 75.4117L58.5506 79.6033C59.2544 80.0978 59.3861 81.02 58.8447 81.6629C58.3034 82.3059 57.294 82.4262 56.5902 81.9316L51.7445 78.5263L47.2369 82.6443C46.6091 83.2179 45.5912 83.2179 44.9633 82.6443C44.3355 82.0707 44.3355 81.1408 44.9633 80.5672L50.4691 75.5373Z" fill="#75C4FE"/>
<path fill-rule="evenodd" clip-rule="evenodd" d="M90.5607 66.7891C89.9687 67.7258 88.6577 68.0467 87.6325 67.5059L14.124 28.7334C13.0987 28.1926 12.7474 26.995 13.3394 26.0583C13.9313 25.1216 15.2423 24.8007 16.2676 25.3415L89.7761 64.114C90.8013 64.6548 91.1526 65.8524 90.5607 66.7891Z" fill="#43AEFC"/>
<path fill-rule="evenodd" clip-rule="evenodd" d="M86.8689 52.0025C87.2542 53.0252 86.659 54.1396 85.5396 54.4915L73.9542 58.1341L75.3934 69.0476C75.5351 70.1214 74.697 71.0967 73.5217 71.2261C72.3463 71.3555 71.2787 70.5899 71.1371 69.5161L69.4906 57.0315C69.3698 56.1151 69.9659 55.2459 70.9213 54.9455L84.1445 50.788C85.2639 50.4361 86.4837 50.9798 86.8689 52.0025Z" fill="#43AEFC"/>
<path fill-rule="evenodd" clip-rule="evenodd" d="M34.4045 35.7744C34.541 36.6565 34.0087 37.5116 33.1091 37.8553L21.9341 42.1251C20.8419 42.5424 19.5862 42.0718 19.1294 41.074C18.6726 40.0762 19.1877 38.929 20.2799 38.5117L29.9278 34.8254L28.2837 24.2012C28.118 23.1303 28.9339 22.1394 30.1061 21.988C31.2783 21.8366 32.3629 22.582 32.5286 23.6529L34.4045 35.7744Z" fill="#43AEFC"/>
<path fill-rule="evenodd" clip-rule="evenodd" d="M90.4155 26.1892C91.0036 27.1279 90.6474 28.3244 89.6199 28.8617L15.9539 67.3837C14.9264 67.9209 13.6167 67.5956 13.0286 66.6569C12.4405 65.7182 12.7967 64.5217 13.8241 63.9845L87.4902 25.4625C88.5177 24.9252 89.8273 25.2506 90.4155 26.1892Z" fill="#43AEFC"/>
<path fill-rule="evenodd" clip-rule="evenodd" d="M74.5716 21.6635C75.7328 21.874 76.4874 22.9047 76.257 23.9655L73.8725 34.9449L84.9199 39.3006C86.0068 39.7292 86.5077 40.8816 86.0386 41.8746C85.5695 42.8677 84.3081 43.3253 83.2211 42.8967L70.5834 37.914C69.6557 37.5482 69.1335 36.6403 69.3302 35.7348L72.0518 23.2033C72.2822 22.1424 73.4104 21.453 74.5716 21.6635Z" fill="#43AEFC"/>
<path fill-rule="evenodd" clip-rule="evenodd" d="M32.8203 54.9167C33.7233 55.2528 34.2642 56.1034 34.1366 56.9865L32.5519 67.9576C32.397 69.0299 31.32 69.7844 30.1463 69.6429C28.9726 69.5014 28.1467 68.5175 28.3016 67.4452L29.6698 57.9734L18.793 53.925C17.6966 53.5169 17.1699 52.3741 17.6166 51.3725C18.0632 50.3709 19.3141 49.8897 20.4105 50.2978L32.8203 54.9167Z" fill="#43AEFC"/>
<path fill-rule="evenodd" clip-rule="evenodd" d="M51.6059 5.875C52.7897 5.875 53.7494 6.75178 53.7494 7.83333V85.3783C53.7494 86.4598 52.7897 87.3366 51.6059 87.3366C50.422 87.3366 49.4623 86.4598 49.4623 85.3783V7.83333C49.4623 6.75178 50.422 5.875 51.6059 5.875Z" fill="#43AEFC"/>
<path fill-rule="evenodd" clip-rule="evenodd" d="M39.4356 16.1892C40.2124 15.373 41.5664 15.2867 42.4597 15.9964L51.7054 23.3413L61.3312 16.7458C62.2783 16.0969 63.6219 16.2722 64.3322 17.1375C65.0425 18.0027 64.8506 19.2302 63.9035 19.8792L52.892 27.4241C52.0837 27.9779 50.9617 27.9409 50.1993 27.3352L39.6466 18.9519C38.7532 18.2422 38.6588 17.0053 39.4356 16.1892Z" fill="#43AEFC"/>
<path fill-rule="evenodd" clip-rule="evenodd" d="M50.2847 65.8121C51.0526 65.2631 52.1293 65.2567 52.9049 65.7966L62.5399 72.5032C63.4816 73.1587 63.6634 74.3874 62.9459 75.2478C62.2284 76.1081 60.8834 76.2741 59.9417 75.6186L51.6233 69.8285L42.3742 76.4414C41.4419 77.108 40.0946 76.9579 39.365 76.1062C38.6354 75.2544 38.7997 74.0236 39.732 73.357L50.2847 65.8121Z" fill="#43AEFC"/>
<path fill-rule="evenodd" clip-rule="evenodd" d="M39.0028 27.1289C39.582 26.7995 40.2982 26.7417 40.9317 26.9732L51.7107 30.9122L63.3848 27.7521C63.9713 27.5934 64.6041 27.6711 65.1239 27.9657C65.6436 28.2603 66.0009 28.7437 66.1057 29.2942L67.8189 38.2937L75.5595 44.9725C75.9956 45.3488 76.2391 45.8747 76.2311 46.4226C76.223 46.9706 75.964 47.4903 75.517 47.8557L67.2902 54.5804L64.2381 65.7335C64.0853 66.292 63.6713 66.7607 63.1061 67.0152C62.5408 67.2696 61.8817 67.284 61.3039 67.0545L51.4909 63.1567L40.7889 66.2854C40.1645 66.4679 39.4831 66.3794 38.9391 66.0451C38.3952 65.7108 38.0486 65.1675 37.9983 64.5704L37.1637 54.6584L27.0704 48.8953C26.471 48.553 26.0948 47.9628 26.0648 47.3177C26.0348 46.6725 26.3549 46.0554 26.9203 45.6679L37.1551 38.6552L37.9983 28.6413C38.0506 28.0198 38.4236 27.4583 39.0028 27.1289ZM42.049 31.5999L41.3552 39.8399C41.3079 40.4019 40.9977 40.9181 40.5041 41.2563L31.9936 47.0876L40.354 51.8614C40.9314 52.191 41.303 52.7516 41.3552 53.3718L42.0649 61.8L50.9526 59.2018C51.4478 59.057 51.9837 59.0816 52.4606 59.271L60.6927 62.5409L63.2907 53.047C63.3947 52.6668 63.6212 52.3239 63.9409 52.0626L70.9206 46.3573L64.3572 40.6942C64.021 40.4041 63.7964 40.0224 63.7172 39.6061L62.2944 32.1323L52.2148 34.8607C51.7525 34.9859 51.2575 34.965 50.8098 34.8014L42.049 31.5999Z" fill="#43AEFC"/>
<path fill-rule="evenodd" clip-rule="evenodd" d="M51.5682 31.5147C52.1772 31.5016 52.7419 31.804 53.0269 32.2958L56.6532 38.5535L65.218 37.8083C65.8123 37.7566 66.389 38.01 66.7158 38.4664C67.0426 38.9228 67.0657 39.507 66.7758 39.9837L62.6637 46.7458L66.7081 52.2881C67.037 52.7388 67.0676 53.3183 66.7879 53.7958C66.5081 54.2734 65.9633 54.5716 65.3704 54.5716H56.7527L53.059 61.6956C52.7927 62.2092 52.226 62.5363 51.604 62.5356C50.982 62.5349 50.4162 62.2064 50.1514 61.6923L46.8639 55.3101L39.4994 54.5626C38.9417 54.506 38.4567 54.1878 38.2197 53.7232C37.9827 53.2585 38.028 52.7146 38.3392 52.2881L42.3328 46.8154L37.4216 40.0852C37.0767 39.6126 37.0611 39.0006 37.3814 38.5138C37.7017 38.0269 38.3006 37.7525 38.9193 37.809L46.9648 38.544L50.1514 32.3576C50.4107 31.8541 50.9593 31.5278 51.5682 31.5147ZM51.6907 36.2682L49.3902 40.7342C49.1002 41.2972 48.4533 41.6322 47.7756 41.5702L41.9836 41.0411L45.6027 46.0007C45.9627 46.494 45.9627 47.1367 45.6027 47.6301L42.4799 51.9095L48.1131 52.4814C48.6686 52.5377 49.1522 52.8537 49.3902 53.3157L51.6108 57.6267L54.2824 52.474C54.5484 51.9611 55.1141 51.6341 55.7354 51.6341H62.3664L59.4446 47.6301C59.1107 47.1725 59.0846 46.5828 59.3769 46.1021L62.4812 40.9972L55.8878 41.5709C55.24 41.6273 54.6189 41.3214 54.3145 40.796L51.6907 36.2682Z" fill="#75C4FE"/>
</svg>
