<svg width="96" height="97" viewBox="0 0 96 97" fill="none" xmlns="http://www.w3.org/2000/svg">
<path d="M65.1392 84.1122C65.1392 86.2935 57.4563 88.0618 47.979 88.0618C38.5017 88.0618 30.8188 86.2935 30.8188 84.1122C30.8188 81.9308 38.5017 80.1625 47.979 80.1625C57.4563 80.1625 65.1392 81.9308 65.1392 84.1122Z" fill="#A0D6ED"/>
<path fill-rule="evenodd" clip-rule="evenodd" d="M60.5617 88.854C57.2701 89.6116 52.8225 90.0618 47.979 90.0618C43.1355 90.0618 38.6879 89.6116 35.3963 88.854C33.7666 88.4789 32.3096 88.0039 31.2114 87.4063C30.6634 87.1081 30.1103 86.7291 29.6728 86.237C29.2243 85.7326 28.8188 85.0133 28.8188 84.1122C28.8188 83.211 29.2243 82.4917 29.6728 81.9873C30.1103 81.4952 30.6634 81.1163 31.2114 80.818C32.3096 80.2204 33.7666 79.7454 35.3963 79.3703C38.6879 78.6127 43.1355 78.1625 47.979 78.1625C52.8225 78.1625 57.2701 78.6127 60.5617 79.3703C62.1914 79.7454 63.6484 80.2204 64.7466 80.818C65.2946 81.1163 65.8477 81.4952 66.2852 81.9873C66.7337 82.4917 67.1392 83.211 67.1392 84.1122C67.1392 85.0133 66.7337 85.7326 66.2852 86.237C65.8477 86.7291 65.2946 87.1081 64.7466 87.4063C63.6484 88.0039 62.1914 88.4789 60.5617 88.854ZM47.979 88.0618C57.4563 88.0618 65.1392 86.2935 65.1392 84.1122C65.1392 81.9308 57.4563 80.1625 47.979 80.1625C38.5017 80.1625 30.8188 81.9308 30.8188 84.1122C30.8188 86.2935 38.5017 88.0618 47.979 88.0618Z" fill="#377894"/>
<path d="M51.7819 83.7451C51.7819 84.9901 47.3969 85.9993 41.9879 85.9993C36.5788 85.9993 32.1938 84.9901 32.1938 83.7451C32.1938 82.5001 36.5788 81.4908 41.9879 81.4908C47.3969 81.4908 51.7819 82.5001 51.7819 83.7451Z" fill="#D7F3FF"/>
<path d="M46.4375 48.0656C46.4375 47.2026 47.1371 46.5031 48 46.5031C48.8629 46.5031 49.5625 47.2026 49.5625 48.0656V81.5497C49.5625 82.4126 48.8629 83.1122 48 83.1122C47.1371 83.1122 46.4375 82.4126 46.4375 81.5497V48.0656Z" fill="#A0D6ED"/>
<path fill-rule="evenodd" clip-rule="evenodd" d="M51.5625 48.0656V81.5497C51.5625 83.5172 49.9675 85.1122 48 85.1122C46.0325 85.1122 44.4375 83.5172 44.4375 81.5497V48.0656C44.4375 46.098 46.0325 44.5031 48 44.5031C49.9675 44.5031 51.5625 46.098 51.5625 48.0656ZM48 46.5031C47.1371 46.5031 46.4375 47.2026 46.4375 48.0656V81.5497C46.4375 82.4126 47.1371 83.1122 48 83.1122C48.8629 83.1122 49.5625 82.4126 49.5625 81.5497V48.0656C49.5625 47.2026 48.8629 46.5031 48 46.5031Z" fill="#649DB6"/>
<path fill-rule="evenodd" clip-rule="evenodd" d="M47.25 60.0497C47.8023 60.0497 48.25 60.4974 48.25 61.0497V70.4247C48.25 70.977 47.8023 71.4247 47.25 71.4247C46.6977 71.4247 46.25 70.977 46.25 70.4247V61.0497C46.25 60.4974 46.6977 60.0497 47.25 60.0497Z" fill="#C8EFFF"/>
<path d="M30.736 14.2371H65.1933L69.4705 39.4638C70.8267 44.9283 67.4705 48.9195 62.1128 51.7109C57.1404 54.3016 53.5804 54.8033 47.9647 54.8033C42.3489 54.8033 38.8249 54.2313 33.8165 51.7109C30.2115 49.8967 25.0767 46.3033 26.4588 39.4638L30.736 14.2371Z" fill="#BBE9FD"/>
<path fill-rule="evenodd" clip-rule="evenodd" d="M28.7641 13.9027C28.9272 12.9409 29.7604 12.2371 30.736 12.2371H65.1933C66.1688 12.2371 67.0021 12.9409 67.1651 13.9027L71.4303 39.0583C72.2172 42.3116 71.6077 45.2222 69.9787 47.6912C68.3828 50.11 65.8812 52.0027 63.0369 53.4846C57.6899 56.2704 53.7836 56.8033 47.9646 56.8033C42.1199 56.8033 38.2706 56.1913 32.9174 53.4974C31.0158 52.5405 28.5257 51.0291 26.697 48.7104C24.812 46.3202 23.6861 43.1336 24.492 39.0996L28.7641 13.9027ZM26.4588 39.4638C25.0766 46.3033 30.2114 49.8967 33.8164 51.7109C38.8249 54.2313 42.3489 54.8033 47.9646 54.8033C53.5803 54.8033 57.1404 54.3016 62.1128 51.7109C67.4705 48.9195 70.8266 44.9283 69.4705 39.4638L65.1933 14.2371H30.736L26.4588 39.4638Z" fill="#6BB3D1"/>
<path d="M47.9647 54.8033C53.5804 54.8033 57.1404 54.3016 62.1128 51.7109C67.4705 48.9195 70.8267 44.9283 69.4705 39.4638L68.0133 30.8691H27.916L26.4588 39.4638C25.0767 46.3033 30.2115 49.8967 33.8165 51.7109C38.8249 54.2313 42.3489 54.8033 47.9647 54.8033Z" fill="#99130C"/>
<path fill-rule="evenodd" clip-rule="evenodd" d="M68.0132 30.8691L69.4705 39.4638C70.8266 44.9283 67.4705 48.9195 62.1128 51.7109C57.1404 54.3016 53.5803 54.8033 47.9646 54.8033C42.3489 54.8033 38.8249 54.2313 33.8164 51.7109C30.2114 49.8967 25.0766 46.3033 26.4588 39.4638L27.916 30.8691H68.0132ZM24.492 39.0996C23.6861 43.1336 24.812 46.3202 26.697 48.7104C28.5257 51.0291 31.0158 52.5405 32.9174 53.4974C38.2706 56.1913 42.1199 56.8033 47.9646 56.8033C53.7836 56.8033 57.6899 56.2704 63.0369 53.4846C65.8812 52.0027 68.3828 50.11 69.9787 47.6912C71.6077 45.2222 72.2172 42.3116 71.4303 39.0583L69.9851 30.5348C69.822 29.573 68.9888 28.8691 68.0132 28.8691H27.916C26.9404 28.8691 26.1072 29.573 25.9441 30.5348L24.492 39.0996Z" fill="#5B0501"/>
<path d="M40.6876 46.3812C40.6876 49.944 37.6563 50.7696 34.3126 49.8812C30.9688 48.9927 28.0625 45.9437 27.7188 42.6935C27.3751 39.4434 28.5 36.1935 31.8751 36.9437C35.2501 37.6938 40.6876 42.8183 40.6876 46.3812Z" fill="#780A04"/>
<path d="M65.1392 13.8622C65.1392 16.0435 57.4563 17.8118 47.979 17.8118C38.5017 17.8118 30.8188 16.0435 30.8188 13.8622C30.8188 11.6808 38.5017 9.91248 47.979 9.91248C57.4563 9.91248 65.1392 11.6808 65.1392 13.8622Z" fill="#D7F3FF"/>
<path fill-rule="evenodd" clip-rule="evenodd" d="M60.5617 18.604C57.2701 19.3616 52.8225 19.8118 47.979 19.8118C43.1355 19.8118 38.6879 19.3616 35.3963 18.604C33.7666 18.2289 32.3096 17.7539 31.2114 17.1563C30.6634 16.8581 30.1103 16.4791 29.6728 15.987C29.2243 15.4826 28.8188 14.7633 28.8188 13.8622C28.8188 12.961 29.2243 12.2417 29.6728 11.7373C30.1103 11.2452 30.6634 10.8663 31.2114 10.568C32.3096 9.9704 33.7666 9.49538 35.3963 9.12027C38.6879 8.36267 43.1355 7.91248 47.979 7.91248C52.8225 7.91248 57.2701 8.36267 60.5617 9.12027C62.1914 9.49538 63.6484 9.9704 64.7466 10.568C65.2946 10.8663 65.8477 11.2452 66.2852 11.7373C66.7337 12.2417 67.1392 12.961 67.1392 13.8622C67.1392 14.7633 66.7337 15.4826 66.2852 15.987C65.8477 16.4791 65.2946 16.8581 64.7466 17.1563C63.6484 17.7539 62.1914 18.2289 60.5617 18.604ZM47.979 17.8118C57.4563 17.8118 65.1392 16.0435 65.1392 13.8622C65.1392 11.6808 57.4563 9.91248 47.979 9.91248C38.5017 9.91248 30.8188 11.6808 30.8188 13.8622C30.8188 16.0435 38.5017 17.8118 47.979 17.8118Z" fill="#6BB3D1"/>
<path fill-rule="evenodd" clip-rule="evenodd" d="M48.0001 11.7842C48.0087 11.232 48.4633 10.7912 49.0155 10.7998C55.5965 10.9018 60.0178 12.5394 61.5165 13.4434C61.9894 13.7286 62.1415 14.3433 61.8563 14.8162C61.571 15.2891 60.9564 15.4412 60.4835 15.156C59.3573 14.4766 55.3035 12.8975 48.9845 12.7996C48.4323 12.791 47.9916 12.3364 48.0001 11.7842Z" fill="white"/>
<path d="M65.3267 41.5533C65.3267 42.9341 64.2074 44.0533 62.8267 44.0533C61.4459 44.0533 60.3267 42.9341 60.3267 41.5533C60.3267 40.1726 61.4459 39.0533 62.8267 39.0533C64.2074 39.0533 65.3267 40.1726 65.3267 41.5533Z" fill="#E3160C"/>
<path d="M61.5142 47.4596C61.5142 48.4434 60.7167 49.2408 59.7329 49.2408C58.7492 49.2408 57.9517 48.4434 57.9517 47.4596C57.9517 46.4758 58.7492 45.6783 59.7329 45.6783C60.7167 45.6783 61.5142 46.4758 61.5142 47.4596Z" fill="#E3160C"/>
<path d="M56.6704 46.9752C56.6704 47.7217 56.0653 48.3268 55.3188 48.3268C54.5724 48.3268 53.9673 47.7217 53.9673 46.9752C53.9673 46.2288 54.5724 45.6237 55.3188 45.6237C56.0653 45.6237 56.6704 46.2288 56.6704 46.9752Z" fill="#E3160C"/>
<path d="M61.6782 36.8346C61.6782 37.581 61.0731 38.1862 60.3267 38.1862C59.5802 38.1862 58.9751 37.581 58.9751 36.8346C58.9751 36.0881 59.5802 35.483 60.3267 35.483C61.0731 35.483 61.6782 36.0881 61.6782 36.8346Z" fill="#E3160C"/>
<path d="M62.3892 32.4674C62.3892 32.9118 62.0289 33.2721 61.5845 33.2721C61.1401 33.2721 60.7798 32.9118 60.7798 32.4674C60.7798 32.023 61.1401 31.6627 61.5845 31.6627C62.0289 31.6627 62.3892 32.023 62.3892 32.4674Z" fill="#E3160C"/>
<path d="M66.1313 30.2484C66.1313 30.6928 65.7711 31.0531 65.3267 31.0531C64.8822 31.0531 64.522 30.6928 64.522 30.2484C64.522 29.804 64.8822 29.4437 65.3267 29.4437C65.7711 29.4437 66.1313 29.804 66.1313 30.2484Z" fill="#E3160C"/>
<path d="M53.5063 49.4518C53.5063 49.8962 53.1461 50.2565 52.7017 50.2565C52.2572 50.2565 51.897 49.8962 51.897 49.4518C51.897 49.0074 52.2572 48.6471 52.7017 48.6471C53.1461 48.6471 53.5063 49.0074 53.5063 49.4518Z" fill="#E3160C"/>
<path d="M49.6094 51.983C49.6094 52.4274 49.2491 52.7877 48.8047 52.7877C48.3603 52.7877 48 52.4274 48 51.983C48 51.5386 48.3603 51.1783 48.8047 51.1783C49.2491 51.1783 49.6094 51.5386 49.6094 51.983Z" fill="#E3160C"/>
<path d="M53.9673 44.0533C53.9673 44.4978 53.607 44.858 53.1626 44.858C52.7182 44.858 52.3579 44.4978 52.3579 44.0533C52.3579 43.6089 52.7182 43.2487 53.1626 43.2487C53.607 43.2487 53.9673 43.6089 53.9673 44.0533Z" fill="#E3160C"/>
<path d="M57.3579 37.0374C57.3579 37.4818 56.9976 37.842 56.5532 37.842C56.1088 37.842 55.7485 37.4818 55.7485 37.0374C55.7485 36.5929 56.1088 36.2327 56.5532 36.2327C56.9976 36.2327 57.3579 36.5929 57.3579 37.0374Z" fill="#E3160C"/>
<path d="M58.4517 41.5533C58.4517 42.5371 57.6542 43.3346 56.6704 43.3346C55.6867 43.3346 54.8892 42.5371 54.8892 41.5533C54.8892 40.5696 55.6867 39.7721 56.6704 39.7721C57.6542 39.7721 58.4517 40.5696 58.4517 41.5533Z" fill="#E3160C"/>
<path d="M67.1079 35.0533C67.1079 36.0371 66.3104 36.8346 65.3267 36.8346C64.3429 36.8346 63.5454 36.0371 63.5454 35.0533C63.5454 34.0696 64.3429 33.2721 65.3267 33.2721C66.3104 33.2721 67.1079 34.0696 67.1079 35.0533Z" fill="#E3160C"/>
<path d="M68.5767 40.2877C68.5767 40.7969 68.1639 41.2096 67.6548 41.2096C67.1456 41.2096 66.7329 40.7969 66.7329 40.2877C66.7329 39.7786 67.1456 39.3658 67.6548 39.3658C68.1639 39.3658 68.5767 39.7786 68.5767 40.2877Z" fill="#E3160C"/>
<path d="M65.3267 46.0533C65.3267 46.5625 64.9139 46.9752 64.4048 46.9752C63.8956 46.9752 63.4829 46.5625 63.4829 46.0533C63.4829 45.5442 63.8956 45.1315 64.4048 45.1315C64.9139 45.1315 65.3267 45.5442 65.3267 46.0533Z" fill="#E3160C"/>
<path d="M56.6704 51.1783C56.6704 51.6875 56.2577 52.1002 55.7485 52.1002C55.2394 52.1002 54.8267 51.6875 54.8267 51.1783C54.8267 50.6692 55.2394 50.2565 55.7485 50.2565C56.2577 50.2565 56.6704 50.6692 56.6704 51.1783Z" fill="#E3160C"/>
<path d="M68 30.9809C68 33.5213 59.0527 35.5807 48.0156 35.5807C36.9786 35.5807 28.0312 33.5213 28.0312 30.9809C28.0312 28.4406 36.9786 26.3812 48.0156 26.3812C59.0527 26.3812 68 28.4406 68 30.9809Z" fill="#C12F28"/>
<path fill-rule="evenodd" clip-rule="evenodd" d="M62.5953 36.1825C58.7927 37.0577 53.639 37.5807 48.0156 37.5807C42.3923 37.5807 37.2386 37.0577 33.4359 36.1825C31.5507 35.7486 29.8869 35.2035 28.6458 34.5281C28.0263 34.191 27.4177 33.7712 26.9426 33.2368C26.4565 32.6901 26.0312 31.9269 26.0312 30.9809C26.0312 30.035 26.4565 29.2718 26.9426 28.7251C27.4177 28.1907 28.0263 27.7709 28.6458 27.4338C29.8869 26.7584 31.5507 26.2133 33.4359 25.7794C37.2386 24.9042 42.3923 24.3812 48.0156 24.3812C53.639 24.3812 58.7927 24.9042 62.5953 25.7794C64.4806 26.2133 66.1444 26.7584 67.3855 27.4338C68.005 27.7709 68.6136 28.1907 69.0887 28.7251C69.5748 29.2718 70 30.035 70 30.9809C70 31.9269 69.5748 32.6901 69.0887 33.2368C68.6136 33.7712 68.005 34.191 67.3855 34.5281C66.1444 35.2035 64.4806 35.7486 62.5953 36.1825ZM48.0156 35.5807C59.0527 35.5807 68 33.5213 68 30.9809C68 28.4406 59.0527 26.3812 48.0156 26.3812C36.9786 26.3812 28.0312 28.4406 28.0312 30.9809C28.0312 33.5213 36.9786 35.5807 48.0156 35.5807Z" fill="#6C0905"/>
<path d="M52.7812 31.6628C52.7812 33.1286 47.6185 34.3169 41.25 34.3169C34.8815 34.3169 29.7188 33.1286 29.7188 31.6628C29.7188 30.1969 34.8815 29.0087 41.25 29.0087C47.6185 29.0087 52.7812 30.1969 52.7812 31.6628Z" fill="#A91A13"/>
<path fill-rule="evenodd" clip-rule="evenodd" d="M51.7531 28.5331C51.7968 27.9825 52.2785 27.5716 52.829 27.6153C55.971 27.8647 61.1574 28.4955 64.322 29.8141C64.8318 30.0265 65.0729 30.612 64.8605 31.1218C64.6481 31.6316 64.0626 31.8727 63.5528 31.6602C60.7175 30.4789 55.8288 29.8597 52.6708 29.609C52.1203 29.5653 51.7094 29.0836 51.7531 28.5331Z" fill="#F93F35"/>
<path fill-rule="evenodd" clip-rule="evenodd" d="M30.4683 37.1988C31.0073 37.3193 31.3465 37.8539 31.226 38.3929L31.2249 38.3978L31.2209 38.4158L31.205 38.4891C31.1912 38.5537 31.1712 38.6486 31.1471 38.7675C31.0988 39.0055 31.0344 39.3379 30.9701 39.7142C30.8386 40.4841 30.7188 41.3743 30.7188 42.0184C30.7187 43.315 31.0336 44.5571 32.0161 45.6214C32.3907 46.0272 32.3654 46.6599 31.9595 47.0345C31.5537 47.4091 30.9211 47.3838 30.5465 46.9779C29.1289 45.4423 28.7187 43.6593 28.7188 42.0184C28.7188 41.1938 28.8646 40.1621 28.9987 39.3773C29.0672 38.9763 29.1357 38.6231 29.187 38.37C29.2127 38.2432 29.2342 38.1411 29.2494 38.0701L29.2673 37.9876L29.2722 37.9653L29.274 37.9573C29.274 37.9572 29.2742 37.9564 30.25 38.1747L29.274 37.9573C29.3945 37.4183 29.9294 37.0782 30.4683 37.1988Z" fill="#E8291F"/>
<path fill-rule="evenodd" clip-rule="evenodd" d="M33.485 19.4397C34.029 19.535 34.3927 20.0532 34.2974 20.5972L32.7974 29.1597C32.7021 29.7037 32.1839 30.0675 31.6399 29.9722C31.0959 29.8769 30.7321 29.3586 30.8274 28.8146L32.3274 20.2521C32.4227 19.7081 32.941 19.3444 33.485 19.4397Z" fill="white"/>
</svg>
